<svg width="510" height="470" viewBox="0 0 510 470" fill="none" xmlns="http://www.w3.org/2000/svg">
<path d="M232.237 124.136H152.088V281.87H232.237V124.136Z" fill="#C3D9ED"/>
<path d="M229.936 124.136H149.786V281.87H229.936V124.136Z" fill="#E8F3F7"/>
<path d="M225.07 128.344H153.14V277.662H225.07V128.344Z" fill="#C3D9ED"/>
<path d="M226.648 128.344H154.718V277.662H226.648V128.344Z" fill="#D7E8F7"/>
<path d="M116.254 124.136H36.1047V281.87H116.254V124.136Z" fill="#C3D9ED"/>
<path d="M113.953 124.136H33.8035V281.87H113.953V124.136Z" fill="#E8F3F7"/>
<path d="M109.087 128.344H37.1567V277.662H109.087V128.344Z" fill="#C3D9ED"/>
<path d="M110.599 128.344H38.6689V277.662H110.599V128.344Z" fill="#D7E8F7"/>
<path d="M469.66 124.136H389.511V281.87H469.66V124.136Z" fill="#C3D9ED"/>
<path d="M467.359 124.136H387.21V281.87H467.359V124.136Z" fill="#E8F3F7"/>
<path d="M462.493 128.344H390.563V277.662H462.493V128.344Z" fill="#C3D9ED"/>
<path d="M464.071 128.344H392.141V277.662H464.071V128.344Z" fill="#D7E8F7"/>
<path d="M350.982 124.136H270.832V281.87H350.982V124.136Z" fill="#C3D9ED"/>
<path d="M348.68 124.136H268.531V281.87H348.68V124.136Z" fill="#E8F3F7"/>
<path d="M343.815 128.344H271.884V277.662H343.815V128.344Z" fill="#C3D9ED"/>
<path d="M345.393 128.344H273.462V277.662H345.393V128.344Z" fill="#D7E8F7"/>
<path d="M509.833 452.755H0.0737305V469.455H509.833V452.755Z" fill="#E8F3F7"/>
<path d="M509.833 447.56H0.0737305V452.755H509.833V447.56Z" fill="#D7E8F7"/>
<path d="M222.374 0H216.26V54.7698H222.374V0Z" fill="#D7E8F7"/>
<path d="M318.304 54.704V0H312.189V54.704" fill="#D7E8F7"/>
<path d="M381.687 54.7041H201.072L172.01 88.4996H413.97L381.687 54.7041Z" fill="#C3D9ED"/>
<path d="M325.931 54.7041H145.315L116.254 88.4996H358.214L325.931 54.7041Z" fill="#E8F3F7"/>
<path d="M103.564 154.775L93.11 156.485L91.4005 172.857C86.6007 172.791 82.5242 176.407 81.9982 181.207C81.4722 186.335 85.1542 190.938 90.3485 191.53C95.477 192.056 100.079 188.374 100.671 183.179C100.671 183.114 100.671 183.114 100.671 183.048L103.564 154.775Z" fill="#000851"/>
<path d="M66.9416 187.059H67.0073H98.2386C110.731 187.059 121.448 194.357 126.445 205.009L140.976 234.004H129.404V249.653H51.4246V202.642C51.4246 193.963 58.3283 187.059 66.9416 187.059Z" fill="#1F86FF"/>
<path d="M108.495 174.763L104.024 149.515C102.841 144.584 98.6985 140.705 93.307 140.113C86.5348 139.39 80.4858 144.321 79.7625 151.093L77.5928 171.542L84.2993 172.265L82.6555 187.848C82.6555 187.848 88.9018 195.277 88.9675 195.146L91.3345 172.988L108.495 174.763Z" fill="#CC7A5A"/>
<path d="M99.356 154.973C98.567 154.907 97.778 155.499 97.7123 156.288C97.6465 157.077 98.2383 157.866 99.0273 157.932C99.8163 157.997 100.605 157.406 100.671 156.617C100.803 155.762 100.211 155.039 99.356 154.973Z" fill="white" stroke="#000851" stroke-miterlimit="10"/>
<path d="M106.194 164.967L104.616 156.419C104.55 155.959 104.156 155.696 103.696 155.762C103.235 155.827 102.972 156.222 103.038 156.682L104.616 165.23C104.682 165.558 104.945 165.821 105.339 165.887C105.405 165.887 105.471 165.887 105.537 165.887C105.997 165.821 106.26 165.361 106.194 164.967Z" fill="#000851"/>
<path d="M103.893 149.252C102.644 144.453 98.5014 140.639 93.3071 140.113C86.5349 139.39 80.4859 144.321 79.7626 151.093L78.7764 160.298L77.5929 171.41C72.7931 171.344 68.7166 174.961 68.1906 179.76C67.6646 184.889 71.3466 189.491 76.5409 190.083C81.6694 190.609 86.2719 186.927 86.8636 181.733C86.8636 181.667 86.8636 181.667 86.8636 181.601L90.2826 148.989C90.2826 148.792 90.3484 148.661 90.3484 148.463C90.3484 148.332 90.3484 148.135 90.3484 148.003C91.9921 149.713 94.1619 150.896 96.7261 151.159C99.4219 151.488 101.92 150.765 103.893 149.252Z" fill="#000851"/>
<path d="M54.1859 193.765C57.3419 189.492 63.3909 188.505 67.6646 191.661C71.9384 194.817 72.9246 200.866 69.7686 205.14L46.5589 236.766C43.7974 240.514 38.4716 241.368 34.7239 238.607C30.9761 235.845 30.1214 230.52 32.8829 226.772C32.8829 226.706 32.9486 226.706 32.9486 226.706C32.9486 226.706 53.9229 194.094 54.1859 193.765Z" fill="#CC7A5A"/>
<path d="M85.8777 202.444C83.9709 203.759 83.3792 206.323 84.6284 208.296C85.8777 210.268 88.5077 210.86 90.4802 209.611L90.5459 209.677C97.7784 205.14 106.194 207.244 111.586 213.622L121.383 207.375C112.704 193.634 97.9757 194.554 85.8777 202.313V202.444Z" fill="#CC7A5A"/>
<path d="M33.1461 236.568C35.5131 240.316 40.5101 241.434 44.2578 239.001L90.4801 209.611C90.4801 209.611 90.5458 209.611 90.5458 209.545C92.5183 208.296 93.1101 205.6 91.8609 203.628C90.6116 201.655 87.9158 201.063 85.9433 202.313L85.8776 202.378L85.8119 202.313C85.8119 202.313 35.9076 225.194 35.5788 225.391C31.8311 227.824 30.7133 232.821 33.1461 236.568Z" fill="#CC7A5A"/>
<path d="M123.75 187.322C124.078 189.492 122.632 191.53 120.462 191.924C118.292 192.319 116.254 190.872 115.794 188.703C114.742 183.837 107.312 176.21 99.4878 176.605L97.5811 165.756C112.704 163.06 122.698 179.761 123.75 187.322Z" fill="#A05B4B"/>
<path d="M138.477 250.705C134.335 251.428 130.324 248.666 129.601 244.524L115.728 188.702C115.333 186.467 116.846 184.363 119.015 183.968C121.251 183.574 123.355 185.086 123.749 187.256C123.749 187.256 144.592 241.434 144.658 241.828C145.381 245.971 142.62 249.981 138.477 250.705Z" fill="#A05B4B"/>
<path d="M177.138 457.554L131.179 457.62V469.389H177.073C180.36 469.389 182.99 466.759 182.99 463.472C182.99 460.25 180.36 457.62 177.138 457.554Z" fill="black"/>
<path d="M51.4246 249.587L51.3588 335.719L34.1323 457.554H68.7168L85.9433 335.719V284.106H103.236L129.075 249.587H51.4246Z" fill="#304E9C"/>
<path d="M80.0916 457.554L34.1323 457.62V469.389H80.0258C83.3133 469.389 85.9433 466.759 85.9433 463.472C85.9433 460.25 83.3791 457.62 80.0916 457.554Z" fill="black"/>
<path d="M103.235 284.106L131.179 457.554H165.698L129.075 249.587L103.235 284.106Z" fill="#293E68"/>
<path d="M73.5823 207.967C70.8208 209.217 67.862 210.597 64.706 212.044L69.703 205.206C72.859 200.932 71.9385 194.883 67.599 191.727C63.3253 188.571 57.2763 189.492 54.1203 193.831C53.923 194.16 32.8831 226.772 32.8831 226.772L32.8173 226.838C30.0558 230.585 30.8448 235.911 34.6583 238.673C36.1706 239.79 37.8801 240.316 39.6553 240.316C41.2333 240.382 42.8771 239.988 44.2578 239.067L71.0838 221.972C69.1113 216.515 71.6098 211.123 73.5823 207.967Z" fill="#0176FF"/>
<path d="M144.658 241.828C144.592 241.565 134.664 215.594 128.483 199.617C123.421 200.077 120.922 202.378 119.804 205.008C123.881 221.512 129.601 244.524 129.601 244.524C130.324 248.666 134.269 251.494 138.477 250.705C142.62 249.981 145.381 245.971 144.658 241.828Z" fill="#0176FF"/>
<path d="M167.539 386.347H163.792L163.331 387.333C160.241 388.911 158.071 392.067 158.071 395.815C158.071 399.497 160.175 402.719 163.266 404.297L164.252 405.283H167.539C172.799 405.283 177.007 401.075 177.007 395.815C177.007 390.621 172.734 386.347 167.539 386.347Z" fill="#383838"/>
<path d="M164.252 405.283C169.481 405.283 173.72 401.044 173.72 395.815C173.72 390.586 169.481 386.347 164.252 386.347C159.023 386.347 154.784 390.586 154.784 395.815C154.784 401.044 159.023 405.283 164.252 405.283Z" fill="black"/>
<path d="M164.252 401.799C167.556 401.799 170.235 399.12 170.235 395.815C170.235 392.511 167.556 389.832 164.252 389.832C160.947 389.832 158.268 392.511 158.268 395.815C158.268 399.12 160.947 401.799 164.252 401.799Z" fill="#383838"/>
<path d="M178.651 431.254H174.903L174.443 432.241C171.353 433.819 169.183 436.975 169.183 440.722C169.183 444.404 171.287 447.626 174.377 449.204L175.363 450.19H178.651C183.911 450.19 188.119 445.982 188.119 440.722C188.119 435.528 183.845 431.254 178.651 431.254Z" fill="#383838"/>
<path d="M175.363 450.19C180.592 450.19 184.831 445.951 184.831 440.722C184.831 435.493 180.592 431.254 175.363 431.254C170.134 431.254 165.895 435.493 165.895 440.722C165.895 445.951 170.134 450.19 175.363 450.19Z" fill="black"/>
<path d="M175.363 446.706C178.668 446.706 181.347 444.027 181.347 440.723C181.347 437.418 178.668 434.739 175.363 434.739C172.059 434.739 169.38 437.418 169.38 440.723C169.38 444.027 172.059 446.706 175.363 446.706Z" fill="#383838"/>
<path d="M268.268 293.705L210.54 352.091L244.335 469.061H319.224L268.268 293.705ZM247.754 323.753L254.921 348.409L241.376 360.507L234.538 337.1L247.754 323.753ZM257.025 355.642L265.507 384.835L251.305 394.697L243.48 367.74L257.025 355.642ZM269.452 382.073L260.773 352.289L276.487 338.284L285.889 370.699L269.452 382.073ZM287.993 377.8L299.828 418.565L281.484 423.43L271.556 389.24L287.993 377.8ZM247.36 397.393L231.645 408.308L224.676 384.506L239.733 371.093L247.36 397.393ZM249.464 404.56L256.828 429.939L239.272 434.608L233.749 415.54L249.464 404.56ZM253.409 401.798L267.611 391.936L277.079 424.548L261.233 428.756L253.409 401.798ZM279.183 431.846L287.862 461.697L270.832 461.828L263.337 435.988L279.183 431.846ZM283.588 430.728L301.932 425.863L312.255 461.434L292.53 461.631L283.588 430.728ZM274.383 331.051L258.734 345.056L251.436 320.071L266.69 304.62L274.383 331.051ZM230.922 340.782L237.629 363.861L222.638 377.274L216.326 355.576L230.922 340.782ZM247.228 462.091L241.376 441.84L258.932 437.172L266.098 461.894L247.228 462.091Z" fill="#8C8C8C"/>
<path d="M186.475 432.372L177.007 397.459C176.021 393.908 176.481 390.621 178.191 387.794C181.807 381.942 190.026 380.101 191.012 379.838L211.986 374.183L213.104 378.391L191.867 384.112C191.801 384.112 184.568 385.624 181.807 390.095C180.689 391.87 180.492 393.908 181.084 396.275L190.552 431.189L186.475 432.372Z" fill="#B5B5B5"/>
<path d="M143.08 432.372L134.401 400.352C133.415 396.801 133.875 393.514 135.585 390.687C139.201 384.835 147.42 382.994 148.406 382.731L169.38 377.076L170.498 381.284L149.261 387.005C149.195 387.005 141.962 388.517 139.201 392.988C138.083 394.763 137.886 396.801 138.478 399.168L147.157 431.189L143.08 432.372Z" fill="#8C8C8C"/>
<path d="M188.316 433.49L144.855 433.424C143.672 433.424 142.686 432.438 142.686 431.254C142.686 430.071 143.672 429.084 144.855 429.084L188.316 429.15C189.5 429.15 190.486 430.136 190.486 431.32C190.486 432.503 189.565 433.49 188.316 433.49Z" fill="#D1D1D1"/>
<path d="M191.472 297.124L137.097 352.552H216.523L269.254 297.124H191.472ZM184.831 331.972L197.127 319.611H218.364L206.2 331.972H184.831ZM202.781 335.391L189.302 349.133H167.736L181.347 335.391H202.781ZM179.308 331.972H162.805L174.706 319.611H191.604L179.308 331.972ZM200.546 316.126L214.813 301.793H235.788L221.717 316.126H200.546ZM223.821 319.611H243.349L231.645 331.972H211.723L223.821 319.611ZM227.24 316.126L241.311 301.793H260.97L247.097 316.126H227.24ZM191.801 301.858H209.29L195.023 316.126H177.993L191.801 301.858ZM159.452 335.391H175.889L162.279 349.133H146.302L159.452 335.391ZM214.682 349.133H194.825L208.304 335.391H227.832L214.682 349.133Z" fill="#8C8C8C"/>
<path d="M171.287 469.06L137.031 352.552H216.523L249.069 469.06H171.287ZM177.336 395.815L185.16 421.786H206.397L198.77 395.815H177.336ZM196.601 388.583L188.119 359.784H166.553L175.166 388.583H196.601ZM171.813 395.815H155.309L162.739 421.786H179.637L171.813 395.815ZM187.33 429.019L196.337 459.132H217.312L208.436 429.019H187.33ZM211.854 421.786H231.382L224.15 395.815H204.227L211.854 421.786ZM213.959 429.019L222.835 459.132H242.494L233.815 429.019H213.959ZM173.391 459.132H190.88L181.872 429.019H164.843L173.391 459.132ZM153.271 388.583H169.709L161.096 359.784H145.118L153.271 388.583ZM213.432 359.784H193.642L202.124 388.583H221.651L213.432 359.784Z" fill="#8C8C8C"/>
<path d="M122.763 386.347H119.016L118.555 387.333C115.465 388.911 113.295 392.067 113.295 395.815C113.295 399.497 115.399 402.719 118.49 404.297L119.476 405.283H122.763C128.023 405.283 132.231 401.075 132.231 395.815C132.231 390.621 127.958 386.347 122.763 386.347Z" fill="#383838"/>
<path d="M119.476 405.283C124.705 405.283 128.944 401.044 128.944 395.815C128.944 390.586 124.705 386.347 119.476 386.347C114.247 386.347 110.008 390.586 110.008 395.815C110.008 401.044 114.247 405.283 119.476 405.283Z" fill="black"/>
<path d="M119.476 401.799C122.78 401.799 125.459 399.12 125.459 395.815C125.459 392.511 122.78 389.832 119.476 389.832C116.171 389.832 113.493 392.511 113.493 395.815C113.493 399.12 116.171 401.799 119.476 401.799Z" fill="#383838"/>
<path d="M133.809 431.254H130.062L129.601 432.241C126.511 433.819 124.341 436.975 124.341 440.722C124.341 444.47 126.445 447.626 129.536 449.204L130.522 450.19H133.809C139.069 450.19 143.277 445.982 143.277 440.722C143.277 435.528 139.069 431.254 133.809 431.254Z" fill="#383838"/>
<path d="M130.588 450.19C135.817 450.19 140.056 445.951 140.056 440.722C140.056 435.493 135.817 431.254 130.588 431.254C125.359 431.254 121.12 435.493 121.12 440.722C121.12 445.951 125.359 450.19 130.588 450.19Z" fill="black"/>
<path d="M130.588 446.706C133.892 446.706 136.571 444.027 136.571 440.723C136.571 437.418 133.892 434.739 130.588 434.739C127.283 434.739 124.604 437.418 124.604 440.723C124.604 444.027 127.283 446.706 130.588 446.706Z" fill="#383838"/>
<path d="M194.497 293.705L136.768 352.091L170.958 469.061H245.519L194.497 293.705ZM173.983 323.753L181.149 348.409L167.605 360.507L160.767 337.1L173.983 323.753ZM183.188 355.642L191.669 384.835L177.467 394.697L169.643 367.74L183.188 355.642ZM195.614 382.073L187.001 352.289L202.715 338.284L212.118 370.699L195.614 382.073ZM214.156 377.8L225.991 418.565L207.647 423.43L197.718 389.24L214.156 377.8ZM173.522 397.393L157.808 408.308L150.904 384.506L165.961 371.093L173.522 397.393ZM175.626 404.56L182.99 429.874L165.435 434.542L159.912 415.474L175.626 404.56ZM179.571 401.798L193.773 391.936L203.241 424.548L187.396 428.756L179.571 401.798ZM205.345 431.846L214.024 461.697L196.995 461.828L189.5 435.988L205.345 431.846ZM209.751 430.728L228.095 425.863L238.418 461.434L218.693 461.631L209.751 430.728ZM200.611 331.117L184.897 345.122L177.599 320.137L192.853 304.686L200.611 331.117ZM157.085 340.848L163.791 363.926L148.8 377.339L142.488 355.642L157.085 340.848ZM173.457 462.091L167.605 441.84L185.16 437.172L192.327 461.894L173.457 462.091Z" fill="#B5B5B5"/>
<path d="M268.794 298.505L279.643 264.118C280.103 262.737 278.985 261.751 276.947 262.606C274.843 263.395 272.805 265.17 272.345 266.551L262.153 298.571C261.89 299.36 264.192 303.897 268.794 298.505Z" fill="#B5B5B5"/>
<path d="M272.082 268.26H201.926C200.085 268.26 199.954 266.748 201.663 264.907C203.373 263.066 204.162 261.356 206.003 261.356L276.092 261.554C279.972 261.554 280.432 263.921 278.722 265.762C277.013 267.603 273.923 268.26 272.082 268.26Z" fill="#383838"/>
<path d="M196.732 298.505L207.449 264.775C208.633 260.436 203.11 259.187 200.283 266.485L189.171 301.398C188.908 302.319 189.368 302.779 190.354 302.779C190.88 302.779 191.472 302.647 192.195 302.384C194.234 301.595 196.272 299.886 196.732 298.505Z" fill="#B5B5B5"/>
<path d="M333.874 419.154L333.874 384.766L316.91 384.766L316.91 419.154L333.874 419.154Z" fill="#383838"/>
<path d="M364.756 385.976L364.756 369.012L316.89 369.012L316.89 385.976L364.756 385.976Z" fill="#191919"/>
<path d="M364.885 412.498L364.885 386.001L333.851 386.001L333.851 412.498L364.885 412.498Z" fill="black"/>
<path d="M359.266 418.367C354.203 418.367 349.798 415.869 347.102 411.99H342.96C342.171 411.99 341.513 411.332 341.513 410.543V395.815C341.513 395.026 342.171 394.369 342.96 394.369H347.234C347.365 394.369 347.497 394.369 347.628 394.434C350.324 390.95 354.598 388.714 359.332 388.714C359.397 388.714 359.397 388.714 359.463 388.714H363.54C364.329 388.714 364.986 389.372 364.986 390.161V416.921C364.986 417.71 364.329 418.367 363.54 418.367H359.463C359.332 418.367 359.266 418.367 359.266 418.367Z" fill="#9DD3F4"/>
<path d="M369.809 401.142L369.809 369.056L364.746 369.056L364.746 401.142L369.809 401.142Z" fill="#383838"/>
<path d="M364.732 398.59L364.732 419.104L369.795 419.104L369.795 398.59L364.732 398.59Z" fill="#191919"/>
<path d="M338.735 409.974L338.735 395.772L333.936 395.772L333.936 409.974L338.735 409.974Z" fill="#8C8C8C"/>
<path d="M347.299 394.369H345.524V411.99H347.299V394.369Z" fill="#8C8C8C"/>
<path d="M269.583 469.192L327.049 469.126C328.561 469.126 329.744 467.877 329.744 466.431L329.679 421.984C329.679 420.471 328.429 419.288 326.983 419.288L269.517 419.354C268.005 419.354 266.822 420.603 266.822 422.049L266.887 466.496C266.887 468.009 268.071 469.192 269.583 469.192Z" fill="#D1D1D1"/>
<path d="M300.946 469.126L370.18 468.995C372.021 468.995 373.599 467.483 373.599 465.576L373.534 422.51C373.534 420.669 372.021 419.091 370.115 419.091L300.88 419.222C299.039 419.222 297.461 420.734 297.461 422.641L297.527 465.707C297.592 467.614 299.105 469.192 300.946 469.126Z" fill="#B5B5B5"/>
<path d="M284.771 469.192L349.272 469.061C350.521 469.061 351.508 468.009 351.508 466.759L351.442 421.458C351.442 420.208 350.39 419.222 349.141 419.222L284.64 419.354C283.391 419.354 282.404 420.406 282.404 421.655L282.47 466.957C282.47 468.14 283.522 469.192 284.771 469.192Z" fill="#D1D1D1"/>
<path d="M298.184 463.012L337.437 462.946C341.777 462.946 345.327 459.395 345.327 455.056L345.261 434.213C345.261 429.873 341.711 426.323 337.371 426.323L298.119 426.389C293.779 426.389 290.229 429.939 290.229 434.279L290.294 455.122C290.294 459.527 293.845 463.077 298.184 463.012Z" fill="#8C8C8C"/>
<path d="M299.105 462.42L336.319 462.354C340.659 462.354 344.209 458.804 344.209 454.464V435.002C344.209 430.663 340.659 427.112 336.319 427.112L299.105 427.178C294.765 427.178 291.215 430.728 291.215 435.068V454.53C291.215 458.869 294.765 462.42 299.105 462.42Z" fill="#9DD3F4"/>
<path d="M284.337 419.287L283.154 419.289L283.233 469.194L284.417 469.192L284.337 419.287Z" fill="#8C8C8C"/>
<path d="M270.438 429.348H278.656C279.84 429.348 280.76 428.427 280.76 427.244V423.233C280.76 422.049 279.84 421.129 278.656 421.129H270.438C269.254 421.129 268.334 422.049 268.334 423.233V427.244C268.334 428.361 269.32 429.348 270.438 429.348Z" fill="#8C8C8C"/>
<path d="M402.867 422.541L366.808 408.786L353.052 444.846L389.112 458.601L402.867 422.541Z" fill="#CC7A5A"/>
<path d="M389.119 458.663L416.701 469.184L430.456 433.125L402.874 422.603L389.119 458.663Z" fill="#A05B4B"/>
<path d="M385.541 415.946L379.705 413.72L375.089 425.822L380.925 428.048L385.541 415.946Z" fill="#383838"/>
<path d="M419.72 451.053L400.308 443.648L396.606 453.354L416.018 460.759L419.72 451.053Z" fill="#191919"/>
<path d="M477.308 449.428L436.643 410.232L417.752 429.83L458.417 469.027L477.308 449.428Z" fill="#413816"/>
<path d="M482.613 439.079L439.876 397.853C439.613 397.59 439.218 397.59 438.955 397.853L424.359 412.976C424.096 413.239 424.096 413.633 424.359 413.896L426.068 415.54L438.758 402.39C439.021 402.127 439.415 402.127 439.678 402.39L477.682 439.013C477.945 439.276 477.945 439.67 477.682 439.933L464.992 453.083L467.096 455.122C467.359 455.385 467.754 455.385 468.017 455.122L482.613 439.999C482.876 439.67 482.876 439.276 482.613 439.079Z" fill="#383838"/>
<path d="M480.772 437.303L438.035 396.078C437.772 395.815 437.377 395.815 437.114 396.078L422.518 411.201C422.255 411.464 422.255 411.858 422.518 412.121L424.227 413.765L436.917 400.615C437.18 400.352 437.574 400.352 437.837 400.615L475.841 437.238C476.104 437.501 476.104 437.895 475.841 438.158L463.151 451.308L465.255 453.346C465.518 453.609 465.913 453.609 466.176 453.346L480.772 438.224C481.035 437.961 481.035 437.501 480.772 437.303Z" fill="#8C8C8C"/>
<path d="M467.738 440.275L427.073 401.079L408.182 420.678L448.847 459.874L467.738 440.275Z" fill="#2C6EBC"/>
<path d="M425.739 424.482C429.443 424.482 432.446 421.479 432.446 417.776C432.446 414.072 429.443 411.069 425.739 411.069C422.035 411.069 419.033 414.072 419.033 417.776C419.033 421.479 422.035 424.482 425.739 424.482Z" fill="#383838"/>
<path d="M451.645 449.467C455.349 449.467 458.351 446.465 458.351 442.761C458.351 439.057 455.349 436.054 451.645 436.054C447.941 436.054 444.938 439.057 444.938 442.761C444.938 446.465 447.941 449.467 451.645 449.467Z" fill="#383838"/>
<path d="M448.258 432.042L436.139 420.36L428.61 428.171L440.729 439.853L448.258 432.042Z" fill="#8C8C8C"/>
<path d="M445.797 431.533L436.849 422.909L432.423 427.501L441.37 436.125L445.797 431.533Z" fill="#383838"/>
</svg>
