<svg width="29" height="29" viewBox="0 0 29 29" fill="none" xmlns="http://www.w3.org/2000/svg">
<path d="M2.9 4.83333V3.86667C2.67661 3.8668 2.46016 3.9443 2.28746 4.08599C2.11475 4.22768 1.99645 4.42481 1.95267 4.64387L2.9 4.83333ZM26.1 4.83333L27.0473 4.64387C27.0035 4.42481 26.8852 4.22768 26.7125 4.08599C26.5398 3.9443 26.3234 3.8668 26.1 3.86667V4.83333ZM28.0333 14.5V15.4667C28.1763 15.4666 28.3175 15.4348 28.4467 15.3736C28.5758 15.3124 28.6899 15.2233 28.7805 15.1127C28.8711 15.0021 28.936 14.8728 28.9706 14.7341C29.0053 14.5954 29.0087 14.4507 28.9807 14.3105L28.0333 14.5ZM0.966667 14.5L0.0193333 14.3105C-0.00868715 14.4507 -0.00526441 14.5954 0.029355 14.7341C0.0639743 14.8728 0.128928 15.0021 0.219538 15.1127C0.310147 15.2233 0.424155 15.3124 0.553349 15.3736C0.682543 15.4348 0.823705 15.4666 0.966667 15.4667V14.5ZM6.76667 20.3H5.8V21.2667H6.76667V20.3ZM22.2333 20.3V21.2667H23.2V20.3H22.2333ZM0 29H29V27.0667H0V29ZM1.93333 14.5V28.0333H3.86667V14.5H1.93333ZM25.1333 14.5V28.0333H27.0667V14.5H25.1333ZM2.9 5.8H26.1V3.86667H2.9V5.8ZM25.1527 5.0228L27.086 14.6895L28.9807 14.3105L27.0473 4.64387L25.1527 5.0228ZM28.0333 13.5333H0.966667V15.4667H28.0333V13.5333ZM1.914 14.6895L3.84733 5.0228L1.95267 4.64387L0.0193333 14.3105L1.914 14.6895ZM1.93333 1.93333H27.0667V0H1.93333V1.93333ZM5.8 14.5V20.3H7.73333V14.5H5.8ZM6.76667 21.2667H22.2333V19.3333H6.76667V21.2667ZM23.2 20.3V14.5H21.2667V20.3H23.2Z" fill="#BECADA"/>
</svg>
