<svg width="35" height="35" viewBox="0 0 35 35" fill="none" xmlns="http://www.w3.org/2000/svg">
<path d="M3.5 5.83333V4.66667C3.23039 4.66683 2.96916 4.76036 2.76072 4.93137C2.55229 5.10237 2.40951 5.34029 2.35667 5.60467L3.5 5.83333ZM31.5 5.83333L32.6433 5.60467C32.5905 5.34029 32.4477 5.10237 32.2393 4.93137C32.0308 4.76036 31.7696 4.66683 31.5 4.66667V5.83333ZM33.8333 17.5V18.6667C34.0059 18.6666 34.1762 18.6282 34.3322 18.5543C34.4881 18.4804 34.6257 18.3729 34.735 18.2394C34.8444 18.106 34.9228 17.9499 34.9646 17.7825C35.0064 17.6151 35.0105 17.4405 34.9767 17.2713L33.8333 17.5ZM1.16667 17.5L0.0233333 17.2713C-0.0104845 17.4405 -0.00635359 17.6151 0.0354284 17.7825C0.0772104 17.9499 0.155603 18.106 0.264959 18.2394C0.374315 18.3729 0.511911 18.4804 0.667835 18.5543C0.823758 18.6282 0.994127 18.6666 1.16667 18.6667V17.5ZM8.16667 24.5H7V25.6667H8.16667V24.5ZM26.8333 24.5V25.6667H28V24.5H26.8333ZM0 35H35V32.6667H0V35ZM2.33333 17.5V33.8333H4.66667V17.5H2.33333ZM30.3333 17.5V33.8333H32.6667V17.5H30.3333ZM3.5 7H31.5V4.66667H3.5V7ZM30.3567 6.062L32.69 17.7287L34.9767 17.2713L32.6433 5.60467L30.3567 6.062V6.062ZM33.8333 16.3333H1.16667V18.6667H33.8333V16.3333ZM2.31 17.7287L4.64333 6.062L2.35667 5.60467L0.0233333 17.2713L2.31 17.7287V17.7287ZM2.33333 2.33333H32.6667V0H2.33333V2.33333ZM7 17.5V24.5H9.33333V17.5H7ZM8.16667 25.6667H26.8333V23.3333H8.16667V25.6667ZM28 24.5V17.5H25.6667V24.5H28Z" fill="black"/>
</svg>
