<svg width="38" height="65" viewBox="0 0 38 65" fill="none" xmlns="http://www.w3.org/2000/svg">
<path d="M34.8867 1.71225C35.1866 2.23745 35.2657 2.86026 35.1065 3.44375C34.9474 4.02725 34.5631 4.52366 34.038 4.82388C22.4721 11.4349 21.5003 23.3841 21.5003 32.5V56.6493L33.5727 44.5769C34.0004 44.1486 34.5808 43.9077 35.1862 43.9073C35.4859 43.9071 35.7828 43.9659 36.0598 44.0804C36.3368 44.1949 36.5885 44.3629 36.8006 44.5747C37.0127 44.7865 37.181 45.038 37.2959 45.3148C37.4108 45.5917 37.4701 45.8884 37.4703 46.1882C37.4705 46.4879 37.4117 46.7848 37.2972 47.0618C37.1827 47.3388 37.0147 47.5905 36.8029 47.8026L20.8342 63.7714C20.6223 63.9838 20.3705 64.1524 20.0934 64.2674C19.8162 64.3824 19.5191 64.4416 19.219 64.4416C18.919 64.4416 18.6219 64.3824 18.3447 64.2674C18.0676 64.1524 17.8158 63.9838 17.6039 63.7714L1.63517 47.8026C1.20741 47.3743 0.967346 46.7935 0.967774 46.1882C0.968202 45.5828 1.20909 45.0024 1.63745 44.5747C2.06581 44.1469 2.64654 43.9068 3.2519 43.9073C3.85727 43.9077 4.43766 44.1486 4.86542 44.5769L16.9378 56.6493V32.5C16.9378 23.3659 17.791 8.85257 31.775 0.863629C32.3002 0.563709 32.923 0.484623 33.5065 0.643758C34.09 0.802892 34.5865 1.18722 34.8867 1.71225Z" fill="#DADADA"/>
</svg>
