<svg width="846" height="403" viewBox="0 0 846 403" fill="none" xmlns="http://www.w3.org/2000/svg">
<rect x="1" y="1" width="844" height="401" rx="1" fill="#F8F8FA" stroke="#BECADA" stroke-width="2"/>
<g clip-path="url(#clip0_355_18)">
<path d="M416.625 166.938C416.625 171.164 414.946 175.218 411.957 178.207C408.968 181.196 404.914 182.875 400.687 182.875C396.461 182.875 392.407 181.196 389.418 178.207C386.429 175.218 384.75 171.164 384.75 166.938C384.75 162.711 386.429 158.657 389.418 155.668C392.407 152.679 396.461 151 400.687 151C404.914 151 408.968 152.679 411.957 155.668C414.946 158.657 416.625 162.711 416.625 166.938ZM443.559 192.775C442.961 192.476 442.285 192.372 441.624 192.478C440.964 192.585 440.354 192.896 439.881 193.368L416.23 223.395L399.272 205.723C398.66 205.315 397.926 205.132 397.194 205.204C396.462 205.276 395.777 205.599 395.256 206.118L372.013 233.875V246.625C372.013 248.316 372.684 249.937 373.88 251.133C375.075 252.328 376.697 253 378.388 253H467.638C468.475 253 469.304 252.835 470.077 252.515C470.851 252.194 471.554 251.725 472.146 251.133C472.737 250.541 473.207 249.838 473.527 249.065C473.848 248.291 474.013 247.462 474.013 246.625V217.938L443.559 192.775Z" fill="#BECADA"/>
</g>
<defs>
<clipPath id="clip0_355_18">
<rect width="102" height="102" fill="white" transform="translate(372 151)"/>
</clipPath>
</defs>
</svg>
