<svg width="722" height="810" viewBox="0 0 722 810" fill="none" xmlns="http://www.w3.org/2000/svg">
<rect x="368" width="354" height="496" rx="19" fill="#FAFAFA"/>
<path d="M430.665 113.609H444.613C447.531 113.609 450.036 114.049 452.128 114.928C454.22 115.807 455.828 117.107 456.953 118.83C458.078 120.553 458.641 122.671 458.641 125.185C458.641 127.171 458.289 128.894 457.586 130.353C456.883 131.812 455.89 133.033 454.606 134.018C453.341 135.002 451.847 135.775 450.124 136.338L447.856 137.498H435.543L435.49 131.776H444.692C446.187 131.776 447.426 131.513 448.41 130.985C449.395 130.458 450.133 129.729 450.625 128.797C451.135 127.865 451.39 126.802 451.39 125.606C451.39 124.323 451.144 123.216 450.651 122.284C450.159 121.335 449.412 120.605 448.41 120.096C447.408 119.586 446.143 119.331 444.613 119.331H437.916V152H430.665V113.609ZM452.339 152L443.453 134.809L451.126 134.782L460.117 151.631V152H452.339ZM479.95 107.492V115.323H475.863V107.492H479.95ZM479.449 150.55V157.616H475.389V150.55H479.449ZM482.877 141.954C482.877 140.952 482.684 140.082 482.297 139.344C481.928 138.605 481.304 137.946 480.425 137.366C479.564 136.786 478.403 136.232 476.945 135.705C474.677 134.879 472.691 133.974 470.986 132.989C469.28 131.987 467.953 130.748 467.004 129.271C466.072 127.795 465.607 125.932 465.607 123.682C465.607 121.52 466.108 119.647 467.11 118.065C468.129 116.466 469.544 115.235 471.355 114.374C473.165 113.495 475.266 113.056 477.656 113.056C479.52 113.056 481.19 113.337 482.666 113.899C484.16 114.444 485.435 115.244 486.489 116.299C487.562 117.354 488.379 118.654 488.942 120.201C489.522 121.73 489.812 123.479 489.812 125.448H482.851C482.851 124.358 482.728 123.392 482.482 122.548C482.236 121.704 481.884 120.992 481.427 120.412C480.97 119.814 480.416 119.366 479.766 119.067C479.133 118.769 478.412 118.619 477.604 118.619C476.444 118.619 475.486 118.839 474.73 119.278C473.991 119.718 473.446 120.315 473.095 121.071C472.761 121.827 472.594 122.697 472.594 123.682C472.594 124.631 472.77 125.466 473.121 126.187C473.49 126.89 474.106 127.531 474.967 128.111C475.846 128.691 477.05 129.28 478.579 129.878C480.864 130.722 482.851 131.653 484.538 132.673C486.226 133.675 487.535 134.905 488.467 136.364C489.399 137.823 489.864 139.669 489.864 141.901C489.864 144.187 489.337 146.12 488.282 147.702C487.245 149.284 485.786 150.488 483.905 151.314C482.025 152.141 479.836 152.554 477.34 152.554C475.74 152.554 474.158 152.343 472.594 151.921C471.029 151.499 469.606 150.813 468.322 149.864C467.057 148.897 466.046 147.623 465.29 146.041C464.534 144.441 464.156 142.481 464.156 140.161H471.144C471.144 141.497 471.32 142.604 471.671 143.483C472.023 144.362 472.497 145.065 473.095 145.593C473.693 146.103 474.361 146.463 475.099 146.674C475.837 146.885 476.584 146.99 477.34 146.99C478.57 146.99 479.59 146.779 480.399 146.357C481.225 145.936 481.84 145.347 482.244 144.591C482.666 143.817 482.877 142.938 482.877 141.954ZM503.159 129.72H507.087C508.476 129.72 509.619 129.482 510.515 129.008C511.429 128.516 512.106 127.848 512.545 127.004C513.002 126.143 513.231 125.149 513.231 124.024C513.231 122.917 513.029 121.959 512.624 121.15C512.22 120.324 511.605 119.691 510.779 119.252C509.97 118.795 508.933 118.566 507.667 118.566C506.648 118.566 505.707 118.769 504.846 119.173C504.002 119.577 503.326 120.157 502.816 120.913C502.324 121.651 502.078 122.539 502.078 123.576H495.09C495.09 121.502 495.635 119.683 496.725 118.118C497.832 116.536 499.327 115.297 501.207 114.4C503.088 113.504 505.189 113.056 507.509 113.056C510.04 113.056 512.255 113.478 514.154 114.321C516.07 115.147 517.555 116.369 518.61 117.986C519.682 119.604 520.218 121.607 520.218 123.998C520.218 125.141 519.946 126.283 519.401 127.426C518.873 128.551 518.091 129.57 517.054 130.484C516.035 131.381 514.778 132.11 513.284 132.673C511.807 133.218 510.111 133.49 508.195 133.49H503.159V129.72ZM503.159 135.099V131.381H508.195C510.357 131.381 512.229 131.636 513.811 132.146C515.411 132.638 516.729 133.341 517.766 134.255C518.803 135.151 519.568 136.197 520.06 137.393C520.57 138.588 520.825 139.871 520.825 141.242C520.825 143.035 520.491 144.635 519.823 146.041C519.155 147.43 518.214 148.607 517.001 149.574C515.806 150.541 514.4 151.279 512.783 151.789C511.165 152.281 509.416 152.527 507.536 152.527C505.901 152.527 504.31 152.308 502.763 151.868C501.234 151.411 499.854 150.734 498.623 149.838C497.393 148.924 496.417 147.781 495.697 146.41C494.976 145.021 494.616 143.413 494.616 141.585H501.603C501.603 142.64 501.858 143.58 502.368 144.406C502.895 145.232 503.616 145.883 504.53 146.357C505.461 146.814 506.507 147.043 507.667 147.043C508.951 147.043 510.049 146.814 510.963 146.357C511.895 145.883 512.607 145.215 513.099 144.354C513.591 143.475 513.837 142.429 513.837 141.216C513.837 139.774 513.565 138.605 513.02 137.709C512.475 136.812 511.693 136.153 510.673 135.731C509.671 135.31 508.476 135.099 507.087 135.099H503.159ZM552.101 129.509V135.969C552.101 138.922 551.802 141.444 551.205 143.536C550.607 145.628 549.746 147.342 548.621 148.678C547.496 149.996 546.151 150.972 544.586 151.604C543.022 152.22 541.282 152.527 539.366 152.527C537.836 152.527 536.413 152.334 535.094 151.947C533.776 151.543 532.589 150.928 531.535 150.102C530.498 149.258 529.601 148.186 528.845 146.885C528.107 145.584 527.536 144.028 527.131 142.218C526.745 140.407 526.551 138.324 526.551 135.969V129.509C526.551 126.556 526.85 124.042 527.448 121.968C528.063 119.894 528.933 118.197 530.058 116.879C531.183 115.561 532.528 114.603 534.092 114.005C535.657 113.39 537.397 113.082 539.313 113.082C540.86 113.082 542.284 113.275 543.585 113.662C544.903 114.049 546.081 114.655 547.118 115.481C548.172 116.29 549.069 117.345 549.807 118.646C550.545 119.929 551.108 121.476 551.495 123.286C551.899 125.079 552.101 127.153 552.101 129.509ZM545.14 136.918V128.533C545.14 127.057 545.052 125.773 544.877 124.684C544.718 123.576 544.481 122.636 544.165 121.862C543.848 121.089 543.453 120.465 542.978 119.99C542.503 119.498 541.959 119.138 541.343 118.909C540.728 118.681 540.051 118.566 539.313 118.566C538.399 118.566 537.582 118.751 536.861 119.12C536.14 119.472 535.534 120.034 535.042 120.808C534.549 121.581 534.171 122.609 533.908 123.893C533.662 125.158 533.539 126.705 533.539 128.533V136.918C533.539 138.395 533.618 139.687 533.776 140.794C533.952 141.901 534.198 142.851 534.514 143.642C534.848 144.433 535.244 145.083 535.701 145.593C536.175 146.085 536.72 146.454 537.335 146.7C537.951 146.929 538.627 147.043 539.366 147.043C540.297 147.043 541.115 146.858 541.818 146.489C542.539 146.12 543.145 145.54 543.637 144.749C544.129 143.94 544.499 142.895 544.745 141.611C545.008 140.311 545.14 138.746 545.14 136.918ZM558.487 148.599C558.487 147.544 558.847 146.656 559.568 145.936C560.289 145.215 561.264 144.854 562.495 144.854C563.725 144.854 564.701 145.215 565.422 145.936C566.142 146.656 566.503 147.544 566.503 148.599C566.503 149.636 566.142 150.515 565.422 151.235C564.701 151.938 563.725 152.29 562.495 152.29C561.264 152.29 560.289 151.938 559.568 151.235C558.847 150.515 558.487 149.636 558.487 148.599ZM580.377 134.334L574.813 132.989L576.949 113.609H598.069V119.384H582.724L581.722 128.349C582.267 128.015 583.058 127.681 584.095 127.347C585.149 126.995 586.336 126.819 587.654 126.819C589.482 126.819 591.117 127.118 592.559 127.716C594 128.296 595.222 129.14 596.224 130.247C597.243 131.354 598.008 132.708 598.517 134.308C599.045 135.89 599.309 137.683 599.309 139.687C599.309 141.444 599.045 143.097 598.517 144.644C598.008 146.173 597.225 147.535 596.171 148.73C595.116 149.908 593.789 150.84 592.189 151.525C590.59 152.193 588.709 152.527 586.547 152.527C584.912 152.527 583.339 152.29 581.827 151.815C580.333 151.323 578.988 150.611 577.793 149.68C576.598 148.73 575.64 147.57 574.919 146.199C574.216 144.828 573.829 143.255 573.759 141.479H580.641C580.764 142.657 581.08 143.659 581.59 144.485C582.1 145.312 582.767 145.944 583.594 146.384C584.437 146.823 585.413 147.043 586.52 147.043C587.522 147.043 588.384 146.858 589.104 146.489C589.843 146.103 590.449 145.566 590.924 144.881C591.398 144.195 591.75 143.387 591.978 142.455C592.207 141.523 592.321 140.504 592.321 139.396C592.321 138.324 592.189 137.349 591.926 136.47C591.662 135.573 591.258 134.8 590.713 134.149C590.168 133.499 589.482 132.998 588.656 132.646C587.848 132.295 586.898 132.119 585.809 132.119C584.35 132.119 583.225 132.339 582.434 132.778C581.66 133.218 580.975 133.736 580.377 134.334ZM612.233 129.72H616.162C617.551 129.72 618.693 129.482 619.59 129.008C620.504 128.516 621.181 127.848 621.62 127.004C622.077 126.143 622.306 125.149 622.306 124.024C622.306 122.917 622.104 121.959 621.699 121.15C621.295 120.324 620.68 119.691 619.854 119.252C619.045 118.795 618.008 118.566 616.742 118.566C615.723 118.566 614.782 118.769 613.921 119.173C613.077 119.577 612.4 120.157 611.891 120.913C611.399 121.651 611.152 122.539 611.152 123.576H604.165C604.165 121.502 604.71 119.683 605.8 118.118C606.907 116.536 608.401 115.297 610.282 114.4C612.163 113.504 614.264 113.056 616.584 113.056C619.115 113.056 621.33 113.478 623.229 114.321C625.145 115.147 626.63 116.369 627.685 117.986C628.757 119.604 629.293 121.607 629.293 123.998C629.293 125.141 629.021 126.283 628.476 127.426C627.948 128.551 627.166 129.57 626.129 130.484C625.109 131.381 623.853 132.11 622.358 132.673C620.882 133.218 619.186 133.49 617.27 133.49H612.233V129.72ZM612.233 135.099V131.381H617.27C619.432 131.381 621.304 131.636 622.886 132.146C624.485 132.638 625.804 133.341 626.841 134.255C627.878 135.151 628.643 136.197 629.135 137.393C629.645 138.588 629.9 139.871 629.9 141.242C629.9 143.035 629.566 144.635 628.898 146.041C628.23 147.43 627.289 148.607 626.076 149.574C624.881 150.541 623.475 151.279 621.858 151.789C620.24 152.281 618.491 152.527 616.61 152.527C614.976 152.527 613.385 152.308 611.838 151.868C610.309 151.411 608.929 150.734 607.698 149.838C606.468 148.924 605.492 147.781 604.772 146.41C604.051 145.021 603.691 143.413 603.691 141.585H610.678C610.678 142.64 610.933 143.58 611.442 144.406C611.97 145.232 612.691 145.883 613.605 146.357C614.536 146.814 615.582 147.043 616.742 147.043C618.025 147.043 619.124 146.814 620.038 146.357C620.97 145.883 621.682 145.215 622.174 144.354C622.666 143.475 622.912 142.429 622.912 141.216C622.912 139.774 622.64 138.605 622.095 137.709C621.55 136.812 620.768 136.153 619.748 135.731C618.746 135.31 617.551 135.099 616.162 135.099H612.233ZM661.756 146.516V152H635.758V147.307L648.23 133.833C649.531 132.356 650.559 131.073 651.315 129.983C652.071 128.894 652.607 127.909 652.923 127.03C653.257 126.134 653.424 125.281 653.424 124.473C653.424 123.295 653.213 122.267 652.791 121.388C652.369 120.491 651.754 119.797 650.946 119.305C650.155 118.812 649.179 118.566 648.019 118.566C646.736 118.566 645.637 118.865 644.723 119.463C643.826 120.043 643.141 120.852 642.666 121.889C642.209 122.926 641.981 124.112 641.981 125.448H634.993C634.993 123.181 635.521 121.115 636.575 119.252C637.63 117.371 639.142 115.868 641.111 114.743C643.079 113.618 645.417 113.056 648.124 113.056C650.761 113.056 652.993 113.495 654.822 114.374C656.65 115.235 658.038 116.466 658.988 118.065C659.937 119.665 660.411 121.572 660.411 123.787C660.411 125.018 660.209 126.23 659.805 127.426C659.401 128.621 658.829 129.808 658.091 130.985C657.37 132.146 656.509 133.323 655.507 134.519C654.505 135.714 653.389 136.936 652.158 138.184L644.67 146.516H661.756Z" fill="url(#paint0_linear_239_1257)"/>
<rect x="427" y="71" width="89" height="24" rx="1" fill="#EFEFEF"/>
<rect x="427" y="202" width="188" height="7" rx="3.5" fill="#EFEFEF"/>
<rect x="427" y="216" width="237" height="7" rx="3.5" fill="#EFEFEF"/>
<rect x="427" y="230" width="230" height="7" rx="3.5" fill="#EFEFEF"/>
<rect x="427" y="286" width="230" height="7" rx="3.5" fill="#EFEFEF"/>
<rect x="427" y="244" width="219" height="7" rx="3.5" fill="#EFEFEF"/>
<rect x="427" y="300" width="219" height="7" rx="3.5" fill="#EFEFEF"/>
<path d="M446.239 81.4971V83.1035H439.417V81.4971H446.239ZM443.696 78.7559V86.002H441.967V78.7559H443.696ZM452.359 77.0195V87H450.547V79.1318L448.148 79.9248V78.4619L452.153 77.0195H452.359ZM462.744 85.5781V87H456.003V85.7832L459.237 82.29C459.574 81.9072 459.841 81.5745 460.036 81.292C460.232 81.0094 460.371 80.7542 460.453 80.5264C460.54 80.2939 460.583 80.0729 460.583 79.8633C460.583 79.5579 460.529 79.2913 460.419 79.0635C460.31 78.8311 460.15 78.651 459.941 78.5234C459.736 78.3958 459.483 78.332 459.182 78.332C458.849 78.332 458.564 78.4095 458.328 78.5645C458.095 78.7148 457.917 78.9245 457.794 79.1934C457.676 79.4622 457.617 79.7699 457.617 80.1162H455.805C455.805 79.5283 455.942 78.9928 456.215 78.5098C456.489 78.0221 456.881 77.6325 457.391 77.3408C457.901 77.0492 458.508 76.9033 459.209 76.9033C459.893 76.9033 460.472 77.0173 460.946 77.2451C461.42 77.4684 461.78 77.7874 462.026 78.2021C462.272 78.6169 462.395 79.1113 462.395 79.6855C462.395 80.0046 462.342 80.319 462.238 80.6289C462.133 80.9388 461.985 81.2464 461.793 81.5518C461.606 81.8525 461.383 82.1579 461.123 82.4678C460.864 82.7777 460.574 83.0944 460.255 83.418L458.314 85.5781H462.744ZM464.467 86.1182C464.467 85.8447 464.561 85.6146 464.748 85.4277C464.934 85.2409 465.187 85.1475 465.506 85.1475C465.825 85.1475 466.078 85.2409 466.265 85.4277C466.452 85.6146 466.545 85.8447 466.545 86.1182C466.545 86.387 466.452 86.6149 466.265 86.8018C466.078 86.984 465.825 87.0752 465.506 87.0752C465.187 87.0752 464.934 86.984 464.748 86.8018C464.561 86.6149 464.467 86.387 464.467 86.1182ZM475.16 81.1689V82.8438C475.16 83.6094 475.082 84.2633 474.927 84.8057C474.773 85.348 474.549 85.7923 474.258 86.1387C473.966 86.4805 473.617 86.7334 473.212 86.8975C472.806 87.057 472.355 87.1367 471.858 87.1367C471.462 87.1367 471.093 87.0866 470.751 86.9863C470.409 86.8815 470.101 86.722 469.828 86.5078C469.559 86.2891 469.327 86.0111 469.131 85.6738C468.939 85.3366 468.791 84.9333 468.686 84.4639C468.586 83.9945 468.536 83.4544 468.536 82.8438V81.1689C468.536 80.4033 468.613 79.7516 468.768 79.2139C468.928 78.6761 469.153 78.2363 469.445 77.8945C469.737 77.5527 470.085 77.3044 470.491 77.1494C470.897 76.9899 471.348 76.9102 471.844 76.9102C472.246 76.9102 472.615 76.9603 472.952 77.0605C473.294 77.1608 473.599 77.318 473.868 77.5322C474.141 77.7419 474.374 78.0153 474.565 78.3525C474.757 78.6852 474.902 79.0863 475.003 79.5557C475.107 80.0205 475.16 80.5583 475.16 81.1689ZM473.355 83.0898V80.916C473.355 80.5332 473.332 80.2005 473.287 79.918C473.246 79.6309 473.184 79.387 473.102 79.1865C473.02 78.986 472.918 78.8242 472.795 78.7012C472.672 78.5736 472.53 78.4801 472.371 78.4209C472.211 78.3617 472.036 78.332 471.844 78.332C471.607 78.332 471.396 78.3799 471.209 78.4756C471.022 78.5667 470.865 78.7126 470.737 78.9131C470.609 79.1136 470.511 79.3802 470.443 79.7129C470.379 80.041 470.347 80.4421 470.347 80.916V83.0898C470.347 83.4727 470.368 83.8076 470.409 84.0947C470.454 84.3818 470.518 84.6279 470.6 84.833C470.687 85.0381 470.789 85.2067 470.908 85.3389C471.031 85.4665 471.172 85.5622 471.332 85.626C471.491 85.6852 471.667 85.7148 471.858 85.7148C472.1 85.7148 472.312 85.667 472.494 85.5713C472.681 85.4756 472.838 85.3252 472.966 85.1201C473.093 84.9105 473.189 84.6393 473.253 84.3066C473.321 83.9694 473.355 83.5638 473.355 83.0898ZM483.453 81.1689V82.8438C483.453 83.6094 483.376 84.2633 483.221 84.8057C483.066 85.348 482.842 85.7923 482.551 86.1387C482.259 86.4805 481.91 86.7334 481.505 86.8975C481.099 87.057 480.648 87.1367 480.151 87.1367C479.755 87.1367 479.386 87.0866 479.044 86.9863C478.702 86.8815 478.394 86.722 478.121 86.5078C477.852 86.2891 477.62 86.0111 477.424 85.6738C477.232 85.3366 477.084 84.9333 476.979 84.4639C476.879 83.9945 476.829 83.4544 476.829 82.8438V81.1689C476.829 80.4033 476.906 79.7516 477.061 79.2139C477.221 78.6761 477.447 78.2363 477.738 77.8945C478.03 77.5527 478.378 77.3044 478.784 77.1494C479.19 76.9899 479.641 76.9102 480.138 76.9102C480.539 76.9102 480.908 76.9603 481.245 77.0605C481.587 77.1608 481.892 77.318 482.161 77.5322C482.434 77.7419 482.667 78.0153 482.858 78.3525C483.05 78.6852 483.196 79.0863 483.296 79.5557C483.401 80.0205 483.453 80.5583 483.453 81.1689ZM481.648 83.0898V80.916C481.648 80.5332 481.626 80.2005 481.58 79.918C481.539 79.6309 481.477 79.387 481.395 79.1865C481.313 78.986 481.211 78.8242 481.088 78.7012C480.965 78.5736 480.823 78.4801 480.664 78.4209C480.504 78.3617 480.329 78.332 480.138 78.332C479.901 78.332 479.689 78.3799 479.502 78.4756C479.315 78.5667 479.158 78.7126 479.03 78.9131C478.903 79.1136 478.805 79.3802 478.736 79.7129C478.672 80.041 478.641 80.4421 478.641 80.916V83.0898C478.641 83.4727 478.661 83.8076 478.702 84.0947C478.748 84.3818 478.811 84.6279 478.893 84.833C478.98 85.0381 479.083 85.2067 479.201 85.3389C479.324 85.4665 479.465 85.5622 479.625 85.626C479.784 85.6852 479.96 85.7148 480.151 85.7148C480.393 85.7148 480.605 85.667 480.787 85.5713C480.974 85.4756 481.131 85.3252 481.259 85.1201C481.386 84.9105 481.482 84.6393 481.546 84.3066C481.614 83.9694 481.648 83.5638 481.648 83.0898ZM491.746 81.1689V82.8438C491.746 83.6094 491.669 84.2633 491.514 84.8057C491.359 85.348 491.136 85.7923 490.844 86.1387C490.552 86.4805 490.204 86.7334 489.798 86.8975C489.392 87.057 488.941 87.1367 488.444 87.1367C488.048 87.1367 487.679 87.0866 487.337 86.9863C486.995 86.8815 486.688 86.722 486.414 86.5078C486.145 86.2891 485.913 86.0111 485.717 85.6738C485.525 85.3366 485.377 84.9333 485.273 84.4639C485.172 83.9945 485.122 83.4544 485.122 82.8438V81.1689C485.122 80.4033 485.2 79.7516 485.355 79.2139C485.514 78.6761 485.74 78.2363 486.031 77.8945C486.323 77.5527 486.672 77.3044 487.077 77.1494C487.483 76.9899 487.934 76.9102 488.431 76.9102C488.832 76.9102 489.201 76.9603 489.538 77.0605C489.88 77.1608 490.185 77.318 490.454 77.5322C490.728 77.7419 490.96 78.0153 491.151 78.3525C491.343 78.6852 491.489 79.0863 491.589 79.5557C491.694 80.0205 491.746 80.5583 491.746 81.1689ZM489.941 83.0898V80.916C489.941 80.5332 489.919 80.2005 489.873 79.918C489.832 79.6309 489.771 79.387 489.689 79.1865C489.607 78.986 489.504 78.8242 489.381 78.7012C489.258 78.5736 489.117 78.4801 488.957 78.4209C488.798 78.3617 488.622 78.332 488.431 78.332C488.194 78.332 487.982 78.3799 487.795 78.4756C487.608 78.5667 487.451 78.7126 487.323 78.9131C487.196 79.1136 487.098 79.3802 487.029 79.7129C486.966 80.041 486.934 80.4421 486.934 80.916V83.0898C486.934 83.4727 486.954 83.8076 486.995 84.0947C487.041 84.3818 487.105 84.6279 487.187 84.833C487.273 85.0381 487.376 85.2067 487.494 85.3389C487.617 85.4665 487.759 85.5622 487.918 85.626C488.078 85.6852 488.253 85.7148 488.444 85.7148C488.686 85.7148 488.898 85.667 489.08 85.5713C489.267 85.4756 489.424 85.3252 489.552 85.1201C489.679 84.9105 489.775 84.6393 489.839 84.3066C489.907 83.9694 489.941 83.5638 489.941 83.0898ZM493.402 79.4873V78.9609C493.402 78.5827 493.484 78.2386 493.648 77.9287C493.812 77.6188 494.051 77.3704 494.366 77.1836C494.685 76.9967 495.072 76.9033 495.528 76.9033C495.992 76.9033 496.382 76.9967 496.697 77.1836C497.016 77.3704 497.255 77.6188 497.414 77.9287C497.578 78.2386 497.66 78.5827 497.66 78.9609V79.4873C497.66 79.8564 497.578 80.196 497.414 80.5059C497.255 80.8158 497.018 81.0641 496.703 81.251C496.389 81.4378 496.002 81.5312 495.541 81.5312C495.081 81.5312 494.691 81.4378 494.372 81.251C494.053 81.0641 493.812 80.8158 493.648 80.5059C493.484 80.196 493.402 79.8564 493.402 79.4873ZM494.625 78.9609V79.4873C494.625 79.6605 494.657 79.8245 494.721 79.9795C494.789 80.1299 494.892 80.2529 495.029 80.3486C495.165 80.4443 495.336 80.4922 495.541 80.4922C495.746 80.4922 495.913 80.4443 496.04 80.3486C496.172 80.2529 496.27 80.1299 496.334 79.9795C496.403 79.8245 496.437 79.6605 496.437 79.4873V78.9609C496.437 78.7832 496.403 78.6169 496.334 78.4619C496.27 78.307 496.17 78.1816 496.033 78.0859C495.901 77.9902 495.733 77.9424 495.528 77.9424C495.327 77.9424 495.158 77.9902 495.022 78.0859C494.89 78.1816 494.789 78.307 494.721 78.4619C494.657 78.6169 494.625 78.7832 494.625 78.9609ZM498.18 85.0859V84.5596C498.18 84.1859 498.262 83.8441 498.426 83.5342C498.595 83.2243 498.838 82.9759 499.157 82.7891C499.477 82.6022 499.862 82.5088 500.313 82.5088C500.782 82.5088 501.174 82.6022 501.489 82.7891C501.803 82.9759 502.04 83.2243 502.199 83.5342C502.364 83.8441 502.446 84.1859 502.446 84.5596V85.0859C502.446 85.4596 502.364 85.8014 502.199 86.1113C502.04 86.4212 501.803 86.6696 501.489 86.8564C501.179 87.0433 500.794 87.1367 500.333 87.1367C499.873 87.1367 499.481 87.0433 499.157 86.8564C498.838 86.6696 498.595 86.4212 498.426 86.1113C498.262 85.8014 498.18 85.4596 498.18 85.0859ZM499.41 84.5596V85.0859C499.41 85.2637 499.447 85.43 499.52 85.585C499.593 85.7354 499.698 85.8584 499.834 85.9541C499.976 86.0498 500.14 86.0977 500.326 86.0977C500.554 86.0977 500.734 86.0498 500.866 85.9541C500.999 85.8584 501.092 85.7354 501.147 85.585C501.201 85.43 501.229 85.2637 501.229 85.0859V84.5596C501.229 84.3818 501.195 84.2178 501.126 84.0674C501.058 83.9124 500.955 83.7871 500.819 83.6914C500.686 83.5957 500.518 83.5479 500.313 83.5479C500.112 83.5479 499.944 83.5957 499.807 83.6914C499.675 83.7871 499.574 83.9124 499.506 84.0674C499.442 84.2178 499.41 84.3818 499.41 84.5596ZM500.764 78.4688L495.904 86.248L495.008 85.749L499.868 77.9697L500.764 78.4688Z" fill="#AAAAAA"/>
<rect x="427" y="258" width="89" height="7" rx="3.5" fill="#EFEFEF"/>
<rect x="427" y="314" width="89" height="7" rx="3.5" fill="#EFEFEF"/>
<rect x="-8" y="46" width="354" height="496" rx="19" fill="#FAFAFA"/>
<path d="M54.665 133.609H68.6133C71.5312 133.609 74.0361 134.049 76.1279 134.928C78.2197 135.807 79.8281 137.107 80.9531 138.83C82.0781 140.553 82.6406 142.671 82.6406 145.185C82.6406 147.171 82.2891 148.894 81.5859 150.353C80.8828 151.812 79.8896 153.033 78.6064 154.018C77.3408 155.002 75.8467 155.775 74.124 156.338L71.8564 157.498H59.543L59.4902 151.776H68.6924C70.1865 151.776 71.4258 151.513 72.4102 150.985C73.3945 150.458 74.1328 149.729 74.625 148.797C75.1348 147.865 75.3896 146.802 75.3896 145.606C75.3896 144.323 75.1436 143.216 74.6514 142.284C74.1592 141.335 73.4121 140.605 72.4102 140.096C71.4082 139.586 70.1426 139.331 68.6133 139.331H61.916V172H54.665V133.609ZM76.3389 172L67.4531 154.809L75.126 154.782L84.1172 171.631V172H76.3389ZM103.95 127.492V135.323H99.8635V127.492H103.95ZM103.449 170.55V177.616H99.3889V170.55H103.449ZM106.877 161.954C106.877 160.952 106.684 160.082 106.297 159.344C105.928 158.605 105.304 157.946 104.425 157.366C103.564 156.786 102.403 156.232 100.945 155.705C98.6769 154.879 96.6906 153.974 94.9855 152.989C93.2805 151.987 91.9533 150.748 91.0041 149.271C90.0724 147.795 89.6066 145.932 89.6066 143.682C89.6066 141.52 90.1076 139.647 91.1096 138.065C92.1291 136.466 93.5441 135.235 95.3547 134.374C97.1652 133.495 99.2658 133.056 101.656 133.056C103.52 133.056 105.19 133.337 106.666 133.899C108.16 134.444 109.435 135.244 110.489 136.299C111.562 137.354 112.379 138.654 112.942 140.201C113.522 141.73 113.812 143.479 113.812 145.448H106.851C106.851 144.358 106.728 143.392 106.482 142.548C106.236 141.704 105.884 140.992 105.427 140.412C104.97 139.814 104.416 139.366 103.766 139.067C103.133 138.769 102.412 138.619 101.604 138.619C100.444 138.619 99.4855 138.839 98.7297 139.278C97.9914 139.718 97.4465 140.315 97.0949 141.071C96.7609 141.827 96.5939 142.697 96.5939 143.682C96.5939 144.631 96.7697 145.466 97.1213 146.187C97.4904 146.89 98.1056 147.531 98.967 148.111C99.8459 148.691 101.05 149.28 102.579 149.878C104.864 150.722 106.851 151.653 108.538 152.673C110.226 153.675 111.535 154.905 112.467 156.364C113.399 157.823 113.864 159.669 113.864 161.901C113.864 164.187 113.337 166.12 112.282 167.702C111.245 169.284 109.786 170.488 107.905 171.314C106.025 172.141 103.836 172.554 101.34 172.554C99.7404 172.554 98.1584 172.343 96.5939 171.921C95.0295 171.499 93.6056 170.813 92.3224 169.864C91.0568 168.897 90.0461 167.623 89.2902 166.041C88.5344 164.441 88.1564 162.481 88.1564 160.161H95.1437C95.1437 161.497 95.3195 162.604 95.6711 163.483C96.0226 164.362 96.4972 165.065 97.0949 165.593C97.6926 166.103 98.3605 166.463 99.0988 166.674C99.8371 166.885 100.584 166.99 101.34 166.99C102.57 166.99 103.59 166.779 104.399 166.357C105.225 165.936 105.84 165.347 106.244 164.591C106.666 163.817 106.877 162.938 106.877 161.954ZM137.468 133.504V172H130.481V141.651L121.226 144.71V139.067L136.677 133.504H137.468ZM158.303 149.72H162.232C163.621 149.72 164.763 149.482 165.66 149.008C166.574 148.516 167.251 147.848 167.69 147.004C168.147 146.143 168.376 145.149 168.376 144.024C168.376 142.917 168.173 141.959 167.769 141.15C167.365 140.324 166.75 139.691 165.923 139.252C165.115 138.795 164.078 138.566 162.812 138.566C161.793 138.566 160.852 138.769 159.991 139.173C159.147 139.577 158.47 140.157 157.96 140.913C157.468 141.651 157.222 142.539 157.222 143.576H150.235C150.235 141.502 150.78 139.683 151.87 138.118C152.977 136.536 154.471 135.297 156.352 134.4C158.233 133.504 160.334 133.056 162.654 133.056C165.185 133.056 167.4 133.478 169.298 134.321C171.214 135.147 172.7 136.369 173.754 137.986C174.827 139.604 175.363 141.607 175.363 143.998C175.363 145.141 175.09 146.283 174.545 147.426C174.018 148.551 173.236 149.57 172.199 150.484C171.179 151.381 169.922 152.11 168.428 152.673C166.952 153.218 165.255 153.49 163.339 153.49H158.303V149.72ZM158.303 155.099V151.381H163.339C165.502 151.381 167.374 151.636 168.956 152.146C170.555 152.638 171.874 153.341 172.911 154.255C173.948 155.151 174.712 156.197 175.205 157.393C175.714 158.588 175.969 159.871 175.969 161.242C175.969 163.035 175.635 164.635 174.967 166.041C174.299 167.43 173.359 168.607 172.146 169.574C170.951 170.541 169.544 171.279 167.927 171.789C166.31 172.281 164.561 172.527 162.68 172.527C161.045 172.527 159.455 172.308 157.908 171.868C156.378 171.411 154.999 170.734 153.768 169.838C152.538 168.924 151.562 167.781 150.841 166.41C150.121 165.021 149.76 163.413 149.76 161.585H156.748C156.748 162.64 157.002 163.58 157.512 164.406C158.04 165.232 158.76 165.883 159.674 166.357C160.606 166.814 161.652 167.043 162.812 167.043C164.095 167.043 165.194 166.814 166.108 166.357C167.04 165.883 167.752 165.215 168.244 164.354C168.736 163.475 168.982 162.429 168.982 161.216C168.982 159.774 168.71 158.605 168.165 157.709C167.62 156.812 166.837 156.153 165.818 155.731C164.816 155.31 163.621 155.099 162.232 155.099H158.303ZM182.487 168.599C182.487 167.544 182.847 166.656 183.568 165.936C184.289 165.215 185.264 164.854 186.495 164.854C187.725 164.854 188.701 165.215 189.422 165.936C190.142 166.656 190.503 167.544 190.503 168.599C190.503 169.636 190.142 170.515 189.422 171.235C188.701 171.938 187.725 172.29 186.495 172.29C185.264 172.29 184.289 171.938 183.568 171.235C182.847 170.515 182.487 169.636 182.487 168.599ZM202.716 166.595H203.217C205.484 166.595 207.4 166.305 208.965 165.725C210.547 165.145 211.821 164.327 212.788 163.272C213.772 162.2 214.484 160.926 214.924 159.449C215.381 157.955 215.609 156.303 215.609 154.492V147.531C215.609 146.055 215.46 144.763 215.161 143.655C214.862 142.53 214.44 141.59 213.895 140.834C213.368 140.078 212.744 139.516 212.023 139.146C211.303 138.76 210.529 138.566 209.703 138.566C208.789 138.566 207.98 138.777 207.277 139.199C206.574 139.621 205.976 140.201 205.484 140.939C205.01 141.66 204.641 142.495 204.377 143.444C204.131 144.394 204.008 145.396 204.008 146.45C204.008 147.47 204.122 148.445 204.35 149.377C204.597 150.309 204.957 151.135 205.432 151.855C205.924 152.576 206.539 153.147 207.277 153.569C208.016 153.974 208.877 154.176 209.861 154.176C210.793 154.176 211.637 154 212.392 153.648C213.166 153.279 213.834 152.796 214.396 152.198C214.959 151.583 215.39 150.906 215.688 150.168C216.005 149.412 216.181 148.647 216.216 147.874L218.668 148.929C218.668 150.212 218.395 151.478 217.85 152.726C217.323 153.974 216.576 155.107 215.609 156.127C214.66 157.129 213.553 157.938 212.287 158.553C211.021 159.15 209.659 159.449 208.2 159.449C206.39 159.449 204.79 159.115 203.401 158.447C202.013 157.779 200.844 156.856 199.894 155.679C198.963 154.483 198.26 153.112 197.785 151.565C197.31 150.001 197.073 148.331 197.073 146.556C197.073 144.71 197.363 142.979 197.943 141.361C198.523 139.727 199.358 138.294 200.448 137.063C201.556 135.815 202.892 134.84 204.456 134.137C206.02 133.416 207.778 133.056 209.729 133.056C211.751 133.056 213.553 133.451 215.135 134.242C216.717 135.033 218.061 136.132 219.169 137.538C220.276 138.927 221.12 140.57 221.7 142.469C222.298 144.367 222.597 146.441 222.597 148.691V151.144C222.597 153.517 222.359 155.767 221.885 157.894C221.41 160.021 220.681 161.963 219.696 163.721C218.712 165.479 217.455 166.999 215.926 168.282C214.414 169.565 212.603 170.559 210.494 171.262C208.402 171.947 206.012 172.29 203.322 172.29H202.716V166.595ZM233.86 166.595H234.361C236.629 166.595 238.545 166.305 240.109 165.725C241.691 165.145 242.966 164.327 243.933 163.272C244.917 162.2 245.629 160.926 246.068 159.449C246.525 157.955 246.754 156.303 246.754 154.492V147.531C246.754 146.055 246.605 144.763 246.306 143.655C246.007 142.53 245.585 141.59 245.04 140.834C244.513 140.078 243.889 139.516 243.168 139.146C242.447 138.76 241.674 138.566 240.848 138.566C239.934 138.566 239.125 138.777 238.422 139.199C237.719 139.621 237.121 140.201 236.629 140.939C236.154 141.66 235.785 142.495 235.522 143.444C235.275 144.394 235.152 145.396 235.152 146.45C235.152 147.47 235.267 148.445 235.495 149.377C235.741 150.309 236.102 151.135 236.576 151.855C237.068 152.576 237.684 153.147 238.422 153.569C239.16 153.974 240.022 154.176 241.006 154.176C241.938 154.176 242.781 154 243.537 153.648C244.311 153.279 244.979 152.796 245.541 152.198C246.104 151.583 246.534 150.906 246.833 150.168C247.15 149.412 247.325 148.647 247.36 147.874L249.813 148.929C249.813 150.212 249.54 151.478 248.995 152.726C248.468 153.974 247.721 155.107 246.754 156.127C245.805 157.129 244.697 157.938 243.432 158.553C242.166 159.15 240.804 159.449 239.345 159.449C237.534 159.449 235.935 159.115 234.546 158.447C233.157 157.779 231.988 156.856 231.039 155.679C230.108 154.483 229.404 153.112 228.93 151.565C228.455 150.001 228.218 148.331 228.218 146.556C228.218 144.71 228.508 142.979 229.088 141.361C229.668 139.727 230.503 138.294 231.593 137.063C232.7 135.815 234.036 134.84 235.601 134.137C237.165 133.416 238.923 133.056 240.874 133.056C242.896 133.056 244.697 133.451 246.279 134.242C247.861 135.033 249.206 136.132 250.314 137.538C251.421 138.927 252.265 140.57 252.845 142.469C253.442 144.367 253.741 146.441 253.741 148.691V151.144C253.741 153.517 253.504 155.767 253.029 157.894C252.555 160.021 251.825 161.963 250.841 163.721C249.857 165.479 248.6 166.999 247.07 168.282C245.559 169.565 243.748 170.559 241.639 171.262C239.547 171.947 237.156 172.29 234.467 172.29H233.86V166.595ZM285.229 161.506C285.229 163.896 284.666 165.918 283.541 167.57C282.434 169.205 280.913 170.444 278.98 171.288C277.064 172.114 274.884 172.527 272.441 172.527C270.015 172.527 267.826 172.114 265.875 171.288C263.942 170.444 262.404 169.205 261.261 167.57C260.136 165.918 259.574 163.896 259.574 161.506C259.574 159.906 259.89 158.456 260.523 157.155C261.173 155.854 262.07 154.738 263.212 153.807C264.355 152.857 265.708 152.137 267.273 151.645C268.837 151.135 270.542 150.88 272.388 150.88C274.849 150.88 277.046 151.328 278.98 152.225C280.931 153.104 282.46 154.343 283.568 155.942C284.675 157.524 285.229 159.379 285.229 161.506ZM278.215 161.084C278.215 159.854 277.969 158.79 277.477 157.894C277.002 156.979 276.325 156.276 275.447 155.784C274.568 155.292 273.548 155.046 272.388 155.046C271.21 155.046 270.182 155.292 269.303 155.784C268.442 156.276 267.765 156.979 267.273 157.894C266.798 158.79 266.561 159.854 266.561 161.084C266.561 162.332 266.798 163.404 267.273 164.301C267.765 165.18 268.45 165.856 269.329 166.331C270.208 166.806 271.245 167.043 272.441 167.043C273.636 167.043 274.664 166.806 275.526 166.331C276.387 165.856 277.046 165.18 277.503 164.301C277.978 163.404 278.215 162.332 278.215 161.084ZM284.385 143.734C284.385 145.668 283.875 147.391 282.856 148.902C281.836 150.396 280.421 151.565 278.611 152.409C276.818 153.253 274.761 153.675 272.441 153.675C270.12 153.675 268.046 153.253 266.218 152.409C264.408 151.565 262.984 150.396 261.947 148.902C260.927 147.391 260.417 145.668 260.417 143.734C260.417 141.449 260.936 139.516 261.973 137.934C263.01 136.334 264.425 135.121 266.218 134.295C268.029 133.469 270.085 133.056 272.388 133.056C274.726 133.056 276.8 133.469 278.611 134.295C280.421 135.121 281.836 136.334 282.856 137.934C283.875 139.516 284.385 141.449 284.385 143.734ZM277.424 144.024C277.424 142.935 277.222 141.985 276.818 141.177C276.413 140.351 275.833 139.709 275.077 139.252C274.339 138.795 273.443 138.566 272.388 138.566C271.368 138.566 270.49 138.786 269.751 139.226C269.013 139.665 268.442 140.298 268.037 141.124C267.633 141.933 267.431 142.899 267.431 144.024C267.431 145.132 267.633 146.099 268.037 146.925C268.442 147.751 269.013 148.401 269.751 148.876C270.507 149.333 271.404 149.562 272.441 149.562C273.478 149.562 274.366 149.333 275.104 148.876C275.842 148.401 276.413 147.751 276.818 146.925C277.222 146.099 277.424 145.132 277.424 144.024Z" fill="url(#paint1_linear_239_1257)"/>
<rect x="51" y="91" width="89" height="24" rx="1" fill="#EFEFEF"/>
<rect x="51" y="222" width="188" height="7" rx="3.5" fill="#EFEFEF"/>
<rect x="51" y="236" width="237" height="7" rx="3.5" fill="#EFEFEF"/>
<rect x="51" y="250" width="230" height="7" rx="3.5" fill="#EFEFEF"/>
<rect x="51" y="306" width="230" height="7" rx="3.5" fill="#EFEFEF"/>
<rect x="51" y="264" width="219" height="7" rx="3.5" fill="#EFEFEF"/>
<rect x="51" y="320" width="219" height="7" rx="3.5" fill="#EFEFEF"/>
<path d="M70.2393 101.497V103.104H63.417V101.497H70.2393ZM67.6963 98.7559V106.002H65.9668V98.7559H67.6963ZM76.3586 97.0195V107H74.5471V99.1318L72.1476 99.9248V98.4619L76.1535 97.0195H76.3586ZM81.9789 101.224H82.9974C83.3575 101.224 83.6537 101.162 83.8861 101.039C84.1231 100.911 84.2985 100.738 84.4125 100.52C84.531 100.296 84.5902 100.039 84.5902 99.7471C84.5902 99.46 84.5378 99.2116 84.433 99.002C84.3282 98.7878 84.1687 98.6237 83.9545 98.5098C83.7448 98.3913 83.4759 98.332 83.1478 98.332C82.8835 98.332 82.6397 98.3844 82.4164 98.4893C82.1976 98.5941 82.0222 98.7445 81.89 98.9404C81.7624 99.1318 81.6986 99.362 81.6986 99.6309H79.8871C79.8871 99.0931 80.0284 98.6214 80.3109 98.2158C80.598 97.8057 80.9854 97.4844 81.473 97.252C81.9606 97.0195 82.5052 96.9033 83.1068 96.9033C83.7631 96.9033 84.3373 97.0127 84.8295 97.2314C85.3262 97.4456 85.7113 97.7624 85.9847 98.1816C86.2627 98.6009 86.4017 99.1204 86.4017 99.7402C86.4017 100.036 86.3311 100.333 86.1898 100.629C86.0531 100.921 85.8503 101.185 85.5814 101.422C85.3171 101.654 84.9912 101.843 84.6039 101.989C84.2211 102.131 83.7813 102.201 83.2845 102.201H81.9789V101.224ZM81.9789 102.618V101.654H83.2845C83.8451 101.654 84.3304 101.72 84.7406 101.853C85.1553 101.98 85.4971 102.162 85.766 102.399C86.0349 102.632 86.2331 102.903 86.3607 103.213C86.4929 103.523 86.559 103.855 86.559 104.211C86.559 104.676 86.4724 105.09 86.2992 105.455C86.126 105.815 85.8822 106.12 85.5677 106.371C85.2578 106.622 84.8933 106.813 84.474 106.945C84.0547 107.073 83.6013 107.137 83.1136 107.137C82.6898 107.137 82.2774 107.08 81.8763 106.966C81.4798 106.847 81.1221 106.672 80.8031 106.439C80.4841 106.202 80.2312 105.906 80.0443 105.551C79.8575 105.191 79.764 104.774 79.764 104.3H81.5756C81.5756 104.573 81.6416 104.817 81.7738 105.031C81.9105 105.245 82.0974 105.414 82.3343 105.537C82.5759 105.656 82.847 105.715 83.1478 105.715C83.4805 105.715 83.7653 105.656 84.0023 105.537C84.2438 105.414 84.4284 105.241 84.556 105.018C84.6836 104.79 84.7474 104.519 84.7474 104.204C84.7474 103.83 84.6768 103.527 84.5355 103.295C84.3942 103.062 84.1914 102.892 83.9271 102.782C83.6673 102.673 83.3575 102.618 82.9974 102.618H81.9789ZM94.8863 101.169V102.844C94.8863 103.609 94.8088 104.263 94.6539 104.806C94.4989 105.348 94.2756 105.792 93.9839 106.139C93.6923 106.48 93.3436 106.733 92.938 106.897C92.5324 107.057 92.0813 107.137 91.5845 107.137C91.188 107.137 90.8189 107.087 90.4771 106.986C90.1353 106.882 89.8277 106.722 89.5542 106.508C89.2854 106.289 89.0529 106.011 88.857 105.674C88.6656 105.337 88.5175 104.933 88.4126 104.464C88.3124 103.994 88.2623 103.454 88.2623 102.844V101.169C88.2623 100.403 88.3397 99.7516 88.4947 99.2139C88.6542 98.6761 88.8798 98.2363 89.1714 97.8945C89.4631 97.5527 89.8117 97.3044 90.2173 97.1494C90.6229 96.9899 91.0741 96.9102 91.5708 96.9102C91.9719 96.9102 92.341 96.9603 92.6783 97.0605C93.0201 97.1608 93.3254 97.318 93.5943 97.5322C93.8677 97.7419 94.1001 98.0153 94.2915 98.3525C94.483 98.6852 94.6288 99.0863 94.729 99.5557C94.8339 100.021 94.8863 100.558 94.8863 101.169ZM93.0816 103.09V100.916C93.0816 100.533 93.0588 100.201 93.0132 99.918C92.9722 99.6309 92.9107 99.387 92.8287 99.1865C92.7466 98.986 92.6441 98.8242 92.521 98.7012C92.398 98.5736 92.2567 98.4801 92.0972 98.4209C91.9377 98.3617 91.7623 98.332 91.5708 98.332C91.3339 98.332 91.122 98.3799 90.9351 98.4756C90.7483 98.5667 90.591 98.7126 90.4634 98.9131C90.3358 99.1136 90.2378 99.3802 90.1695 99.7129C90.1057 100.041 90.0738 100.442 90.0738 100.916V103.09C90.0738 103.473 90.0943 103.808 90.1353 104.095C90.1809 104.382 90.2447 104.628 90.3267 104.833C90.4133 105.038 90.5158 105.207 90.6343 105.339C90.7574 105.466 90.8986 105.562 91.0582 105.626C91.2177 105.685 91.3931 105.715 91.5845 105.715C91.8261 105.715 92.038 105.667 92.2203 105.571C92.4071 105.476 92.5643 105.325 92.6919 105.12C92.8195 104.91 92.9152 104.639 92.979 104.307C93.0474 103.969 93.0816 103.564 93.0816 103.09ZM98.3874 105.373L98.3738 106.624C98.3738 107.112 98.253 107.606 98.0115 108.107C97.7699 108.609 97.4577 109.023 97.0749 109.352L96.1179 108.825C96.2409 108.62 96.3549 108.413 96.4597 108.203C96.5691 107.993 96.6557 107.766 96.7195 107.52C96.7878 107.278 96.822 107.007 96.822 106.706V105.373H98.3874ZM106.92 105.578V107H100.18V105.783L103.413 102.29C103.75 101.907 104.017 101.575 104.213 101.292C104.409 101.009 104.548 100.754 104.63 100.526C104.716 100.294 104.76 100.073 104.76 99.8633C104.76 99.5579 104.705 99.2913 104.596 99.0635C104.486 98.8311 104.327 98.651 104.117 98.5234C103.912 98.3958 103.659 98.332 103.358 98.332C103.026 98.332 102.741 98.4095 102.504 98.5645C102.271 98.7148 102.094 98.9245 101.971 99.1934C101.852 99.4622 101.793 99.7699 101.793 100.116H99.9814C99.9814 99.5283 100.118 98.9928 100.392 98.5098C100.665 98.0221 101.057 97.6325 101.567 97.3408C102.078 97.0492 102.684 96.9033 103.386 96.9033C104.069 96.9033 104.648 97.0173 105.122 97.2451C105.596 97.4684 105.956 97.7874 106.202 98.2021C106.448 98.6169 106.571 99.1113 106.571 99.6855C106.571 100.005 106.519 100.319 106.414 100.629C106.309 100.939 106.161 101.246 105.97 101.552C105.783 101.853 105.559 102.158 105.3 102.468C105.04 102.778 104.751 103.094 104.432 103.418L102.49 105.578H106.92ZM115.063 101.169V102.844C115.063 103.609 114.985 104.263 114.83 104.806C114.675 105.348 114.452 105.792 114.16 106.139C113.869 106.48 113.52 106.733 113.114 106.897C112.709 107.057 112.258 107.137 111.761 107.137C111.364 107.137 110.995 107.087 110.653 106.986C110.312 106.882 110.004 106.722 109.731 106.508C109.462 106.289 109.229 106.011 109.033 105.674C108.842 105.337 108.694 104.933 108.589 104.464C108.489 103.994 108.439 103.454 108.439 102.844V101.169C108.439 100.403 108.516 99.7516 108.671 99.2139C108.83 98.6761 109.056 98.2363 109.348 97.8945C109.639 97.5527 109.988 97.3044 110.394 97.1494C110.799 96.9899 111.25 96.9102 111.747 96.9102C112.148 96.9102 112.517 96.9603 112.855 97.0605C113.196 97.1608 113.502 97.318 113.771 97.5322C114.044 97.7419 114.276 98.0153 114.468 98.3525C114.659 98.6852 114.805 99.0863 114.905 99.5557C115.01 100.021 115.063 100.558 115.063 101.169ZM113.258 103.09V100.916C113.258 100.533 113.235 100.201 113.19 99.918C113.149 99.6309 113.087 99.387 113.005 99.1865C112.923 98.986 112.82 98.8242 112.697 98.7012C112.574 98.5736 112.433 98.4801 112.274 98.4209C112.114 98.3617 111.939 98.332 111.747 98.332C111.51 98.332 111.298 98.3799 111.111 98.4756C110.925 98.5667 110.767 98.7126 110.64 98.9131C110.512 99.1136 110.414 99.3802 110.346 99.7129C110.282 100.041 110.25 100.442 110.25 100.916V103.09C110.25 103.473 110.271 103.808 110.312 104.095C110.357 104.382 110.421 104.628 110.503 104.833C110.59 105.038 110.692 105.207 110.811 105.339C110.934 105.466 111.075 105.562 111.234 105.626C111.394 105.685 111.569 105.715 111.761 105.715C112.002 105.715 112.214 105.667 112.397 105.571C112.583 105.476 112.741 105.325 112.868 105.12C112.996 104.91 113.092 104.639 113.155 104.307C113.224 103.969 113.258 103.564 113.258 103.09ZM116.718 99.4873V98.9609C116.718 98.5827 116.8 98.2386 116.964 97.9287C117.128 97.6188 117.367 97.3704 117.682 97.1836C118.001 96.9967 118.388 96.9033 118.844 96.9033C119.309 96.9033 119.699 96.9967 120.013 97.1836C120.332 97.3704 120.571 97.6188 120.731 97.9287C120.895 98.2386 120.977 98.5827 120.977 98.9609V99.4873C120.977 99.8564 120.895 100.196 120.731 100.506C120.571 100.816 120.334 101.064 120.02 101.251C119.705 101.438 119.318 101.531 118.858 101.531C118.397 101.531 118.008 101.438 117.689 101.251C117.37 101.064 117.128 100.816 116.964 100.506C116.8 100.196 116.718 99.8564 116.718 99.4873ZM117.942 98.9609V99.4873C117.942 99.6605 117.974 99.8245 118.037 99.9795C118.106 100.13 118.208 100.253 118.345 100.349C118.482 100.444 118.653 100.492 118.858 100.492C119.063 100.492 119.229 100.444 119.357 100.349C119.489 100.253 119.587 100.13 119.651 99.9795C119.719 99.8245 119.753 99.6605 119.753 99.4873V98.9609C119.753 98.7832 119.719 98.6169 119.651 98.4619C119.587 98.307 119.487 98.1816 119.35 98.0859C119.218 97.9902 119.049 97.9424 118.844 97.9424C118.644 97.9424 118.475 97.9902 118.338 98.0859C118.206 98.1816 118.106 98.307 118.037 98.4619C117.974 98.6169 117.942 98.7832 117.942 98.9609ZM121.496 105.086V104.56C121.496 104.186 121.578 103.844 121.742 103.534C121.911 103.224 122.155 102.976 122.474 102.789C122.793 102.602 123.178 102.509 123.629 102.509C124.099 102.509 124.491 102.602 124.805 102.789C125.119 102.976 125.356 103.224 125.516 103.534C125.68 103.844 125.762 104.186 125.762 104.56V105.086C125.762 105.46 125.68 105.801 125.516 106.111C125.356 106.421 125.119 106.67 124.805 106.856C124.495 107.043 124.11 107.137 123.65 107.137C123.189 107.137 122.797 107.043 122.474 106.856C122.155 106.67 121.911 106.421 121.742 106.111C121.578 105.801 121.496 105.46 121.496 105.086ZM122.727 104.56V105.086C122.727 105.264 122.763 105.43 122.836 105.585C122.909 105.735 123.014 105.858 123.151 105.954C123.292 106.05 123.456 106.098 123.643 106.098C123.871 106.098 124.051 106.05 124.183 105.954C124.315 105.858 124.408 105.735 124.463 105.585C124.518 105.43 124.545 105.264 124.545 105.086V104.56C124.545 104.382 124.511 104.218 124.443 104.067C124.374 103.912 124.272 103.787 124.135 103.691C124.003 103.596 123.834 103.548 123.629 103.548C123.429 103.548 123.26 103.596 123.123 103.691C122.991 103.787 122.891 103.912 122.823 104.067C122.759 104.218 122.727 104.382 122.727 104.56ZM124.08 98.4688L119.22 106.248L118.324 105.749L123.185 97.9697L124.08 98.4688Z" fill="#AAAAAA"/>
<rect x="51" y="278" width="89" height="7" rx="3.5" fill="#EFEFEF"/>
<rect x="51" y="334" width="89" height="7" rx="3.5" fill="#EFEFEF"/>
<rect x="368" y="515" width="354" height="295" rx="19" fill="#FAFAFA"/>
<path d="M430.665 602.609H444.613C447.531 602.609 450.036 603.049 452.128 603.928C454.22 604.807 455.828 606.107 456.953 607.83C458.078 609.553 458.641 611.671 458.641 614.185C458.641 616.171 458.289 617.894 457.586 619.353C456.883 620.812 455.89 622.033 454.606 623.018C453.341 624.002 451.847 624.775 450.124 625.338L447.856 626.498H435.543L435.49 620.776H444.692C446.187 620.776 447.426 620.513 448.41 619.985C449.395 619.458 450.133 618.729 450.625 617.797C451.135 616.865 451.39 615.802 451.39 614.606C451.39 613.323 451.144 612.216 450.651 611.284C450.159 610.335 449.412 609.605 448.41 609.096C447.408 608.586 446.143 608.331 444.613 608.331H437.916V641H430.665V602.609ZM452.339 641L443.453 623.809L451.126 623.782L460.117 640.631V641H452.339ZM479.95 596.492V604.323H475.863V596.492H479.95ZM479.449 639.55V646.616H475.389V639.55H479.449ZM482.877 630.954C482.877 629.952 482.684 629.082 482.297 628.344C481.928 627.605 481.304 626.946 480.425 626.366C479.564 625.786 478.403 625.232 476.945 624.705C474.677 623.879 472.691 622.974 470.986 621.989C469.28 620.987 467.953 619.748 467.004 618.271C466.072 616.795 465.607 614.932 465.607 612.682C465.607 610.52 466.108 608.647 467.11 607.065C468.129 605.466 469.544 604.235 471.355 603.374C473.165 602.495 475.266 602.056 477.656 602.056C479.52 602.056 481.19 602.337 482.666 602.899C484.16 603.444 485.435 604.244 486.489 605.299C487.562 606.354 488.379 607.654 488.942 609.201C489.522 610.73 489.812 612.479 489.812 614.448H482.851C482.851 613.358 482.728 612.392 482.482 611.548C482.236 610.704 481.884 609.992 481.427 609.412C480.97 608.814 480.416 608.366 479.766 608.067C479.133 607.769 478.412 607.619 477.604 607.619C476.444 607.619 475.486 607.839 474.73 608.278C473.991 608.718 473.446 609.315 473.095 610.071C472.761 610.827 472.594 611.697 472.594 612.682C472.594 613.631 472.77 614.466 473.121 615.187C473.49 615.89 474.106 616.531 474.967 617.111C475.846 617.691 477.05 618.28 478.579 618.878C480.864 619.722 482.851 620.653 484.538 621.673C486.226 622.675 487.535 623.905 488.467 625.364C489.399 626.823 489.864 628.669 489.864 630.901C489.864 633.187 489.337 635.12 488.282 636.702C487.245 638.284 485.786 639.488 483.905 640.314C482.025 641.141 479.836 641.554 477.34 641.554C475.74 641.554 474.158 641.343 472.594 640.921C471.029 640.499 469.606 639.813 468.322 638.864C467.057 637.897 466.046 636.623 465.29 635.041C464.534 633.441 464.156 631.481 464.156 629.161H471.144C471.144 630.497 471.32 631.604 471.671 632.483C472.023 633.362 472.497 634.065 473.095 634.593C473.693 635.103 474.361 635.463 475.099 635.674C475.837 635.885 476.584 635.99 477.34 635.99C478.57 635.99 479.59 635.779 480.399 635.357C481.225 634.936 481.84 634.347 482.244 633.591C482.666 632.817 482.877 631.938 482.877 630.954ZM513.468 602.504V641H506.481V610.651L497.226 613.71V608.067L512.677 602.504H513.468ZM553.34 626.999V632.483H525.681L525.391 628.265L541.66 602.609H547.223L541.211 612.813L532.484 626.999H553.34ZM548.779 602.609V641H541.792V602.609H548.779ZM558.487 637.599C558.487 636.544 558.847 635.656 559.568 634.936C560.289 634.215 561.264 633.854 562.495 633.854C563.725 633.854 564.701 634.215 565.422 634.936C566.142 635.656 566.503 636.544 566.503 637.599C566.503 638.636 566.142 639.515 565.422 640.235C564.701 640.938 563.725 641.29 562.495 641.29C561.264 641.29 560.289 640.938 559.568 640.235C558.847 639.515 558.487 638.636 558.487 637.599ZM592.849 602.293H593.798V607.909H593.35C591.223 607.909 589.35 608.234 587.733 608.885C586.134 609.535 584.798 610.449 583.725 611.627C582.671 612.787 581.871 614.167 581.326 615.767C580.781 617.349 580.509 619.08 580.509 620.961V627.184C580.509 628.643 580.658 629.926 580.957 631.033C581.273 632.123 581.704 633.046 582.249 633.802C582.811 634.54 583.462 635.094 584.2 635.463C584.956 635.832 585.782 636.017 586.679 636.017C587.575 636.017 588.384 635.832 589.104 635.463C589.825 635.094 590.44 634.575 590.95 633.907C591.477 633.222 591.873 632.422 592.137 631.508C592.418 630.594 592.559 629.592 592.559 628.502C592.559 627.43 592.427 626.437 592.163 625.522C591.899 624.608 591.513 623.809 591.003 623.123C590.493 622.42 589.86 621.884 589.104 621.515C588.366 621.128 587.522 620.935 586.573 620.935C585.343 620.935 584.244 621.225 583.277 621.805C582.31 622.367 581.546 623.105 580.983 624.02C580.421 624.934 580.113 625.9 580.06 626.92L577.714 625.76C577.802 624.266 578.118 622.895 578.663 621.646C579.225 620.398 579.973 619.309 580.904 618.377C581.853 617.445 582.97 616.725 584.253 616.215C585.554 615.705 586.995 615.45 588.577 615.45C590.405 615.45 592.005 615.802 593.376 616.505C594.747 617.19 595.881 618.131 596.777 619.326C597.691 620.521 598.377 621.901 598.834 623.466C599.291 625.013 599.519 626.647 599.519 628.37C599.519 630.216 599.221 631.938 598.623 633.538C598.043 635.138 597.199 636.535 596.092 637.73C594.984 638.926 593.648 639.857 592.084 640.525C590.519 641.193 588.762 641.527 586.81 641.527C584.754 641.527 582.908 641.141 581.273 640.367C579.656 639.594 578.267 638.521 577.107 637.15C575.947 635.779 575.059 634.18 574.444 632.352C573.829 630.523 573.521 628.546 573.521 626.419V623.624C573.521 620.618 573.934 617.823 574.761 615.239C575.587 612.655 576.809 610.396 578.426 608.463C580.06 606.512 582.082 605 584.49 603.928C586.898 602.838 589.684 602.293 592.849 602.293ZM622.543 602.504V641H615.556V610.651L606.301 613.71V608.067L621.752 602.504H622.543ZM661.176 618.509V624.969C661.176 627.922 660.877 630.444 660.28 632.536C659.682 634.628 658.821 636.342 657.696 637.678C656.571 638.996 655.226 639.972 653.661 640.604C652.097 641.22 650.357 641.527 648.441 641.527C646.911 641.527 645.488 641.334 644.169 640.947C642.851 640.543 641.664 639.928 640.61 639.102C639.573 638.258 638.676 637.186 637.92 635.885C637.182 634.584 636.611 633.028 636.206 631.218C635.82 629.407 635.626 627.324 635.626 624.969V618.509C635.626 615.556 635.925 613.042 636.523 610.968C637.138 608.894 638.008 607.197 639.133 605.879C640.258 604.561 641.603 603.603 643.167 603.005C644.732 602.39 646.472 602.082 648.388 602.082C649.935 602.082 651.359 602.275 652.659 602.662C653.978 603.049 655.156 603.655 656.193 604.481C657.247 605.29 658.144 606.345 658.882 607.646C659.62 608.929 660.183 610.476 660.57 612.286C660.974 614.079 661.176 616.153 661.176 618.509ZM654.215 625.918V617.533C654.215 616.057 654.127 614.773 653.951 613.684C653.793 612.576 653.556 611.636 653.24 610.862C652.923 610.089 652.528 609.465 652.053 608.99C651.578 608.498 651.033 608.138 650.418 607.909C649.803 607.681 649.126 607.566 648.388 607.566C647.474 607.566 646.657 607.751 645.936 608.12C645.215 608.472 644.609 609.034 644.116 609.808C643.624 610.581 643.246 611.609 642.983 612.893C642.737 614.158 642.614 615.705 642.614 617.533V625.918C642.614 627.395 642.693 628.687 642.851 629.794C643.027 630.901 643.273 631.851 643.589 632.642C643.923 633.433 644.319 634.083 644.776 634.593C645.25 635.085 645.795 635.454 646.41 635.7C647.026 635.929 647.702 636.043 648.441 636.043C649.372 636.043 650.19 635.858 650.893 635.489C651.614 635.12 652.22 634.54 652.712 633.749C653.204 632.94 653.574 631.895 653.82 630.611C654.083 629.311 654.215 627.746 654.215 625.918Z" fill="url(#paint2_linear_239_1257)"/>
<rect x="427" y="560" width="89" height="24" rx="1" fill="#EFEFEF"/>
<rect x="427" y="691" width="188" height="7" rx="3.5" fill="#EFEFEF"/>
<rect x="427" y="705" width="237" height="7" rx="3.5" fill="#EFEFEF"/>
<rect x="427" y="719" width="230" height="7" rx="3.5" fill="#EFEFEF"/>
<rect x="427" y="775" width="230" height="7" rx="3.5" fill="#EFEFEF"/>
<rect x="427" y="733" width="219" height="7" rx="3.5" fill="#EFEFEF"/>
<path d="M450.239 570.497V572.104H443.417V570.497H450.239ZM447.696 567.756V575.002H445.967V567.756H447.696ZM456.359 566.02V576H454.547V568.132L452.148 568.925V567.462L456.153 566.02H456.359ZM460.174 575.118C460.174 574.845 460.268 574.615 460.454 574.428C460.641 574.241 460.894 574.147 461.213 574.147C461.532 574.147 461.785 574.241 461.972 574.428C462.159 574.615 462.252 574.845 462.252 575.118C462.252 575.387 462.159 575.615 461.972 575.802C461.785 575.984 461.532 576.075 461.213 576.075C460.894 576.075 460.641 575.984 460.454 575.802C460.268 575.615 460.174 575.387 460.174 575.118ZM470.867 570.169V571.844C470.867 572.609 470.789 573.263 470.634 573.806C470.479 574.348 470.256 574.792 469.964 575.139C469.673 575.48 469.324 575.733 468.919 575.897C468.513 576.057 468.062 576.137 467.565 576.137C467.169 576.137 466.799 576.087 466.458 575.986C466.116 575.882 465.808 575.722 465.535 575.508C465.266 575.289 465.033 575.011 464.837 574.674C464.646 574.337 464.498 573.933 464.393 573.464C464.293 572.994 464.243 572.454 464.243 571.844V570.169C464.243 569.403 464.32 568.752 464.475 568.214C464.635 567.676 464.86 567.236 465.152 566.895C465.444 566.553 465.792 566.304 466.198 566.149C466.603 565.99 467.055 565.91 467.551 565.91C467.952 565.91 468.321 565.96 468.659 566.061C469.001 566.161 469.306 566.318 469.575 566.532C469.848 566.742 470.081 567.015 470.272 567.353C470.463 567.685 470.609 568.086 470.71 568.556C470.814 569.021 470.867 569.558 470.867 570.169ZM469.062 572.09V569.916C469.062 569.533 469.039 569.201 468.994 568.918C468.953 568.631 468.891 568.387 468.809 568.187C468.727 567.986 468.625 567.824 468.502 567.701C468.378 567.574 468.237 567.48 468.078 567.421C467.918 567.362 467.743 567.332 467.551 567.332C467.314 567.332 467.102 567.38 466.916 567.476C466.729 567.567 466.571 567.713 466.444 567.913C466.316 568.114 466.218 568.38 466.15 568.713C466.086 569.041 466.054 569.442 466.054 569.916V572.09C466.054 572.473 466.075 572.808 466.116 573.095C466.161 573.382 466.225 573.628 466.307 573.833C466.394 574.038 466.496 574.207 466.615 574.339C466.738 574.466 466.879 574.562 467.039 574.626C467.198 574.685 467.374 574.715 467.565 574.715C467.807 574.715 468.018 574.667 468.201 574.571C468.388 574.476 468.545 574.325 468.672 574.12C468.8 573.91 468.896 573.639 468.96 573.307C469.028 572.969 469.062 572.564 469.062 572.09ZM479.16 570.169V571.844C479.16 572.609 479.082 573.263 478.927 573.806C478.773 574.348 478.549 574.792 478.258 575.139C477.966 575.48 477.617 575.733 477.212 575.897C476.806 576.057 476.355 576.137 475.858 576.137C475.462 576.137 475.093 576.087 474.751 575.986C474.409 575.882 474.101 575.722 473.828 575.508C473.559 575.289 473.327 575.011 473.131 574.674C472.939 574.337 472.791 573.933 472.686 573.464C472.586 572.994 472.536 572.454 472.536 571.844V570.169C472.536 569.403 472.613 568.752 472.768 568.214C472.928 567.676 473.153 567.236 473.445 566.895C473.737 566.553 474.085 566.304 474.491 566.149C474.897 565.99 475.348 565.91 475.844 565.91C476.246 565.91 476.615 565.96 476.952 566.061C477.294 566.161 477.599 566.318 477.868 566.532C478.141 566.742 478.374 567.015 478.565 567.353C478.757 567.685 478.902 568.086 479.003 568.556C479.107 569.021 479.16 569.558 479.16 570.169ZM477.355 572.09V569.916C477.355 569.533 477.332 569.201 477.287 568.918C477.246 568.631 477.184 568.387 477.102 568.187C477.02 567.986 476.918 567.824 476.795 567.701C476.672 567.574 476.53 567.48 476.371 567.421C476.211 567.362 476.036 567.332 475.844 567.332C475.607 567.332 475.396 567.38 475.209 567.476C475.022 567.567 474.865 567.713 474.737 567.913C474.609 568.114 474.511 568.38 474.443 568.713C474.379 569.041 474.347 569.442 474.347 569.916V572.09C474.347 572.473 474.368 572.808 474.409 573.095C474.454 573.382 474.518 573.628 474.6 573.833C474.687 574.038 474.789 574.207 474.908 574.339C475.031 574.466 475.172 574.562 475.332 574.626C475.491 574.685 475.667 574.715 475.858 574.715C476.1 574.715 476.312 574.667 476.494 574.571C476.681 574.476 476.838 574.325 476.966 574.12C477.093 573.91 477.189 573.639 477.253 573.307C477.321 572.969 477.355 572.564 477.355 572.09ZM487.453 570.169V571.844C487.453 572.609 487.376 573.263 487.221 573.806C487.066 574.348 486.842 574.792 486.551 575.139C486.259 575.48 485.91 575.733 485.505 575.897C485.099 576.057 484.648 576.137 484.151 576.137C483.755 576.137 483.386 576.087 483.044 575.986C482.702 575.882 482.394 575.722 482.121 575.508C481.852 575.289 481.62 575.011 481.424 574.674C481.232 574.337 481.084 573.933 480.979 573.464C480.879 572.994 480.829 572.454 480.829 571.844V570.169C480.829 569.403 480.906 568.752 481.061 568.214C481.221 567.676 481.447 567.236 481.738 566.895C482.03 566.553 482.378 566.304 482.784 566.149C483.19 565.99 483.641 565.91 484.138 565.91C484.539 565.91 484.908 565.96 485.245 566.061C485.587 566.161 485.892 566.318 486.161 566.532C486.434 566.742 486.667 567.015 486.858 567.353C487.05 567.685 487.196 568.086 487.296 568.556C487.401 569.021 487.453 569.558 487.453 570.169ZM485.648 572.09V569.916C485.648 569.533 485.626 569.201 485.58 568.918C485.539 568.631 485.477 568.387 485.395 568.187C485.313 567.986 485.211 567.824 485.088 567.701C484.965 567.574 484.823 567.48 484.664 567.421C484.504 567.362 484.329 567.332 484.138 567.332C483.901 567.332 483.689 567.38 483.502 567.476C483.315 567.567 483.158 567.713 483.03 567.913C482.903 568.114 482.805 568.38 482.736 568.713C482.672 569.041 482.641 569.442 482.641 569.916V572.09C482.641 572.473 482.661 572.808 482.702 573.095C482.748 573.382 482.811 573.628 482.893 573.833C482.98 574.038 483.083 574.207 483.201 574.339C483.324 574.466 483.465 574.562 483.625 574.626C483.784 574.685 483.96 574.715 484.151 574.715C484.393 574.715 484.605 574.667 484.787 574.571C484.974 574.476 485.131 574.325 485.259 574.12C485.386 573.91 485.482 573.639 485.546 573.307C485.614 572.969 485.648 572.564 485.648 572.09ZM489.108 568.487V567.961C489.108 567.583 489.191 567.239 489.355 566.929C489.519 566.619 489.758 566.37 490.072 566.184C490.391 565.997 490.779 565.903 491.234 565.903C491.699 565.903 492.089 565.997 492.403 566.184C492.722 566.37 492.962 566.619 493.121 566.929C493.285 567.239 493.367 567.583 493.367 567.961V568.487C493.367 568.856 493.285 569.196 493.121 569.506C492.962 569.816 492.725 570.064 492.41 570.251C492.096 570.438 491.708 570.531 491.248 570.531C490.788 570.531 490.398 570.438 490.079 570.251C489.76 570.064 489.519 569.816 489.355 569.506C489.191 569.196 489.108 568.856 489.108 568.487ZM490.332 567.961V568.487C490.332 568.66 490.364 568.825 490.428 568.979C490.496 569.13 490.599 569.253 490.735 569.349C490.872 569.444 491.043 569.492 491.248 569.492C491.453 569.492 491.62 569.444 491.747 569.349C491.879 569.253 491.977 569.13 492.041 568.979C492.109 568.825 492.144 568.66 492.144 568.487V567.961C492.144 567.783 492.109 567.617 492.041 567.462C491.977 567.307 491.877 567.182 491.74 567.086C491.608 566.99 491.44 566.942 491.234 566.942C491.034 566.942 490.865 566.99 490.729 567.086C490.596 567.182 490.496 567.307 490.428 567.462C490.364 567.617 490.332 567.783 490.332 567.961ZM493.887 574.086V573.56C493.887 573.186 493.969 572.844 494.133 572.534C494.302 572.224 494.545 571.976 494.864 571.789C495.183 571.602 495.568 571.509 496.02 571.509C496.489 571.509 496.881 571.602 497.195 571.789C497.51 571.976 497.747 572.224 497.906 572.534C498.07 572.844 498.152 573.186 498.152 573.56V574.086C498.152 574.46 498.07 574.801 497.906 575.111C497.747 575.421 497.51 575.67 497.195 575.856C496.886 576.043 496.5 576.137 496.04 576.137C495.58 576.137 495.188 576.043 494.864 575.856C494.545 575.67 494.302 575.421 494.133 575.111C493.969 574.801 493.887 574.46 493.887 574.086ZM495.117 573.56V574.086C495.117 574.264 495.154 574.43 495.227 574.585C495.3 574.735 495.404 574.858 495.541 574.954C495.682 575.05 495.846 575.098 496.033 575.098C496.261 575.098 496.441 575.05 496.573 574.954C496.705 574.858 496.799 574.735 496.854 574.585C496.908 574.43 496.936 574.264 496.936 574.086V573.56C496.936 573.382 496.901 573.218 496.833 573.067C496.765 572.912 496.662 572.787 496.525 572.691C496.393 572.596 496.225 572.548 496.02 572.548C495.819 572.548 495.65 572.596 495.514 572.691C495.382 572.787 495.281 572.912 495.213 573.067C495.149 573.218 495.117 573.382 495.117 573.56ZM496.471 567.469L491.61 575.248L490.715 574.749L495.575 566.97L496.471 567.469Z" fill="#AAAAAA"/>
<rect x="427" y="747" width="89" height="7" rx="3.5" fill="#EFEFEF"/>
<rect x="-8" y="558" width="354" height="252" rx="19" fill="#FAFAFA"/>
<path d="M54.665 640.609H68.6133C71.5312 640.609 74.0361 641.049 76.1279 641.928C78.2197 642.807 79.8281 644.107 80.9531 645.83C82.0781 647.553 82.6406 649.671 82.6406 652.185C82.6406 654.171 82.2891 655.894 81.5859 657.353C80.8828 658.812 79.8896 660.033 78.6064 661.018C77.3408 662.002 75.8467 662.775 74.124 663.338L71.8564 664.498H59.543L59.4902 658.776H68.6924C70.1865 658.776 71.4258 658.513 72.4102 657.985C73.3945 657.458 74.1328 656.729 74.625 655.797C75.1348 654.865 75.3896 653.802 75.3896 652.606C75.3896 651.323 75.1436 650.216 74.6514 649.284C74.1592 648.335 73.4121 647.605 72.4102 647.096C71.4082 646.586 70.1426 646.331 68.6133 646.331H61.916V679H54.665V640.609ZM76.3389 679L67.4531 661.809L75.126 661.782L84.1172 678.631V679H76.3389ZM103.95 634.492V642.323H99.8635V634.492H103.95ZM103.449 677.55V684.616H99.3889V677.55H103.449ZM106.877 668.954C106.877 667.952 106.684 667.082 106.297 666.344C105.928 665.605 105.304 664.946 104.425 664.366C103.564 663.786 102.403 663.232 100.945 662.705C98.6769 661.879 96.6906 660.974 94.9855 659.989C93.2805 658.987 91.9533 657.748 91.0041 656.271C90.0724 654.795 89.6066 652.932 89.6066 650.682C89.6066 648.52 90.1076 646.647 91.1096 645.065C92.1291 643.466 93.5441 642.235 95.3547 641.374C97.1652 640.495 99.2658 640.056 101.656 640.056C103.52 640.056 105.19 640.337 106.666 640.899C108.16 641.444 109.435 642.244 110.489 643.299C111.562 644.354 112.379 645.654 112.942 647.201C113.522 648.73 113.812 650.479 113.812 652.448H106.851C106.851 651.358 106.728 650.392 106.482 649.548C106.236 648.704 105.884 647.992 105.427 647.412C104.97 646.814 104.416 646.366 103.766 646.067C103.133 645.769 102.412 645.619 101.604 645.619C100.444 645.619 99.4855 645.839 98.7297 646.278C97.9914 646.718 97.4465 647.315 97.0949 648.071C96.7609 648.827 96.5939 649.697 96.5939 650.682C96.5939 651.631 96.7697 652.466 97.1213 653.187C97.4904 653.89 98.1056 654.531 98.967 655.111C99.8459 655.691 101.05 656.28 102.579 656.878C104.864 657.722 106.851 658.653 108.538 659.673C110.226 660.675 111.535 661.905 112.467 663.364C113.399 664.823 113.864 666.669 113.864 668.901C113.864 671.187 113.337 673.12 112.282 674.702C111.245 676.284 109.786 677.488 107.905 678.314C106.025 679.141 103.836 679.554 101.34 679.554C99.7404 679.554 98.1584 679.343 96.5939 678.921C95.0295 678.499 93.6056 677.813 92.3224 676.864C91.0568 675.897 90.0461 674.623 89.2902 673.041C88.5344 671.441 88.1564 669.481 88.1564 667.161H95.1437C95.1437 668.497 95.3195 669.604 95.6711 670.483C96.0226 671.362 96.4972 672.065 97.0949 672.593C97.6926 673.103 98.3605 673.463 99.0988 673.674C99.8371 673.885 100.584 673.99 101.34 673.99C102.57 673.99 103.59 673.779 104.399 673.357C105.225 672.936 105.84 672.347 106.244 671.591C106.666 670.817 106.877 669.938 106.877 668.954ZM145.536 673.516V679H119.538V674.307L132.01 660.833C133.311 659.356 134.339 658.073 135.095 656.983C135.851 655.894 136.387 654.909 136.703 654.03C137.037 653.134 137.204 652.281 137.204 651.473C137.204 650.295 136.994 649.267 136.572 648.388C136.15 647.491 135.535 646.797 134.726 646.305C133.935 645.812 132.959 645.566 131.799 645.566C130.516 645.566 129.417 645.865 128.503 646.463C127.607 647.043 126.921 647.852 126.447 648.889C125.99 649.926 125.761 651.112 125.761 652.448H118.774C118.774 650.181 119.301 648.115 120.356 646.252C121.411 644.371 122.922 642.868 124.891 641.743C126.86 640.618 129.198 640.056 131.905 640.056C134.541 640.056 136.774 640.495 138.602 641.374C140.43 642.235 141.819 643.466 142.768 645.065C143.717 646.665 144.192 648.572 144.192 650.787C144.192 652.018 143.99 653.23 143.585 654.426C143.181 655.621 142.61 656.808 141.871 657.985C141.151 659.146 140.289 660.323 139.287 661.519C138.286 662.714 137.169 663.936 135.939 665.184L128.451 673.516H145.536ZM151.342 675.599C151.342 674.544 151.703 673.656 152.423 672.936C153.144 672.215 154.12 671.854 155.35 671.854C156.581 671.854 157.556 672.215 158.277 672.936C158.998 673.656 159.358 674.544 159.358 675.599C159.358 676.636 158.998 677.515 158.277 678.235C157.556 678.938 156.581 679.29 155.35 679.29C154.12 679.29 153.144 678.938 152.423 678.235C151.703 677.515 151.342 676.636 151.342 675.599ZM171.571 673.595H172.072C174.34 673.595 176.256 673.305 177.82 672.725C179.402 672.145 180.676 671.327 181.643 670.272C182.628 669.2 183.34 667.926 183.779 666.449C184.236 664.955 184.465 663.303 184.465 661.492V654.531C184.465 653.055 184.315 651.763 184.016 650.655C183.718 649.53 183.296 648.59 182.751 647.834C182.223 647.078 181.599 646.516 180.879 646.146C180.158 645.76 179.384 645.566 178.558 645.566C177.644 645.566 176.836 645.777 176.133 646.199C175.429 646.621 174.832 647.201 174.34 647.939C173.865 648.66 173.496 649.495 173.232 650.444C172.986 651.394 172.863 652.396 172.863 653.45C172.863 654.47 172.977 655.445 173.206 656.377C173.452 657.309 173.812 658.135 174.287 658.855C174.779 659.576 175.394 660.147 176.133 660.569C176.871 660.974 177.732 661.176 178.717 661.176C179.648 661.176 180.492 661 181.248 660.648C182.021 660.279 182.689 659.796 183.252 659.198C183.814 658.583 184.245 657.906 184.544 657.168C184.86 656.412 185.036 655.647 185.071 654.874L187.523 655.929C187.523 657.212 187.251 658.478 186.706 659.726C186.178 660.974 185.431 662.107 184.465 663.127C183.515 664.129 182.408 664.938 181.142 665.553C179.877 666.15 178.514 666.449 177.055 666.449C175.245 666.449 173.645 666.115 172.257 665.447C170.868 664.779 169.699 663.856 168.75 662.679C167.818 661.483 167.115 660.112 166.64 658.565C166.166 657.001 165.928 655.331 165.928 653.556C165.928 651.71 166.218 649.979 166.799 648.361C167.379 646.727 168.214 645.294 169.303 644.063C170.411 642.815 171.747 641.84 173.311 641.137C174.876 640.416 176.634 640.056 178.585 640.056C180.606 640.056 182.408 640.451 183.99 641.242C185.572 642.033 186.917 643.132 188.024 644.538C189.132 645.927 189.975 647.57 190.555 649.469C191.153 651.367 191.452 653.441 191.452 655.691V658.144C191.452 660.517 191.215 662.767 190.74 664.894C190.265 667.021 189.536 668.963 188.551 670.721C187.567 672.479 186.31 673.999 184.781 675.282C183.269 676.565 181.459 677.559 179.349 678.262C177.258 678.947 174.867 679.29 172.177 679.29H171.571V673.595ZM223.467 673.516V679H197.469V674.307L209.94 660.833C211.241 659.356 212.269 658.073 213.025 656.983C213.781 655.894 214.317 654.909 214.634 654.03C214.968 653.134 215.135 652.281 215.135 651.473C215.135 650.295 214.924 649.267 214.502 648.388C214.08 647.491 213.465 646.797 212.656 646.305C211.865 645.812 210.89 645.566 209.729 645.566C208.446 645.566 207.348 645.865 206.434 646.463C205.537 647.043 204.851 647.852 204.377 648.889C203.92 649.926 203.691 651.112 203.691 652.448H196.704C196.704 650.181 197.231 648.115 198.286 646.252C199.341 644.371 200.852 642.868 202.821 641.743C204.79 640.618 207.128 640.056 209.835 640.056C212.472 640.056 214.704 640.495 216.532 641.374C218.36 642.235 219.749 643.466 220.698 645.065C221.647 646.665 222.122 648.572 222.122 650.787C222.122 652.018 221.92 653.23 221.516 654.426C221.111 655.621 220.54 656.808 219.802 657.985C219.081 659.146 218.22 660.323 217.218 661.519C216.216 662.714 215.1 663.936 213.869 665.184L206.381 673.516H223.467ZM254.084 668.506C254.084 670.896 253.522 672.918 252.397 674.57C251.289 676.205 249.769 677.444 247.835 678.288C245.919 679.114 243.739 679.527 241.296 679.527C238.87 679.527 236.682 679.114 234.731 678.288C232.797 677.444 231.259 676.205 230.116 674.57C228.991 672.918 228.429 670.896 228.429 668.506C228.429 666.906 228.745 665.456 229.378 664.155C230.028 662.854 230.925 661.738 232.067 660.807C233.21 659.857 234.564 659.137 236.128 658.645C237.692 658.135 239.398 657.88 241.243 657.88C243.704 657.88 245.901 658.328 247.835 659.225C249.786 660.104 251.316 661.343 252.423 662.942C253.53 664.524 254.084 666.379 254.084 668.506ZM247.07 668.084C247.07 666.854 246.824 665.79 246.332 664.894C245.858 663.979 245.181 663.276 244.302 662.784C243.423 662.292 242.403 662.046 241.243 662.046C240.066 662.046 239.037 662.292 238.158 662.784C237.297 663.276 236.62 663.979 236.128 664.894C235.653 665.79 235.416 666.854 235.416 668.084C235.416 669.332 235.653 670.404 236.128 671.301C236.62 672.18 237.306 672.856 238.185 673.331C239.064 673.806 240.101 674.043 241.296 674.043C242.491 674.043 243.52 673.806 244.381 673.331C245.242 672.856 245.901 672.18 246.358 671.301C246.833 670.404 247.07 669.332 247.07 668.084ZM253.24 650.734C253.24 652.668 252.731 654.391 251.711 655.902C250.691 657.396 249.276 658.565 247.466 659.409C245.673 660.253 243.616 660.675 241.296 660.675C238.976 660.675 236.901 660.253 235.073 659.409C233.263 658.565 231.839 657.396 230.802 655.902C229.782 654.391 229.273 652.668 229.273 650.734C229.273 648.449 229.791 646.516 230.828 644.934C231.865 643.334 233.28 642.121 235.073 641.295C236.884 640.469 238.941 640.056 241.243 640.056C243.581 640.056 245.655 640.469 247.466 641.295C249.276 642.121 250.691 643.334 251.711 644.934C252.731 646.516 253.24 648.449 253.24 650.734ZM246.279 651.024C246.279 649.935 246.077 648.985 245.673 648.177C245.269 647.351 244.689 646.709 243.933 646.252C243.194 645.795 242.298 645.566 241.243 645.566C240.224 645.566 239.345 645.786 238.607 646.226C237.868 646.665 237.297 647.298 236.893 648.124C236.488 648.933 236.286 649.899 236.286 651.024C236.286 652.132 236.488 653.099 236.893 653.925C237.297 654.751 237.868 655.401 238.607 655.876C239.362 656.333 240.259 656.562 241.296 656.562C242.333 656.562 243.221 656.333 243.959 655.876C244.697 655.401 245.269 654.751 245.673 653.925C246.077 653.099 246.279 652.132 246.279 651.024Z" fill="url(#paint3_linear_239_1257)"/>
<rect x="51" y="598" width="89" height="24" rx="1" fill="#EFEFEF"/>
<rect x="51" y="729" width="188" height="7" rx="3.5" fill="#EFEFEF"/>
<rect x="51" y="743" width="237" height="7" rx="3.5" fill="#EFEFEF"/>
<rect x="51" y="757" width="230" height="7" rx="3.5" fill="#EFEFEF"/>
<rect x="51" y="771" width="219" height="7" rx="3.5" fill="#EFEFEF"/>
<path d="M74.2393 608.497V610.104H67.417V608.497H74.2393ZM71.6963 605.756V613.002H69.9668V605.756H71.6963ZM77.5012 609.42L76.0588 609.071L76.6125 604.047H82.0881V605.544H78.1096L77.8498 607.868C77.9911 607.782 78.1961 607.695 78.465 607.608C78.7385 607.517 79.0461 607.472 79.3879 607.472C79.8618 607.472 80.2857 607.549 80.6594 607.704C81.0331 607.854 81.3498 608.073 81.6096 608.36C81.8739 608.647 82.0721 608.998 82.2043 609.413C82.341 609.823 82.4094 610.288 82.4094 610.808C82.4094 611.263 82.341 611.692 82.2043 612.093C82.0721 612.489 81.8693 612.842 81.5959 613.152C81.3224 613.458 80.9784 613.699 80.5637 613.877C80.1489 614.05 79.6613 614.137 79.1008 614.137C78.6769 614.137 78.2691 614.075 77.8771 613.952C77.4898 613.825 77.1411 613.64 76.8312 613.398C76.5213 613.152 76.273 612.852 76.0861 612.496C75.9038 612.141 75.8036 611.733 75.7853 611.272H77.5695C77.6014 611.578 77.6834 611.838 77.8156 612.052C77.9478 612.266 78.1209 612.43 78.3351 612.544C78.5539 612.658 78.8068 612.715 79.0939 612.715C79.3537 612.715 79.577 612.667 79.7639 612.571C79.9553 612.471 80.1125 612.332 80.2355 612.154C80.3586 611.977 80.4497 611.767 80.509 611.525C80.5682 611.284 80.5978 611.02 80.5978 610.732C80.5978 610.454 80.5637 610.201 80.4953 609.974C80.4269 609.741 80.3221 609.541 80.1808 609.372C80.0396 609.203 79.8618 609.074 79.6476 608.982C79.438 608.891 79.1919 608.846 78.9094 608.846C78.5311 608.846 78.2394 608.903 78.0344 609.017C77.8338 609.131 77.6561 609.265 77.5012 609.42ZM85.9789 608.224H86.9974C87.3575 608.224 87.6537 608.162 87.8861 608.039C88.1231 607.911 88.2985 607.738 88.4125 607.52C88.531 607.296 88.5902 607.039 88.5902 606.747C88.5902 606.46 88.5378 606.212 88.433 606.002C88.3282 605.788 88.1687 605.624 87.9545 605.51C87.7448 605.391 87.4759 605.332 87.1478 605.332C86.8835 605.332 86.6397 605.384 86.4164 605.489C86.1976 605.594 86.0222 605.744 85.89 605.94C85.7624 606.132 85.6986 606.362 85.6986 606.631H83.8871C83.8871 606.093 84.0284 605.621 84.3109 605.216C84.598 604.806 84.9854 604.484 85.473 604.252C85.9606 604.02 86.5052 603.903 87.1068 603.903C87.7631 603.903 88.3373 604.013 88.8295 604.231C89.3262 604.446 89.7113 604.762 89.9847 605.182C90.2627 605.601 90.4017 606.12 90.4017 606.74C90.4017 607.036 90.3311 607.333 90.1898 607.629C90.0531 607.921 89.8503 608.185 89.5814 608.422C89.3171 608.654 88.9912 608.843 88.6039 608.989C88.2211 609.131 87.7813 609.201 87.2845 609.201H85.9789V608.224ZM85.9789 609.618V608.654H87.2845C87.8451 608.654 88.3304 608.72 88.7406 608.853C89.1553 608.98 89.4971 609.162 89.766 609.399C90.0349 609.632 90.2331 609.903 90.3607 610.213C90.4929 610.523 90.559 610.855 90.559 611.211C90.559 611.676 90.4724 612.09 90.2992 612.455C90.126 612.815 89.8822 613.12 89.5677 613.371C89.2578 613.622 88.8933 613.813 88.474 613.945C88.0547 614.073 87.6013 614.137 87.1136 614.137C86.6898 614.137 86.2774 614.08 85.8763 613.966C85.4798 613.847 85.1221 613.672 84.8031 613.439C84.4841 613.202 84.2312 612.906 84.0443 612.551C83.8575 612.191 83.764 611.774 83.764 611.3H85.5756C85.5756 611.573 85.6416 611.817 85.7738 612.031C85.9105 612.245 86.0974 612.414 86.3343 612.537C86.5759 612.656 86.847 612.715 87.1478 612.715C87.4805 612.715 87.7653 612.656 88.0023 612.537C88.2438 612.414 88.4284 612.241 88.556 612.018C88.6836 611.79 88.7474 611.519 88.7474 611.204C88.7474 610.83 88.6768 610.527 88.5355 610.295C88.3942 610.062 88.1914 609.892 87.9271 609.782C87.6673 609.673 87.3575 609.618 86.9974 609.618H85.9789ZM96.9449 604.02V614H95.1333V606.132L92.7339 606.925V605.462L96.7398 604.02H96.9449ZM102.387 612.373L102.374 613.624C102.374 614.112 102.253 614.606 102.011 615.107C101.77 615.609 101.458 616.023 101.075 616.352L100.118 615.825C100.241 615.62 100.355 615.413 100.46 615.203C100.569 614.993 100.656 614.766 100.719 614.52C100.788 614.278 100.822 614.007 100.822 613.706V612.373H102.387ZM105.971 609.42L104.528 609.071L105.082 604.047H110.558V605.544H106.579L106.319 607.868C106.461 607.782 106.666 607.695 106.934 607.608C107.208 607.517 107.516 607.472 107.857 607.472C108.331 607.472 108.755 607.549 109.129 607.704C109.503 607.854 109.819 608.073 110.079 608.36C110.343 608.647 110.542 608.998 110.674 609.413C110.81 609.823 110.879 610.288 110.879 610.808C110.879 611.263 110.81 611.692 110.674 612.093C110.542 612.489 110.339 612.842 110.065 613.152C109.792 613.458 109.448 613.699 109.033 613.877C108.618 614.05 108.131 614.137 107.57 614.137C107.146 614.137 106.739 614.075 106.347 613.952C105.959 613.825 105.611 613.64 105.301 613.398C104.991 613.152 104.742 612.852 104.556 612.496C104.373 612.141 104.273 611.733 104.255 611.272H106.039C106.071 611.578 106.153 611.838 106.285 612.052C106.417 612.266 106.59 612.43 106.805 612.544C107.023 612.658 107.276 612.715 107.563 612.715C107.823 612.715 108.046 612.667 108.233 612.571C108.425 612.471 108.582 612.332 108.705 612.154C108.828 611.977 108.919 611.767 108.978 611.525C109.038 611.284 109.067 611.02 109.067 610.732C109.067 610.454 109.033 610.201 108.965 609.974C108.896 609.741 108.792 609.541 108.65 609.372C108.509 609.203 108.331 609.074 108.117 608.982C107.907 608.891 107.661 608.846 107.379 608.846C107.001 608.846 106.709 608.903 106.504 609.017C106.303 609.131 106.126 609.265 105.971 609.42ZM112.425 606.487V605.961C112.425 605.583 112.507 605.239 112.671 604.929C112.835 604.619 113.074 604.37 113.389 604.184C113.708 603.997 114.095 603.903 114.551 603.903C115.016 603.903 115.405 603.997 115.72 604.184C116.039 604.37 116.278 604.619 116.438 604.929C116.602 605.239 116.684 605.583 116.684 605.961V606.487C116.684 606.856 116.602 607.196 116.438 607.506C116.278 607.816 116.041 608.064 115.727 608.251C115.412 608.438 115.025 608.531 114.565 608.531C114.104 608.531 113.715 608.438 113.396 608.251C113.077 608.064 112.835 607.816 112.671 607.506C112.507 607.196 112.425 606.856 112.425 606.487ZM113.649 605.961V606.487C113.649 606.66 113.68 606.825 113.744 606.979C113.813 607.13 113.915 607.253 114.052 607.349C114.189 607.444 114.359 607.492 114.565 607.492C114.77 607.492 114.936 607.444 115.064 607.349C115.196 607.253 115.294 607.13 115.358 606.979C115.426 606.825 115.46 606.66 115.46 606.487V605.961C115.46 605.783 115.426 605.617 115.358 605.462C115.294 605.307 115.193 605.182 115.057 605.086C114.925 604.99 114.756 604.942 114.551 604.942C114.35 604.942 114.182 604.99 114.045 605.086C113.913 605.182 113.813 605.307 113.744 605.462C113.68 605.617 113.649 605.783 113.649 605.961ZM117.203 612.086V611.56C117.203 611.186 117.285 610.844 117.449 610.534C117.618 610.224 117.862 609.976 118.181 609.789C118.5 609.602 118.885 609.509 119.336 609.509C119.805 609.509 120.197 609.602 120.512 609.789C120.826 609.976 121.063 610.224 121.223 610.534C121.387 610.844 121.469 611.186 121.469 611.56V612.086C121.469 612.46 121.387 612.801 121.223 613.111C121.063 613.421 120.826 613.67 120.512 613.856C120.202 614.043 119.817 614.137 119.357 614.137C118.896 614.137 118.504 614.043 118.181 613.856C117.862 613.67 117.618 613.421 117.449 613.111C117.285 612.801 117.203 612.46 117.203 612.086ZM118.434 611.56V612.086C118.434 612.264 118.47 612.43 118.543 612.585C118.616 612.735 118.721 612.858 118.858 612.954C118.999 613.05 119.163 613.098 119.35 613.098C119.578 613.098 119.758 613.05 119.89 612.954C120.022 612.858 120.115 612.735 120.17 612.585C120.225 612.43 120.252 612.264 120.252 612.086V611.56C120.252 611.382 120.218 611.218 120.15 611.067C120.081 610.912 119.979 610.787 119.842 610.691C119.71 610.596 119.541 610.548 119.336 610.548C119.136 610.548 118.967 610.596 118.83 610.691C118.698 610.787 118.598 610.912 118.529 611.067C118.466 611.218 118.434 611.382 118.434 611.56ZM119.787 605.469L114.927 613.248L114.031 612.749L118.892 604.97L119.787 605.469Z" fill="#AAAAAA"/>
<rect x="51" y="785" width="89" height="7" rx="3.5" fill="#EFEFEF"/>
<defs>
<linearGradient id="paint0_linear_239_1257" x1="502.893" y1="105" x2="666.183" y2="192.717" gradientUnits="userSpaceOnUse">
<stop stop-color="#BFBFBF"/>
<stop offset="1" stop-color="#F7F7F7"/>
</linearGradient>
<linearGradient id="paint1_linear_239_1257" x1="126.893" y1="125" x2="290.183" y2="212.717" gradientUnits="userSpaceOnUse">
<stop stop-color="#BFBFBF"/>
<stop offset="1" stop-color="#F7F7F7"/>
</linearGradient>
<linearGradient id="paint2_linear_239_1257" x1="502.893" y1="594" x2="666.183" y2="681.717" gradientUnits="userSpaceOnUse">
<stop stop-color="#BFBFBF"/>
<stop offset="1" stop-color="#F7F7F7"/>
</linearGradient>
<linearGradient id="paint3_linear_239_1257" x1="116.966" y1="632" x2="267.119" y2="702.11" gradientUnits="userSpaceOnUse">
<stop stop-color="#BFBFBF"/>
<stop offset="1" stop-color="#F7F7F7"/>
</linearGradient>
</defs>
</svg>
