<svg width="406" height="497" viewBox="0 0 406 497" fill="none" xmlns="http://www.w3.org/2000/svg">
<path d="M82.0979 7.04517L27.9004 446.403L391.889 165.88L82.0979 7.04517Z" fill="#F7E2BB"/>
<path d="M60.6853 417.778C60.6853 417.778 354.493 419.11 352.111 419.907C349.728 420.705 235.002 105.187 235.002 105.187L40.4238 121.147L60.6853 417.778Z" fill="#E2D0AC"/>
<path d="M164.494 245.048L88.9867 265.037L89.1599 264.259C91.0231 255.904 100.096 215.298 105.278 193.529C93.6657 189.645 60.6693 176.374 86.9086 158.195C117.923 136.704 141.388 148.018 141.719 168.605C148.232 169.505 154.588 173.005 159.565 181.094C176.459 208.497 164.494 245.048 164.494 245.048Z" fill="#FD612E"/>
<path d="M88.9869 265.037L88.833 265.793V265.088L88.9869 265.037Z" fill="#FD612E"/>
<path d="M143.79 245.448L125.523 246.22L128.952 222.065L130.206 213.217L137.681 212.724L138.233 215.683L143.79 245.448Z" fill="#F6F4E7"/>
<path d="M138.232 215.683L128.951 222.065L130.205 213.217L137.68 212.724L138.232 215.683Z" fill="#E2D0AC"/>
<path d="M135.744 214.325C144.129 214.325 150.926 207.538 150.926 199.165C150.926 190.793 144.129 184.005 135.744 184.005C127.36 184.005 120.562 190.793 120.562 199.165C120.562 207.538 127.36 214.325 135.744 214.325Z" fill="#F6F4E7"/>
<path d="M156.4 195.143C146.01 202.297 135.982 199.626 128.641 195.262C124.882 199.86 119.004 205.701 112.754 206.739C112.754 206.739 108.476 190.727 119.427 187.986C118.566 187.132 117.748 186.235 116.977 185.299C125.777 174.053 146.193 182.487 146.193 182.487L156.4 195.143Z" fill="#FD612E"/>
<path d="M189.727 350.231L188.072 347.669L199.838 467.683L71.0918 466.427L74.2987 252.958L112.054 246.258L110.306 234.73L127.637 235.633L132.126 242.697L144.935 240.424L146.763 234.74L162.769 231.185L162.448 237.321L177.008 234.736L177.97 244.529C184.852 259.5 200.114 297.495 200.114 297.495L288.626 294.613L283.687 323.524L189.727 350.231Z" fill="#1F86FF"/>
<path d="M73.2151 315.406L105.714 410.941L192.398 385.562L70.874 440.959L73.2151 315.406Z" fill="#E2D0AC"/>
<path d="M121.543 290.739L121.626 291.059L134.566 340.301L159.516 337.211C159.516 337.211 138.447 330.8 121.543 290.739Z" fill="#E2D0AC"/>
<path d="M148.636 120.327L241.201 103.81V143.525L176.44 156.177L179.608 130.872L148.636 138.25V120.327Z" stroke="white" stroke-width="4" stroke-miterlimit="10"/>
<path d="M206.203 200.203L243.866 217.425L216.764 255.03L206.203 239.213L218.874 224.454L205.501 213.909L206.203 200.203Z" stroke="white" stroke-width="4" stroke-miterlimit="10"/>
<path d="M179.099 255.721L187.328 336.535L238.597 334.002L239.566 335.395L244.69 334.642L264.256 312.261L193.7 324.075L179.099 255.721Z" fill="#E2D0AC"/>
<path d="M30.2347 241.938L23.9619 235.534C24.4879 235.015 76.6906 183.336 55.5825 146.16C45.1855 127.846 48.1295 107.137 64.1001 86.2768C75.7093 71.1107 90.0251 61.2539 90.628 60.8408L95.695 68.2446L93.1615 64.5427L95.6982 68.2414C95.5603 68.3375 81.8345 77.8099 71.1137 91.8809C57.404 109.84 54.816 126.623 63.3946 141.735C69.1927 151.947 70.9405 163.715 68.5866 176.71C66.7619 186.782 62.4678 197.599 55.8198 208.865C44.6628 227.775 30.8184 241.372 30.2347 241.938Z" fill="#FD612E"/>
<path d="M286.38 73.6533C286.38 73.6533 227.373 138.981 290.549 162.037C353.726 185.094 343.785 228.966 313.319 233.129" stroke="#FD612E" stroke-width="4" stroke-miterlimit="10"/>
<path d="M35.4367 388.602C35.4367 388.602 16.8364 517.335 91.5584 477.626C166.28 437.917 191.295 414.22 242.606 450.086" stroke="#FD612E" stroke-width="4" stroke-miterlimit="10"/>
<path d="M139.823 70.4509C141.948 70.4509 143.671 68.7305 143.671 66.6082C143.671 64.4859 141.948 62.7654 139.823 62.7654C137.698 62.7654 135.975 64.4859 135.975 66.6082C135.975 68.7305 137.698 70.4509 139.823 70.4509Z" fill="#1E1E1E"/>
<path d="M321.978 138.02C324.104 138.02 325.827 136.3 325.827 134.177C325.827 132.055 324.104 130.334 321.978 130.334C319.853 130.334 318.13 132.055 318.13 134.177C318.13 136.3 319.853 138.02 321.978 138.02Z" fill="#1E1E1E"/>
<path d="M238.917 80.0581C241.397 80.0581 243.407 78.0508 243.407 75.5748C243.407 73.0988 241.397 71.0916 238.917 71.0916C236.438 71.0916 234.428 73.0988 234.428 75.5748C234.428 78.0508 236.438 80.0581 238.917 80.0581Z" fill="#1E1E1E"/>
<path d="M160.348 48.3551L215.828 32.3435L203.321 92.8673L160.348 48.3551Z" fill="#1F86FF"/>
<path d="M12.1865 289.17L50.5 248.189L45.8595 350.334L12.1865 289.17Z" fill="#1F86FF"/>
<path d="M375.534 171.644H255.594V195.341H375.534V171.644Z" fill="#E2D0AC"/>
<path d="M372.968 170.043H253.028V193.74H372.968V170.043Z" fill="#FD612E"/>
<path d="M299.093 254.934L301.078 247.507L361.869 294.524L352.409 329.935L279.592 310.535L299.093 254.934Z" fill="#F7E2BB"/>
<path d="M294.132 255.5L295.184 251.571L359.002 293.73L341.203 366.906L285.098 353.283L285.332 279.108L294.132 255.5Z" fill="#1F86FF"/>
<path d="M289.549 258.357L290.787 253.713L356.613 293.249L332.426 376.167L263.477 358.461C263.477 358.461 289.713 257.735 289.549 258.357Z" fill="#E2D0AC"/>
<path d="M283.517 261.056L284.838 256.105L291.329 259.49L355.577 292.974L343.359 338.706L266.886 318.336L283.517 261.056Z" fill="#1F86FF"/>
<path d="M319.175 426.991L245.328 384.118L278.642 259.426L355.214 292.09L319.175 426.991Z" fill="#F7E2BB"/>
<path d="M355.233 292.113L319.269 426.705L326.085 428.521L362.05 293.929L355.233 292.113Z" fill="#FD612E"/>
<path d="M280.528 339.231L311.677 322.035L276.4 332.75L305.244 312.053L271.734 329.781L290.906 305.341L259.837 325.695L269.704 306.107L244.729 334.671L231.93 336.618C236.365 344.016 239.504 351.99 242.243 360.152L262.386 352.915L314.425 337.288L280.528 339.231Z" fill="#F6F4E7"/>
<path d="M89.5866 240.148C81.0368 241.692 71.0536 250.018 67.1956 254.415C64.1234 257.915 61.4873 261.889 60.1403 266.34C56.462 278.435 65.8006 294.556 69.7035 305.773C71.525 310.625 73.2311 315.957 74.6165 319.902L80.1453 335.795C83.5094 345.463 86.7837 355.156 90.1093 364.84C91.0329 367.533 105.557 410.87 105.881 410.774L258.532 366.06L238.649 334.104L136.802 338.681C133.018 338.853 125.995 307.464 124.825 303.849C119.907 288.691 114.449 273.721 108.45 258.94C105.24 251.084 100.359 238.205 89.5866 240.148Z" fill="#1F86FF"/>
</svg>
