<svg width="3085" height="794" viewBox="0 0 3085 794" fill="none" xmlns="http://www.w3.org/2000/svg">
<path d="M1099.08 530.927C1101.73 530.927 1104.38 531.479 1107.02 532.581C1109.67 533.464 1112.21 535.118 1114.63 537.544L1158.95 584.191C1139.54 609.557 1115.18 628.746 1085.85 641.756C1056.75 654.551 1022.24 660.945 982.329 660.945C945.724 660.945 912.871 654.767 883.765 642.418C854.882 629.846 830.292 612.643 810.008 590.808C789.94 568.752 774.509 542.727 763.703 512.731C752.896 482.516 747.496 449.763 747.496 414.474C747.496 378.523 753.341 345.551 765.026 315.555C776.71 285.339 793.14 259.313 814.308 237.478C835.476 215.643 860.835 198.661 890.38 186.53C919.925 174.399 952.453 168.334 987.952 168.334C1006.03 168.334 1023.01 169.988 1038.89 173.296C1054.99 176.384 1069.98 180.796 1083.87 186.53C1097.76 192.044 1110.55 198.771 1122.24 206.711C1133.92 214.651 1144.29 223.252 1153.33 232.516L1115.62 283.133C1113.2 286.221 1110.33 289.088 1107.02 291.735C1103.71 294.161 1099.08 295.374 1093.13 295.374C1089.16 295.374 1085.41 294.492 1081.88 292.727C1078.35 290.963 1074.61 288.867 1070.64 286.441C1066.67 283.795 1062.26 281.038 1057.41 278.171C1052.78 275.083 1047.16 272.326 1040.54 269.9C1034.15 267.253 1026.54 265.047 1017.72 263.283C1009.12 261.519 998.975 260.636 987.29 260.636C968.768 260.636 951.792 264.055 936.355 270.892C921.14 277.73 907.91 287.765 896.665 300.998C885.642 314.011 877.042 330.111 870.866 349.3C864.913 368.267 861.936 389.992 861.936 414.474C861.936 439.176 865.243 461.121 871.858 480.31C878.696 499.498 887.843 515.709 899.311 528.942C910.995 541.955 924.556 551.88 939.993 558.717C955.43 565.555 971.967 568.973 989.605 568.973C999.75 568.973 1009.01 568.532 1017.39 567.65C1025.77 566.547 1033.6 564.893 1040.87 562.687C1048.15 560.261 1054.99 557.173 1061.38 553.424C1067.77 549.454 1074.28 544.491 1080.89 538.536C1083.54 536.331 1086.41 534.566 1089.49 533.243C1092.58 531.699 1095.78 530.927 1099.08 530.927ZM1374.57 516.04C1354.06 516.922 1337.19 518.686 1323.96 521.333C1310.73 523.98 1300.26 527.288 1292.54 531.258C1284.83 535.228 1279.43 539.75 1276.34 544.822C1273.47 549.895 1272.04 555.409 1272.04 561.364C1272.04 573.053 1275.24 581.324 1281.63 586.176C1288.03 590.808 1297.4 593.124 1309.74 593.124C1322.97 593.124 1334.55 590.808 1344.47 586.176C1354.39 581.545 1364.43 574.046 1374.57 563.68V516.04ZM1190.01 360.217C1210.74 341.911 1233.67 328.347 1258.81 319.525C1284.17 310.482 1311.29 305.961 1340.17 305.961C1360.9 305.961 1379.53 309.379 1396.07 316.216C1412.83 322.833 1426.94 332.207 1438.4 344.337C1450.09 356.247 1459.02 370.473 1465.19 387.015C1471.37 403.556 1474.46 421.642 1474.46 441.271V655.651H1427.49C1417.79 655.651 1410.4 654.328 1405.33 651.681C1400.48 649.035 1396.4 643.519 1393.09 635.14L1385.81 616.282C1377.21 623.561 1368.95 629.955 1361.01 635.471C1353.07 640.987 1344.8 645.726 1336.2 649.696C1327.82 653.444 1318.79 656.205 1309.08 657.967C1299.6 659.952 1289.02 660.945 1277.33 660.945C1261.67 660.945 1247.45 658.96 1234.66 654.99C1221.88 650.797 1210.96 644.734 1201.92 636.794C1193.1 628.854 1186.26 619.037 1181.41 607.35C1176.56 595.44 1174.13 581.766 1174.13 566.326C1174.13 553.976 1177.23 541.514 1183.4 528.942C1189.57 516.15 1200.26 504.571 1215.48 494.205C1230.69 483.618 1251.2 474.796 1277 467.738C1302.8 460.681 1335.32 456.711 1374.57 455.828V441.271C1374.57 421.201 1370.38 406.755 1362 397.932C1353.85 388.89 1342.16 384.368 1326.94 384.368C1314.82 384.368 1304.89 385.691 1297.17 388.338C1289.46 390.985 1282.51 393.962 1276.34 397.271C1270.38 400.579 1264.54 403.556 1258.81 406.203C1253.08 408.85 1246.24 410.173 1238.3 410.173C1231.25 410.173 1225.29 408.409 1220.44 404.88C1215.59 401.351 1211.62 397.161 1208.53 392.308L1190.01 360.217ZM1636.37 349.631C1642.98 343.455 1649.82 337.721 1656.87 332.427C1663.93 327.134 1671.43 322.723 1679.36 319.194C1687.53 315.445 1696.23 312.577 1705.49 310.592C1714.98 308.387 1725.23 307.284 1736.25 307.284C1755 307.284 1771.54 310.592 1785.87 317.209C1800.42 323.605 1812.66 332.648 1822.58 344.337C1832.5 355.806 1840 369.591 1845.07 385.691C1850.14 401.571 1852.68 418.885 1852.68 437.632V655.651H1750.15V437.632C1750.15 420.87 1746.28 407.857 1738.57 398.594C1730.85 389.11 1719.49 384.368 1704.5 384.368C1693.26 384.368 1682.67 386.794 1672.75 391.646C1663.05 396.278 1653.57 402.674 1644.3 410.835V655.651H1541.77V312.577H1605.28C1618.07 312.577 1626.44 318.312 1630.41 329.781L1636.37 349.631ZM2287.06 655.651H2184.52V383.376H2040.98V553.755C2040.98 561.695 2042.85 568.311 2046.6 573.605C2050.57 578.677 2056.19 581.214 2063.47 581.214C2067.22 581.214 2070.31 580.883 2072.73 580.221C2075.38 579.339 2077.58 578.457 2079.34 577.575C2081.33 576.472 2083.1 575.59 2084.64 574.928C2086.4 574.046 2088.39 573.605 2090.59 573.605C2093.68 573.605 2096.1 574.377 2097.87 575.921C2099.85 577.244 2101.84 579.45 2103.82 582.537L2134.91 631.17C2121.68 641.095 2106.8 648.596 2090.26 653.666C2073.72 658.521 2056.64 660.945 2038.99 660.945C2022.68 660.945 2008.23 658.629 1995.66 653.997C1983.32 649.143 1972.84 642.418 1964.24 633.816C1955.87 624.992 1949.47 614.406 1945.06 602.056C1940.65 589.706 1938.44 575.921 1938.44 560.702V383.376H1909.34C1904.05 383.376 1899.53 381.721 1895.78 378.413C1892.03 374.884 1890.15 369.811 1890.15 363.195V323.164L1944.73 312.246L1964.9 228.876C1967.55 218.29 1975.05 212.996 1987.4 212.996H2040.98V313.239H2287.06V655.651ZM2301.28 218.29C2301.28 226.451 2299.62 234.17 2296.32 241.448C2293.01 248.726 2288.49 255.122 2282.76 260.636C2277.02 265.93 2270.3 270.121 2262.58 273.208C2255.09 276.296 2247.03 277.84 2238.44 277.84C2230.06 277.84 2222.23 276.296 2214.95 273.208C2207.68 270.121 2201.17 265.93 2195.44 260.636C2189.93 255.122 2185.52 248.726 2182.21 241.448C2179.12 234.17 2177.58 226.451 2177.58 218.29C2177.58 210.129 2179.12 202.41 2182.21 195.131C2185.52 187.632 2189.93 181.236 2195.44 175.943C2201.17 170.429 2207.68 166.128 2214.95 163.041C2222.23 159.732 2230.06 158.078 2238.44 158.078C2247.03 158.078 2255.09 159.732 2262.58 163.041C2270.3 166.128 2277.02 170.429 2282.76 175.943C2288.49 181.236 2293.01 187.632 2296.32 195.131C2299.62 202.41 2301.28 210.129 2301.28 218.29ZM2455.16 349.631C2461.78 343.455 2468.61 337.721 2475.67 332.427C2482.73 327.134 2490.22 322.723 2498.16 319.194C2506.32 315.445 2515.03 312.577 2524.29 310.592C2533.77 308.387 2544.02 307.284 2555.05 307.284C2573.79 307.284 2590.33 310.592 2604.66 317.209C2619.21 323.605 2631.45 332.648 2641.37 344.337C2651.3 355.806 2658.79 369.591 2663.86 385.691C2668.94 401.571 2671.47 418.885 2671.47 437.632V655.651H2568.94V437.632C2568.94 420.87 2565.08 407.857 2557.36 398.594C2549.65 389.11 2538.29 384.368 2523.3 384.368C2512.05 384.368 2501.47 386.794 2491.54 391.646C2481.84 396.278 2472.36 402.674 2463.1 410.835V655.651H2360.57V312.577H2424.07C2436.86 312.577 2445.24 318.312 2449.21 329.781L2455.16 349.631ZM2834.2 349.631C2840.82 343.455 2847.65 337.721 2854.71 332.427C2861.76 327.134 2869.26 322.723 2877.2 319.194C2885.36 315.445 2894.07 312.577 2903.33 310.592C2912.81 308.387 2923.06 307.284 2934.09 307.284C2952.83 307.284 2969.37 310.592 2983.7 317.209C2998.25 323.605 3010.49 332.648 3020.41 344.337C3030.34 355.806 3037.84 369.591 3042.9 385.691C3047.97 401.571 3050.51 418.885 3050.51 437.632V655.651H2947.98V437.632C2947.98 420.87 2944.12 407.857 2936.4 398.594C2928.69 389.11 2917.33 384.368 2902.34 384.368C2891.09 384.368 2880.51 386.794 2870.58 391.646C2860.88 396.278 2851.4 402.674 2842.14 410.835V655.651H2739.61V312.577H2803.11C2815.9 312.577 2824.28 318.312 2828.25 329.781L2834.2 349.631Z" fill="black"/>
<path d="M0 108C0 104.686 2.68629 102 6 102H193V150H0V108Z" fill="#1F86FF"/>
<path d="M0 656H193V704H0V656Z" fill="#1F86FF"/>
<path d="M6 704C2.68629 704 0 701.314 0 698L0 150H48L48 704H6Z" fill="#1F86FF"/>
<path d="M223 102H596C598.761 102 601 104.239 601 107V699C601 701.761 598.761 704 596 704H223V102Z" fill="#1F86FF"/>
</svg>
