<svg width="35" height="35" viewBox="0 0 35 35" fill="none" xmlns="http://www.w3.org/2000/svg">
<path d="M12.0314 26.25H22.9689V28.4375H12.0314V26.25ZM14.2189 30.625H20.7814V32.8125H14.2189V30.625ZM17.5001 2.1875C14.5993 2.1875 11.8173 3.33984 9.76614 5.39102C7.71496 7.4422 6.56262 10.2242 6.56262 13.125C6.48866 14.7146 6.79316 16.299 7.45107 17.748C8.10899 19.1969 9.10151 20.4689 10.347 21.4594C11.4407 22.4766 12.0314 23.0562 12.0314 24.0625H14.2189C14.2189 22.05 13.0048 20.9234 11.8236 19.8406C10.8013 19.0578 9.98658 18.0362 9.45076 16.8655C8.91494 15.6947 8.67437 14.4103 8.75012 13.125C8.75012 10.8044 9.672 8.57876 11.3129 6.93782C12.9539 5.29687 15.1795 4.375 17.5001 4.375C19.8208 4.375 22.0464 5.29687 23.6873 6.93782C25.3283 8.57876 26.2501 10.8044 26.2501 13.125C26.3246 14.4113 26.0824 15.6962 25.5446 16.8671C25.0068 18.0379 24.19 19.059 23.1658 19.8406C21.9954 20.9344 20.7814 22.0281 20.7814 24.0625H22.9689C22.9689 23.0562 23.5486 22.4766 24.6532 21.4484C25.8979 20.4597 26.8899 19.1895 27.5479 17.7425C28.2058 16.2955 28.5107 14.7129 28.4376 13.125C28.4376 11.6887 28.1547 10.2664 27.6051 8.9394C27.0554 7.6124 26.2497 6.40666 25.2341 5.39102C24.2185 4.37538 23.0127 3.56973 21.6857 3.02007C20.3587 2.47041 18.9365 2.1875 17.5001 2.1875Z" fill="black"/>
</svg>
