<svg width="35" height="35" viewBox="0 0 35 35" fill="none" xmlns="http://www.w3.org/2000/svg">
<path d="M30.625 30.625H5.83333C5.44656 30.625 5.07563 30.4714 4.80214 30.1979C4.52865 29.9244 4.375 29.5534 4.375 29.1667V4.375H7.29167V27.7083H30.625V30.625ZM12.2106 23.3333L10.2083 21.3733L17.29 14.4375C17.5581 14.1769 17.9173 14.0311 18.2911 14.0311C18.665 14.0311 19.0242 14.1769 19.2923 14.4375L22.54 17.6181L28.6227 11.6667L30.625 13.6267L23.5433 20.5625C23.2752 20.8231 22.9161 20.9689 22.5422 20.9689C22.1683 20.9689 21.8092 20.8231 21.541 20.5625L18.2919 17.3804L12.2121 23.3333H12.2106Z" fill="black"/>
</svg>
