<svg width="42" height="42" viewBox="0 0 42 42" fill="none" xmlns="http://www.w3.org/2000/svg">
<path d="M19.1786 21C19.1786 21.4831 19.3705 21.9464 19.7121 22.2879C20.0537 22.6295 20.5169 22.8214 21 22.8214C21.4831 22.8214 21.9464 22.6295 22.2879 22.2879C22.6295 21.9464 22.8214 21.4831 22.8214 21C22.8214 20.5169 22.6295 20.0536 22.2879 19.7121C21.9464 19.3705 21.4831 19.1786 21 19.1786C20.5169 19.1786 20.0537 19.3705 19.7121 19.7121C19.3705 20.0536 19.1786 20.5169 19.1786 21ZM26.7678 21C26.7678 21.4831 26.9597 21.9464 27.3013 22.2879C27.6428 22.6295 28.1061 22.8214 28.5892 22.8214C29.0723 22.8214 29.5355 22.6295 29.8771 22.2879C30.2187 21.9464 30.4106 21.4831 30.4106 21C30.4106 20.5169 30.2187 20.0536 29.8771 19.7121C29.5355 19.3705 29.0723 19.1786 28.5892 19.1786C28.1061 19.1786 27.6428 19.3705 27.3013 19.7121C26.9597 20.0536 26.7678 20.5169 26.7678 21ZM11.5894 21C11.5894 21.4831 11.7813 21.9464 12.1229 22.2879C12.4645 22.6295 12.9277 22.8214 13.4108 22.8214C13.8939 22.8214 14.3572 22.6295 14.6987 22.2879C15.0403 21.9464 15.2322 21.4831 15.2322 21C15.2322 20.5169 15.0403 20.0536 14.6987 19.7121C14.3572 19.3705 13.8939 19.1786 13.4108 19.1786C12.9277 19.1786 12.4645 19.3705 12.1229 19.7121C11.7813 20.0536 11.5894 20.5169 11.5894 21ZM36.6793 14.4125C35.8217 12.3748 34.5922 10.5458 33.0251 8.97478C31.4689 7.41289 29.6215 6.17138 27.5874 5.32054C25.5004 4.44397 23.2843 4 21 4H20.9241C18.6246 4.01138 16.3972 4.46674 14.3025 5.36228C12.2859 6.22184 10.4558 7.46556 8.91422 9.02411C7.36223 10.5913 6.14416 12.4127 5.30176 14.4429C4.429 16.5451 3.98883 18.7801 4.00022 21.0797C4.01309 23.715 4.63654 26.3114 5.82162 28.6652V34.433C5.82162 34.896 6.00552 35.34 6.33287 35.6673C6.66022 35.9947 7.1042 36.1786 7.56713 36.1786H13.3387C15.6925 37.3637 18.2889 37.9871 20.9241 38H21.0038C23.2768 38 25.4814 37.5598 27.5571 36.6984C29.5808 35.8577 31.4214 34.6307 32.9757 33.0859C34.5429 31.5339 35.7762 29.7201 36.6375 27.6975C37.5331 25.6029 37.9884 23.3754 37.9998 21.0759C38.0112 18.765 37.5634 16.5223 36.6793 14.4125ZM30.9456 31.033C28.2856 33.6665 24.7567 35.1161 21 35.1161H20.9355C18.6474 35.1047 16.3744 34.5355 14.3671 33.4654L14.0483 33.2946H8.70551V27.9518L8.53476 27.633C7.46468 25.6257 6.89549 23.3527 6.88411 21.0645C6.86893 17.2813 8.31467 13.7295 10.9671 11.0542C13.6157 8.37902 17.1561 6.89911 20.9393 6.88393H21.0038C22.9011 6.88393 24.7415 7.25201 26.4756 7.98058C28.168 8.69018 29.6858 9.71094 30.9912 11.0163C32.2927 12.3179 33.3173 13.8395 34.0268 15.5319C34.763 17.285 35.1311 19.1444 35.1235 21.0645C35.1007 24.844 33.617 28.3844 30.9456 31.033Z" fill="#131313"/>
</svg>
