<svg width="622" height="341" viewBox="0 0 622 341" fill="none" xmlns="http://www.w3.org/2000/svg">
<path d="M431.872 248.426L220.505 246.861L254.56 115.676L463.525 116.463L431.872 248.426Z" fill="white" stroke="#2E2793" stroke-width="1.76" stroke-miterlimit="10"/>
<path d="M425.802 241.082L231.981 239.682L263.212 123.02H455.204L425.802 241.082Z" stroke="#2E2793" stroke-width="1.59" stroke-miterlimit="10"/>
<path d="M407.38 166.978C407.393 168.132 406.95 169.245 406.147 170.075C405.344 170.904 404.246 171.383 403.091 171.407L370.196 171.929C368.578 177.777 366.187 183.382 363.083 188.596L357.122 198.052C354.27 202.262 350.935 206.124 347.186 209.56" stroke="#1F86FF" stroke-width="1.96" stroke-miterlimit="10"/>
<path d="M463.931 115.676L465.537 125.322L434.074 252.541L431.872 248.426L463.931 115.676Z" fill="#1F86FF"/>
<path d="M135.969 222.742L145.466 238.358C147.349 241.423 150.368 243.619 153.865 244.466C157.361 245.313 161.051 244.742 164.128 242.878L233.488 200.594C236.549 199.276 239.367 197.454 241.826 195.203" stroke="#1F86FF" stroke-width="1.96" stroke-miterlimit="10"/>
<path d="M114.752 127.452C108.061 114.438 92.0876 109.312 79.074 116.003C66.0604 122.694 60.9348 138.668 67.6258 151.682L119.808 253.173C126.499 266.187 142.472 271.312 155.486 264.621C168.499 257.93 173.625 241.956 166.934 228.943L114.752 127.452Z" fill="#76B5FF"/>
<path d="M239.246 177.878L236.468 173.193C229.772 161.902 215.191 158.177 203.901 164.873L131.57 207.767C120.279 214.462 116.554 229.043 123.25 240.333L126.028 245.019C132.724 256.309 147.305 260.034 158.595 253.339L230.926 210.445C242.217 203.749 245.942 189.168 239.246 177.878Z" fill="#76B5FF"/>
<path d="M3.15283 254.47H620.824C620.824 257.544 619.603 260.493 617.429 262.667C615.255 264.84 612.307 266.062 609.233 266.062H14.7445C11.6702 266.062 8.72183 264.84 6.54796 262.667C4.3741 260.493 3.15283 257.544 3.15283 254.47Z" fill="white" stroke="#1F86FF" stroke-miterlimit="10"/>
<path d="M4.70943 260.266H619.268C620.271 258.497 620.806 256.503 620.824 254.47H3.15283C3.15283 254.47 3.77382 258.61 4.70943 260.266Z" fill="#1F86FF"/>
<path d="M234.664 240.576H442.188C442.191 242.084 441.897 243.578 441.322 244.972C440.747 246.367 439.903 247.634 438.838 248.701C437.773 249.769 436.508 250.616 435.115 251.193C433.722 251.771 432.229 252.069 430.72 252.069H246.081C243.055 252.069 240.153 250.867 238.014 248.727C235.874 246.587 234.672 243.685 234.672 240.659V240.601L234.664 240.576Z" fill="#1F86FF"/>
<path d="M133.998 240.253H335.329C335.329 243.295 334.121 246.212 331.97 248.362C329.82 250.513 326.903 251.721 323.862 251.721H145.408C142.382 251.721 139.48 250.519 137.34 248.379C135.2 246.239 133.998 243.337 133.998 240.311V240.253Z" fill="white" stroke="#2E2793" stroke-width="1.55" stroke-miterlimit="10"/>
<path d="M164.757 89.8904C180.085 86.4361 188.596 66.2669 183.768 44.8411C178.939 23.4153 162.6 8.84645 147.272 12.3007C131.944 15.755 123.433 35.9242 128.261 57.35C133.09 78.7758 149.43 93.3446 164.757 89.8904Z" fill="white" stroke="#1F86FF" stroke-width="1.96" stroke-miterlimit="10"/>
<path d="M145.844 131.194L145.852 131.194C152.238 131.654 157.787 126.851 158.247 120.465L161.465 75.7958C161.924 69.4104 157.121 63.8612 150.736 63.4012L150.727 63.4006C144.342 62.9407 138.793 67.7442 138.333 74.1295L135.115 118.799C134.655 125.185 139.459 130.734 145.844 131.194Z" fill="white" stroke="#1F86FF" stroke-width="2.23" stroke-miterlimit="10"/>
<path d="M139.364 102.345C161.844 102.347 183.403 111.279 199.299 127.176C215.194 143.073 224.124 164.633 224.124 187.114V340H54.5952V187.114C54.5952 164.632 63.5261 143.07 79.4233 127.173C95.3205 111.276 116.882 102.345 139.364 102.345Z" fill="#76B5FF"/>
<path d="M118.349 9.01567C118.349 9.01567 83.922 36.8192 91.0261 79.2779H208.069C208.069 79.2779 203.739 17.047 175.778 5.9273C147.726 -5.25868 130.256 1.50591 118.349 9.01567Z" fill="#76B5FF"/>
<path d="M174.569 92.7493H108.016V110.75H174.569V92.7493Z" fill="#77E0B5"/>
<path d="M213.842 131.794C207.151 118.781 191.177 113.655 178.164 120.346C165.15 127.037 160.025 143.011 166.716 156.024L218.897 257.516C225.588 270.529 241.562 275.655 254.576 268.964C267.589 262.273 272.715 246.299 266.024 233.286L213.842 131.794Z" fill="#76B5FF"/>
<path d="M335.579 193.665L332.826 188.964C326.19 177.636 311.628 173.832 300.3 180.468L227.727 222.977C216.399 229.613 212.595 244.175 219.231 255.504L221.984 260.205C228.62 271.533 243.182 275.337 254.51 268.701L327.083 226.191C338.411 219.556 342.215 204.993 335.579 193.665Z" fill="#76B5FF"/>
<path d="M36.7026 131.681H154.275C161.988 131.681 169.384 134.744 174.837 140.198C180.29 145.651 183.354 153.047 183.354 160.759V339.901H7.62402V160.759C7.62402 153.047 10.6876 145.651 16.1409 140.198C21.5942 134.744 28.9905 131.681 36.7026 131.681Z" fill="#77E0B5"/>
<path d="M30.0786 131.681H147.651C155.364 131.681 162.76 134.744 168.213 140.198C173.666 145.651 176.73 153.047 176.73 160.759V339.901H1V160.759C1 153.047 4.06363 145.651 9.51692 140.198C14.9702 134.744 22.3665 131.681 30.0786 131.681Z" fill="#1F6ECB" stroke="#1F86FF" stroke-width="0.78" stroke-miterlimit="10"/>
<path d="M358.88 206.306L322.075 157.976L298.44 175.974L335.245 224.305L358.88 206.306Z" fill="#77E0B5"/>
<path d="M343.294 206.249C345 206.249 346.383 204.866 346.383 203.16C346.383 201.455 345 200.072 343.294 200.072C341.589 200.072 340.206 201.455 340.206 203.16C340.206 204.866 341.589 206.249 343.294 206.249Z" fill="white" stroke="#1F86FF" stroke-width="1.96" stroke-miterlimit="10"/>
<path d="M519.107 212.243C519.107 212.243 492.736 124.784 507.184 76.9016C507.184 76.9016 530.641 132.095 531.113 211.282L519.107 212.243Z" fill="white" stroke="#1F86FF" stroke-width="1.05" stroke-miterlimit="10"/>
<path d="M524.92 198.068C524.92 198.068 508.277 108.249 527.875 62.2795C527.875 62.2795 545.155 119.708 536.983 198.474L524.92 198.068Z" fill="#77E0B5"/>
<path d="M537.099 201.894C537.099 201.894 532.264 110.675 557.683 67.5955C557.683 67.5955 567.354 126.779 548.997 203.814L537.099 201.894Z" fill="#77E0B5"/>
<path d="M539.343 199.981C539.343 199.981 545.967 135.092 573.24 97.717C573.24 97.717 583.731 139.298 551.779 203.094L539.343 199.981Z" fill="#1F86FF"/>
<path d="M499.203 195.468H581.719V230.839C581.719 233.935 581.109 237 579.925 239.86C578.74 242.72 577.004 245.319 574.815 247.508C572.626 249.697 570.027 251.433 567.167 252.618C564.307 253.802 561.242 254.412 558.146 254.412H522.775C519.68 254.412 516.614 253.802 513.754 252.618C510.894 251.433 508.296 249.697 506.107 247.508C503.918 245.319 502.182 242.72 500.997 239.86C499.812 237 499.203 233.935 499.203 230.839V195.468Z" fill="white" stroke="#1F86FF" stroke-width="1.05" stroke-miterlimit="10"/>
<path d="M583.126 190.418H500.047C496.48 190.418 493.589 193.307 493.589 196.872C493.589 200.436 496.48 203.326 500.047 203.326H583.126C586.693 203.326 589.585 200.436 589.585 196.872C589.585 193.307 586.693 190.418 583.126 190.418Z" fill="white" stroke="#1F86FF" stroke-width="1.05" stroke-miterlimit="10"/>
<path d="M517.161 203.326C517.161 203.326 513.791 249.353 523.901 253.832" stroke="#1F86FF" stroke-width="1.05" stroke-miterlimit="10"/>
<path d="M559.852 203.889C559.852 203.889 563.214 249.916 553.112 254.395" stroke="#1F86FF" stroke-width="1.05" stroke-miterlimit="10"/>
<path d="M558.138 203.326C569.366 200.519 560.945 190.418 560.945 190.418L583.921 190.608C583.921 190.608 590.14 192.099 589.577 197.149C589.014 202.2 585.122 203.111 585.122 203.111L558.138 203.326Z" fill="#1F86FF"/>
<path d="M582.282 225.217C582.282 225.217 581.355 236.586 579.848 240.121C578.341 243.656 570.492 256.614 556.457 253.807C556.457 253.807 574.946 227.652 563.421 209.295L499.286 204.104L498.88 203.036L543.972 203.309L582.249 203.036L581.81 209.842L582.282 225.217Z" fill="#1F86FF"/>
<path d="M519.968 211.183C519.968 211.183 517.161 226.344 521.624 245.429" stroke="#1F86FF" stroke-width="1.05" stroke-miterlimit="10"/>
<path d="M498.077 193.225C498.077 193.225 492.463 198.275 499.732 201.637H545.768" stroke="#1F86FF" stroke-width="1.05" stroke-miterlimit="10"/>
<path d="M460.039 197.596V208.964H453.829V239.517C453.829 241.411 453.456 243.287 452.73 245.037C452.005 246.787 450.942 248.377 449.601 249.716C448.261 251.054 446.67 252.116 444.919 252.839C443.168 253.563 441.292 253.934 439.398 253.932H422.143C418.324 253.93 414.663 252.412 411.964 249.712C409.264 247.012 407.746 243.351 407.744 239.533V208.964H401.542V197.596H460.039Z" fill="#76B5FF"/>
<path d="M460.163 212.972C457.899 212.967 455.688 213.658 453.829 214.95V208.964H407.744L445.608 218.022C445.715 228.62 444.548 250.951 433.138 253.932L441.658 253.758C441.658 253.758 453.829 252.011 453.829 239.517V233.257C455.265 234.248 456.913 234.888 458.641 235.125C460.369 235.361 462.129 235.189 463.778 234.62C465.427 234.052 466.92 233.104 468.135 231.852C469.35 230.601 470.254 229.081 470.774 227.416C471.294 225.751 471.415 223.987 471.128 222.267C470.841 220.546 470.153 218.917 469.12 217.512C468.088 216.106 466.739 214.962 465.183 214.174C463.627 213.385 461.908 212.973 460.163 212.972ZM460.163 229.937C459.017 229.937 457.897 229.597 456.943 228.96C455.99 228.323 455.247 227.418 454.809 226.359C454.37 225.3 454.255 224.135 454.479 223.01C454.703 221.886 455.255 220.853 456.065 220.043C456.876 219.232 457.908 218.68 459.033 218.456C460.157 218.233 461.322 218.348 462.381 218.786C463.44 219.225 464.346 219.968 464.982 220.921C465.619 221.874 465.959 222.995 465.959 224.141C465.948 225.675 465.334 227.143 464.25 228.227C463.165 229.312 461.697 229.926 460.163 229.937Z" fill="#1F86FF"/>
<path d="M445.922 197.596C445.922 197.596 451.188 206.456 441.658 208.964H460.039V197.596H445.922Z" fill="#1F86FF"/>
<path d="M417.382 183.098C417.382 183.098 433.321 170.347 422.698 161.331C412.075 152.314 417.382 136.375 417.382 136.375" stroke="#1F86FF" stroke-width="1.05" stroke-miterlimit="10"/>
<path d="M437.526 94.8606C437.526 94.8606 417.423 121.232 434.504 141.716C451.585 162.2 427.74 187.553 427.74 187.553" stroke="#1F86FF" stroke-width="1.05" stroke-miterlimit="10"/>
<path d="M151.808 1.49774C151.808 1.49774 141.044 62.5114 206.347 65.3514L208.069 79.278H91.0013C91.0013 79.278 82.8292 34.5672 118.325 9.0158C118.325 9.0158 129.014 -0.298958 149.109 0.00739433L151.808 1.49774Z" fill="#1F86FF"/>
<path d="M108.016 92.7493H149.059L174.561 110.758H108.016V92.7493Z" fill="#1F86FF"/>
<path d="M168.185 78.1931C168.185 78.1931 165.494 87.541 169.493 88.1785L160.386 90.3892C160.386 90.3892 161.893 78.6319 161.263 78.1931C160.634 77.7543 168.185 78.1931 168.185 78.1931Z" fill="#1F86FF"/>
<path d="M153.133 78.0281L154.019 92.7495H137.641L138.088 76.3059L153.133 78.0281Z" fill="#1F86FF"/>
<path d="M301.598 179.687L259.586 204.295L333.93 222.138L301.598 179.687Z" fill="#1F86FF"/>
<path d="M321.825 157.779L298.228 175.771L335.073 224.108C335.073 224.108 312.03 174.363 321.825 157.779Z" fill="#1F86FF"/>
<path d="M257.756 158.226C257.259 160.445 256.688 162.49 256.1 164.378C256.953 175.067 257.789 174.239 257.789 174.239L263.461 174.148L276.592 164.452C278.894 171.49 264.777 178.826 264.777 178.826L251.828 183.694L244.897 192.264L241.246 185.16L240.178 183.082L220.249 144.308C220.249 144.308 221.358 142.784 227.204 136.276C233.049 129.768 246.131 130.969 246.131 130.969L275.251 122.325C275.632 125.281 258.824 135.779 258.824 135.779L295.959 135.837C295.404 143.455 267.99 140.217 263.858 140.383C259.727 140.549 265.233 145.036 265.233 145.036L266.334 149.176L296.315 148.348C292.316 155.676 259.884 154.972 259.884 154.972L257.756 158.226Z" fill="#1F86FF"/>
<path d="M356.741 128.559L362.586 123.227C362.586 123.227 370.378 122.151 365.368 127.657C360.359 133.163 342.889 149.789 342.889 149.789L353.884 143.604L378.583 136.773C378.583 136.773 383.741 140.259 374.31 143.206C364.88 146.154 357.362 148.919 357.362 148.919L352.8 153.357L362.032 150.377L398.918 149.797C398.918 149.797 404.432 153.837 396.169 154.227C387.906 154.616 365.368 156.181 365.368 156.181L361.046 162.639L373.342 162.722L400.723 162.283C400.723 162.283 406.005 168.592 394.596 168.493C383.186 168.393 365.368 168.493 365.368 168.493L352.535 198.3L323.837 160.61C323.837 160.61 329.277 152.521 332.589 150.087L335.959 147.661L356.741 128.559Z" fill="#1F86FF"/>
<path d="M310.573 235.89C310.573 235.89 269.265 262.087 253.293 269.398C237.322 276.709 223.734 264.19 223.734 264.19L222.004 260.224L199.566 218.95L189.348 200.138L220.812 261.88V339.901H183.379V159.402C183.379 159.402 182.799 131.325 150.483 131.515C118.167 131.706 65.8887 131.706 65.8887 131.706C65.8887 131.706 69.242 120.114 81.2394 115.038C81.2394 115.038 85.5283 120.445 95.5054 116.612C95.5054 116.612 99.488 112.902 108.016 110.816C116.544 108.729 171.77 110.162 171.77 110.162C171.77 110.162 182.104 114.144 184.314 119.013C184.314 119.013 184.19 132.716 207.332 133.328C221.186 158.554 233.501 184.595 244.21 211.307C261.3 254.304 310.573 235.89 310.573 235.89Z" fill="#1F86FF"/>
</svg>
