<svg width="31" height="31" viewBox="0 0 31 31" fill="none" xmlns="http://www.w3.org/2000/svg">
<path d="M15.5 9.29091C12.064 9.29091 9.29094 12.064 9.29094 15.5C9.29094 18.936 12.064 21.7091 15.5 21.7091C18.9361 21.7091 21.7091 18.936 21.7091 15.5C21.7091 12.064 18.9361 9.29091 15.5 9.29091ZM15.5 19.5354C13.278 19.5354 11.4646 17.7221 11.4646 15.5C11.4646 13.2779 13.278 11.4645 15.5 11.4645C17.7221 11.4645 19.5355 13.2779 19.5355 15.5C19.5355 17.7221 17.7221 19.5354 15.5 19.5354ZM21.9634 7.58955C21.1612 7.58955 20.5133 8.2374 20.5133 9.03964C20.5133 9.84189 21.1612 10.4897 21.9634 10.4897C22.7656 10.4897 23.4135 9.84492 23.4135 9.03964C23.4137 8.84915 23.3764 8.66048 23.3036 8.48443C23.2308 8.30839 23.124 8.14844 22.9893 8.01374C22.8546 7.87904 22.6947 7.77223 22.5186 7.69944C22.3426 7.62665 22.1539 7.58931 21.9634 7.58955ZM27.6033 15.5C27.6033 13.8289 27.6185 12.1729 27.5246 10.5049C27.4308 8.56738 26.9888 6.84785 25.572 5.43105C24.1522 4.01123 22.4357 3.57226 20.4982 3.47842C18.8271 3.38457 17.1711 3.3997 15.503 3.3997C13.832 3.3997 12.176 3.38457 10.5079 3.47842C8.57043 3.57226 6.8509 4.01425 5.4341 5.43105C4.01428 6.85088 3.57531 8.56738 3.48147 10.5049C3.38762 12.176 3.40276 13.8319 3.40276 15.5C3.40276 17.1681 3.38762 18.827 3.48147 20.4951C3.57531 22.4326 4.01731 24.1521 5.4341 25.5689C6.85393 26.9888 8.57043 27.4277 10.5079 27.5216C12.179 27.6154 13.835 27.6003 15.503 27.6003C17.1741 27.6003 18.8301 27.6154 20.4982 27.5216C22.4357 27.4277 24.1552 26.9857 25.572 25.5689C26.9918 24.1491 27.4308 22.4326 27.5246 20.4951C27.6215 18.827 27.6033 17.1711 27.6033 15.5ZM24.9393 22.6385C24.7183 23.1894 24.4519 23.6012 24.025 24.025C23.5982 24.4518 23.1895 24.7183 22.6385 24.9392C21.0461 25.572 17.265 25.4297 15.5 25.4297C13.7351 25.4297 9.9509 25.572 8.35852 24.9423C7.80754 24.7213 7.39582 24.4549 6.97199 24.028C6.54514 23.6012 6.27873 23.1925 6.05774 22.6415C5.42805 21.0461 5.57033 17.2649 5.57033 15.5C5.57033 13.7351 5.42805 9.95087 6.05774 8.35849C6.27873 7.80752 6.54514 7.3958 6.97199 6.97197C7.39885 6.54814 7.80754 6.27871 8.35852 6.05771C9.9509 5.42802 13.7351 5.57031 15.5 5.57031C17.265 5.57031 21.0491 5.42802 22.6415 6.05771C23.1925 6.27871 23.6042 6.54511 24.0281 6.97197C24.4549 7.39882 24.7213 7.80752 24.9423 8.35849C25.572 9.95087 25.4297 13.7351 25.4297 15.5C25.4297 17.2649 25.572 21.0461 24.9393 22.6385Z" fill="black"/>
</svg>
