<svg width="153" height="39" viewBox="0 0 153 39" fill="none" xmlns="http://www.w3.org/2000/svg">
<g clip-path="url(#clip0_179_8)">
<path d="M56.6195 25.7425C56.7508 25.7425 56.882 25.7696 57.0132 25.8237C57.1445 25.8671 57.2703 25.9483 57.3905 26.0675L59.5886 28.3587C58.6261 29.6046 57.4179 30.5471 55.9634 31.1862C54.5199 31.8146 52.8086 32.1287 50.8291 32.1287C49.0137 32.1287 47.3844 31.8253 45.9409 31.2187C44.5084 30.6012 43.2889 29.7562 42.2829 28.6837C41.2876 27.6004 40.5223 26.3221 39.9864 24.8487C39.4504 23.3646 39.1826 21.7558 39.1826 20.0225C39.1826 18.2566 39.4725 16.6371 40.052 15.1637C40.6315 13.6796 41.4463 12.4012 42.4961 11.3287C43.546 10.2562 44.8037 9.42205 46.2689 8.82621C47.7342 8.23037 49.3474 7.93246 51.108 7.93246C52.0048 7.93246 52.8467 8.01371 53.6341 8.17621C54.4325 8.32787 55.176 8.54455 55.865 8.82621C56.5539 9.09705 57.1883 9.42746 57.7678 9.81746C58.3473 10.2075 58.8615 10.63 59.3097 11.085L57.4397 13.5712C57.3195 13.7229 57.1773 13.8637 57.0132 13.9937C56.8492 14.1129 56.6195 14.1725 56.3243 14.1725C56.1274 14.1725 55.9416 14.1291 55.7666 14.0425C55.5915 13.9558 55.4057 13.8529 55.2088 13.7337C55.012 13.6037 54.7934 13.4683 54.5527 13.3275C54.3231 13.1758 54.0442 13.0404 53.7161 12.9212C53.3991 12.7912 53.0218 12.6829 52.5843 12.5962C52.1578 12.5096 51.6547 12.4662 51.0752 12.4662C50.1566 12.4662 49.3146 12.6341 48.549 12.97C47.7945 13.3058 47.1383 13.7987 46.5806 14.4487C46.0339 15.0879 45.6074 15.8787 45.3011 16.8212C45.0059 17.7529 44.8582 18.82 44.8582 20.0225C44.8582 21.2358 45.0223 22.3137 45.3503 23.2562C45.6894 24.1987 46.1431 24.995 46.7118 25.645C47.2913 26.2841 47.9639 26.7716 48.7295 27.1075C49.4951 27.4433 50.3152 27.6112 51.19 27.6112C51.6931 27.6112 52.1524 27.5896 52.5679 27.5462C52.9833 27.4921 53.3717 27.4108 53.7325 27.3025C54.0934 27.1833 54.4325 27.0316 54.7495 26.8475C55.0666 26.6525 55.3893 26.4087 55.7174 26.1162C55.8486 26.0079 55.9908 25.9212 56.1438 25.8562C56.2968 25.7804 56.4555 25.7425 56.6195 25.7425ZM70.2822 25.0112C69.2652 25.0546 68.4286 25.1412 67.7724 25.2712C67.1163 25.4012 66.5971 25.5637 66.2141 25.7587C65.8315 25.9537 65.5636 26.1758 65.4103 26.425C65.2684 26.6741 65.1971 26.945 65.1971 27.2375C65.1971 27.8116 65.3558 28.2179 65.6728 28.4562C65.9901 28.6837 66.4548 28.7975 67.0671 28.7975C67.7232 28.7975 68.2974 28.6837 68.7895 28.4562C69.2816 28.2287 69.7793 27.8604 70.2822 27.3512V25.0112ZM61.129 17.3575C62.1571 16.4583 63.2943 15.7921 64.5409 15.3587C65.7987 14.9146 67.1437 14.6925 68.5762 14.6925C69.6043 14.6925 70.5282 14.8604 71.3484 15.1962C72.1796 15.5212 72.8796 15.9816 73.4481 16.5775C74.0278 17.1625 74.4707 17.8612 74.7767 18.6737C75.083 19.4862 75.236 20.3746 75.236 21.3387V31.8687H72.9067C72.4257 31.8687 72.0594 31.8037 71.8077 31.6737C71.5673 31.5437 71.3648 31.2728 71.2008 30.8612L70.8399 29.935C70.4134 30.2925 70.0033 30.6065 69.6096 30.8775C69.216 31.1484 68.8059 31.3812 68.3794 31.5762C67.9639 31.7603 67.5156 31.8959 67.0343 31.9825C66.5642 32.08 66.0393 32.1287 65.4595 32.1287C64.6832 32.1287 63.9779 32.0312 63.3435 31.8362C62.7094 31.6303 62.1681 31.3325 61.7195 30.9425C61.2823 30.5525 60.9432 30.0703 60.7025 29.4962C60.4621 28.9112 60.3417 28.2396 60.3417 27.4812C60.3417 26.8746 60.495 26.2625 60.801 25.645C61.1072 25.0166 61.6375 24.4479 62.3921 23.9387C63.1466 23.4187 64.1637 22.9854 65.4431 22.6387C66.7226 22.2921 68.3358 22.0971 70.2822 22.0537V21.3387C70.2822 20.3529 70.0746 19.6433 69.6588 19.21C69.2544 18.7658 68.6746 18.5437 67.9201 18.5437C67.3188 18.5437 66.8267 18.6087 66.4438 18.7387C66.0611 18.8687 65.7166 19.015 65.4103 19.1775C65.1151 19.34 64.8255 19.4862 64.5409 19.6162C64.2567 19.7462 63.9176 19.8112 63.5239 19.8112C63.1741 19.8112 62.8788 19.7246 62.6381 19.5512C62.3978 19.3779 62.2009 19.1721 62.0476 18.9337L61.129 17.3575ZM83.266 16.8375C83.5941 16.5341 83.9332 16.2525 84.283 15.9925C84.6329 15.7325 85.0048 15.5158 85.3985 15.3425C85.8032 15.1583 86.235 15.0175 86.6943 14.92C87.1647 14.8116 87.6732 14.7575 88.2199 14.7575C89.1495 14.7575 89.9697 14.92 90.6804 15.245C91.4021 15.5591 92.0091 16.0033 92.5012 16.5775C92.9933 17.1408 93.3652 17.8179 93.6166 18.6087C93.868 19.3887 93.9939 20.2391 93.9939 21.16V31.8687H88.9088V21.16C88.9088 20.3366 88.7173 19.6975 88.3347 19.2425C87.952 18.7766 87.3886 18.5437 86.6451 18.5437C86.0874 18.5437 85.5625 18.6629 85.0704 18.9012C84.5893 19.1287 84.119 19.4429 83.6597 19.8437V31.8687H78.5746V15.0175H81.7241C82.3584 15.0175 82.7739 15.2991 82.9707 15.8625L83.266 16.8375ZM115.537 31.8687H110.452V18.495H103.333V26.8637C103.333 27.2537 103.426 27.5787 103.611 27.8387C103.808 28.0879 104.087 28.2125 104.448 28.2125C104.634 28.2125 104.787 28.1962 104.907 28.1637C105.039 28.1204 105.148 28.0771 105.235 28.0337C105.334 27.9796 105.421 27.9362 105.498 27.9037C105.586 27.8604 105.684 27.8387 105.793 27.8387C105.946 27.8387 106.067 27.8766 106.154 27.9525C106.252 28.0175 106.351 28.1258 106.449 28.2775L107.991 30.6662C107.335 31.1537 106.597 31.5221 105.777 31.7712C104.957 32.0096 104.109 32.1287 103.234 32.1287C102.425 32.1287 101.709 32.015 101.085 31.7875C100.473 31.549 99.9534 31.2187 99.527 30.7962C99.1115 30.3628 98.7945 29.8428 98.5755 29.2362C98.3569 28.6296 98.2475 27.9525 98.2475 27.205V18.495H96.804C96.5415 18.495 96.3175 18.4137 96.1314 18.2512C95.9456 18.0779 95.8526 17.8287 95.8526 17.5037V15.5375L98.5591 15.0012L99.5598 10.9062C99.691 10.3862 100.063 10.1262 100.675 10.1262H103.333V15.05H115.537V31.8687ZM116.242 10.3862C116.242 10.7871 116.16 11.1662 115.996 11.5237C115.832 11.8812 115.608 12.1954 115.324 12.4662C115.039 12.7262 114.706 12.9321 114.323 13.0837C113.951 13.2354 113.552 13.3112 113.125 13.3112C112.71 13.3112 112.322 13.2354 111.961 13.0837C111.6 12.9321 111.278 12.7262 110.993 12.4662C110.72 12.1954 110.501 11.8812 110.337 11.5237C110.184 11.1662 110.107 10.7871 110.107 10.3862C110.107 9.98537 110.184 9.60621 110.337 9.24871C110.501 8.88037 110.72 8.56621 110.993 8.30621C111.278 8.03537 111.6 7.82412 111.961 7.67246C112.322 7.50996 112.71 7.42871 113.125 7.42871C113.552 7.42871 113.951 7.50996 114.323 7.67246C114.706 7.82412 115.039 8.03537 115.324 8.30621C115.608 8.56621 115.832 8.88037 115.996 9.24871C116.16 9.60621 116.242 9.98537 116.242 10.3862ZM123.874 16.8375C124.202 16.5341 124.541 16.2525 124.891 15.9925C125.241 15.7325 125.613 15.5158 126.006 15.3425C126.411 15.1583 126.843 15.0175 127.302 14.92C127.773 14.8116 128.281 14.7575 128.828 14.7575C129.757 14.7575 130.578 14.92 131.288 15.245C132.01 15.5591 132.617 16.0033 133.109 16.5775C133.601 17.1408 133.973 17.8179 134.225 18.6087C134.476 19.3887 134.602 20.2391 134.602 21.16V31.8687H129.517V21.16C129.517 20.3366 129.326 19.6975 128.943 19.2425C128.56 18.7766 127.997 18.5437 127.253 18.5437C126.695 18.5437 126.17 18.6629 125.678 18.9012C125.197 19.1287 124.727 19.4429 124.268 19.8437V31.8687H119.183V15.0175H122.332C122.966 15.0175 123.382 15.2991 123.579 15.8625L123.874 16.8375ZM142.672 16.8375C143 16.5341 143.34 16.2525 143.689 15.9925C144.039 15.7325 144.411 15.5158 144.805 15.3425C145.21 15.1583 145.641 15.0175 146.101 14.92C146.571 14.8116 147.08 14.7575 147.626 14.7575C148.556 14.7575 149.376 14.92 150.087 15.245C150.808 15.5591 151.415 16.0033 151.908 16.5775C152.4 17.1408 152.772 17.8179 153.023 18.6087C153.274 19.3887 153.4 20.2391 153.4 21.16V31.8687H148.315V21.16C148.315 20.3366 148.124 19.6975 147.741 19.2425C147.358 18.7766 146.795 18.5437 146.051 18.5437C145.494 18.5437 144.969 18.6629 144.477 18.9012C143.996 19.1287 143.525 19.4429 143.066 19.8437V31.8687H137.981V15.0175H141.13C141.765 15.0175 142.18 15.2991 142.377 15.8625L142.672 16.8375Z" fill="white"/>
<mask id="mask0_179_8" style="mask-type:alpha" maskUnits="userSpaceOnUse" x="0" y="5" width="30" height="30">
<path d="M29.5263 5.02295H0.298246C0.133529 5.02295 0 5.15523 0 5.3184V34.2729C0 34.4361 0.133529 34.5684 0.298246 34.5684H29.5263C29.691 34.5684 29.8246 34.4361 29.8246 34.2729V5.3184C29.8246 5.15523 29.691 5.02295 29.5263 5.02295Z" fill="white"/>
</mask>
<g mask="url(#mask0_179_8)">
<path d="M29.5263 5.02295H0.298246C0.133529 5.02295 0 5.15523 0 5.3184V34.2729C0 34.4361 0.133529 34.5684 0.298246 34.5684H29.5263C29.691 34.5684 29.8246 34.4361 29.8246 34.2729V5.3184C29.8246 5.15523 29.691 5.02295 29.5263 5.02295Z" stroke="white" stroke-width="7"/>
<path d="M11.3661 3.11235C10.7768 3.09382 10.2891 3.56194 10.2891 4.14591V34.8542C10.2891 35.438 10.7768 35.9063 11.3661 35.8877L29.559 35.3154C30.1224 35.298 30.5698 34.8403 30.5698 34.2819V20.0023V4.71808C30.5698 4.15973 30.1224 3.70222 29.559 3.6845L11.3661 3.11235Z" fill="white" stroke="#1F86FF" stroke-width="2"/>
</g>
</g>
<defs>
<clipPath id="clip0_179_8">
<rect width="153" height="39" fill="white"/>
</clipPath>
</defs>
</svg>
