<svg width="25" height="25" viewBox="0 0 25 25" fill="none" xmlns="http://www.w3.org/2000/svg">
<path d="M19.6618 4.6875C21.1722 4.6875 22.3962 5.91146 22.3962 7.42188V17.5781C22.3962 19.0885 21.1722 20.3125 19.6618 20.3125H5.33887C4.61367 20.3125 3.91817 20.0244 3.40537 19.5116C2.89258 18.9988 2.60449 18.3033 2.60449 17.5781V7.42188C2.60449 5.91146 3.82845 4.6875 5.33887 4.6875H19.6618ZM21.0941 9.55781L12.8139 14.112C12.7287 14.1588 12.6341 14.186 12.537 14.1915C12.4399 14.197 12.3429 14.1807 12.2529 14.1437L12.1868 14.1125L3.90658 9.55729V17.5781C3.90658 17.958 4.05748 18.3223 4.32608 18.5909C4.59469 18.8595 4.959 19.0104 5.33887 19.0104H19.6618C20.0417 19.0104 20.406 18.8595 20.6746 18.5909C20.9432 18.3223 21.0941 17.958 21.0941 17.5781V9.55781ZM19.6618 5.98958H5.33887C4.959 5.98958 4.59469 6.14048 4.32608 6.40909C4.05748 6.6777 3.90658 7.04201 3.90658 7.42188V8.0724L12.5003 12.7984L21.0941 8.07187V7.42188C21.0941 7.04201 20.9432 6.6777 20.6746 6.40909C20.406 6.14048 20.0417 5.98958 19.6618 5.98958Z" fill="black"/>
</svg>
