<svg width="29" height="29" viewBox="0 0 29 29" fill="none" xmlns="http://www.w3.org/2000/svg">
<path d="M19.0312 2.74683L18.4367 3.39842C17.1055 4.86383 16.008 5.51905 15.0945 5.9477C14.181 6.37545 13.4134 6.50323 12.6594 7.08051C11.8556 7.69676 10.6874 8.87851 10.1953 10.9883C9.14044 11.2185 8.36831 11.6226 7.75931 12.1492C7.15756 12.6694 6.70444 13.2611 6.14619 13.9055C6.14166 13.9127 6.14891 13.9263 6.14619 13.9336C5.34506 14.8543 4.64453 15.8458 3.28516 16.3696L2.71875 16.5961V26.2812H19.9946C20.9851 26.2278 21.6721 25.5417 22.0898 24.8648C22.5067 24.1887 22.7378 23.4565 22.8547 22.8547C23.1556 21.3213 23.7039 16.907 23.7039 16.907L23.7329 16.8227V16.7375C23.7039 16.1249 23.4519 15.6047 23.1375 15.1226L24.157 12.093L25.7719 9.65698L26.2251 9.00539L25.6297 8.46798L19.6828 3.31323L19.0312 2.74683ZM19.0883 5.23901L23.8172 9.34614L22.5711 11.1858L22.4868 11.2719L22.4578 11.4133L21.6367 13.8484C21.2081 13.6717 20.7667 13.5475 20.2773 13.5656H20.2202L14.5 13.5937H13.5937V17.1055C13.4669 18.0933 12.9177 18.4757 12.2344 18.7485C12.0078 18.84 11.9797 18.7902 11.7812 18.8328V13.5665C11.6326 10.2071 12.8289 9.24011 13.7641 8.52508C14.0224 8.32661 14.7791 8.09733 15.8594 7.59073C16.762 7.1657 17.8839 6.40445 19.0883 5.23992V5.23901ZM10.0258 13.0273C10.0222 13.233 9.95787 13.378 9.96875 13.5937V20.8437H10.875C10.875 20.8437 11.8447 20.8329 12.886 20.4187C13.9263 20.0045 15.1833 19.0349 15.4062 17.332V15.4062L20.2773 15.3781H20.3054C20.7033 15.3564 21.0935 15.4931 21.3907 15.7584C21.688 16.0237 21.868 16.396 21.8914 16.7937C21.8877 16.8082 21.8461 17.1444 21.8352 17.2187H18.125V19.0312H21.6086C21.5126 19.7318 21.4247 20.1713 21.325 20.8437H18.125V22.6562H21.0422C20.9351 23.0947 20.7632 23.5147 20.532 23.9023C20.2846 24.3056 20.0716 24.4579 19.8813 24.4687H4.53125V17.7C6.00028 16.9206 6.91378 15.7995 7.50466 15.1235C8.11728 14.422 8.53778 13.891 8.94922 13.5375C9.21837 13.3074 9.63978 13.176 10.0258 13.0273Z" fill="white"/>
</svg>
