<svg width="21" height="21" viewBox="0 0 21 21" fill="none" xmlns="http://www.w3.org/2000/svg">
<path d="M15.75 12C16.7295 12 17.5635 12.6263 17.8725 13.5H10.5V13.125H5.25C4.97046 13.125 4.70092 13.2291 4.49392 13.4169C4.28692 13.6048 4.15727 13.863 4.13025 14.1412L4.125 14.25V14.7863C4.125 16.7917 6.66675 18.375 10.5 18.375V18H16.1033C14.7608 18.9323 12.7957 19.5 10.5 19.5C6.1575 19.5 3 17.5748 3 14.7863V14.25C3 13.6533 3.23705 13.081 3.65901 12.659C4.08097 12.2371 4.65326 12 5.25 12H15.75ZM18 14.25V14.7863C18 14.9865 17.9827 15.183 17.9475 15.375H10.5V14.25H18ZM17.7218 16.125H10.5V17.25H16.9755C17.2958 16.9043 17.5477 16.527 17.7218 16.125ZM14.9655 5.4375C15.012 5.81106 15.012 6.18894 14.9655 6.5625H10.5V5.4375H14.9655ZM14.8057 4.6875C14.6845 4.29008 14.5086 3.91145 14.283 3.5625H10.5V4.6875H14.805H14.8057ZM10.5 1.5C11.7397 1.5 12.8625 2.00175 13.6763 2.8125H10.5V2.625C9.60489 2.625 8.74645 2.98058 8.11351 3.61351C7.48058 4.24645 7.125 5.10489 7.125 6C7.125 6.89511 7.48058 7.75355 8.11351 8.38649C8.74645 9.01942 9.60489 9.375 10.5 9.375V9.1875H13.6763C13.1523 9.70964 12.5077 10.0946 11.7995 10.3082C11.0913 10.5219 10.3414 10.5576 9.6161 10.4124C8.89079 10.2671 8.21248 9.94529 7.6412 9.4754C7.06991 9.0055 6.62327 8.40202 6.34081 7.71837C6.05834 7.03472 5.94876 6.29198 6.02177 5.55588C6.09477 4.81979 6.34811 4.11304 6.75935 3.49818C7.1706 2.88333 7.72708 2.37934 8.37953 2.03081C9.03198 1.68228 9.76029 1.49997 10.5 1.5ZM14.283 8.4375H10.5V7.3125H14.805C14.6847 7.71016 14.509 8.08888 14.283 8.4375Z" fill="black"/>
</svg>
