<svg width="407" height="217" viewBox="0 0 407 217" fill="none" xmlns="http://www.w3.org/2000/svg">
<g filter="url(#filter0_b_385_151)">
<rect width="407" height="217" rx="10" fill="white" fill-opacity="0.26"/>
<rect x="1" y="1" width="405" height="215" rx="9" stroke="white" stroke-opacity="0.3" stroke-width="2"/>
</g>
<path d="M23.8789 54.5156H30.417C31.8219 54.5156 33.0195 54.7272 34.0098 55.1504C35 55.5736 35.7575 56.1999 36.2822 57.0293C36.8154 57.8503 37.082 58.8659 37.082 60.0762C37.082 60.9987 36.9128 61.8112 36.5742 62.5137C36.2357 63.2161 35.7575 63.8086 35.1396 64.291C34.5218 64.765 33.7855 65.1331 32.9307 65.3955L31.9658 65.8652H26.0879L26.0625 63.3389H30.4678C31.2295 63.3389 31.8643 63.2035 32.3721 62.9326C32.8799 62.6618 33.2607 62.2936 33.5146 61.8281C33.777 61.3542 33.9082 60.821 33.9082 60.2285C33.9082 59.5853 33.7812 59.0267 33.5273 58.5527C33.2819 58.0703 32.901 57.7021 32.3848 57.4482C31.8685 57.1859 31.2126 57.0547 30.417 57.0547H27.0654V73H23.8789V54.5156ZM34.4287 73L30.0869 64.6973L33.4258 64.6846L37.8311 72.835V73H34.4287ZM47.4191 51.5576V55.3535H45.464V51.5576H47.4191ZM47.1779 72.2891V75.6914H45.2355V72.2891H47.1779ZM49.0949 68.1885C49.0949 67.6976 48.9933 67.2702 48.7902 66.9062C48.5956 66.5339 48.2739 66.1995 47.8254 65.9033C47.3768 65.5986 46.7759 65.3151 46.0226 65.0527C44.9393 64.6719 43.9914 64.2445 43.1789 63.7705C42.3749 63.2881 41.7485 62.6956 41.3 61.9932C40.8599 61.2822 40.6398 60.3978 40.6398 59.3398C40.6398 58.2988 40.8768 57.3975 41.3508 56.6357C41.8332 55.874 42.5018 55.2858 43.3566 54.8711C44.2114 54.4564 45.2101 54.249 46.3527 54.249C47.2329 54.249 48.0243 54.3802 48.7267 54.6426C49.4377 54.9049 50.0428 55.29 50.5422 55.7979C51.0415 56.3057 51.4224 56.932 51.6847 57.6768C51.9556 58.4131 52.091 59.2594 52.091 60.2158H49.0441C49.0441 59.6742 48.9806 59.1917 48.8537 58.7686C48.7352 58.3369 48.5575 57.973 48.3205 57.6768C48.0835 57.3721 47.7958 57.1393 47.4572 56.9785C47.1271 56.8177 46.7505 56.7373 46.3273 56.7373C45.7264 56.7373 45.2313 56.8516 44.842 57.0801C44.4527 57.3001 44.1649 57.6048 43.9787 57.9941C43.801 58.3835 43.7121 58.8278 43.7121 59.3271C43.7121 59.8096 43.8052 60.2327 43.9914 60.5967C44.1776 60.9606 44.495 61.2907 44.9435 61.5869C45.4006 61.8747 46.0269 62.1667 46.8224 62.4629C47.9142 62.8522 48.8579 63.2881 49.6535 63.7705C50.4575 64.2445 51.0754 64.8327 51.507 65.5352C51.9471 66.2292 52.1672 67.1051 52.1672 68.1631C52.1672 69.2549 51.9133 70.1816 51.4055 70.9434C50.9061 71.7051 50.2036 72.2848 49.298 72.6826C48.4009 73.0719 47.3556 73.2666 46.1623 73.2666C45.409 73.2666 44.66 73.1693 43.9152 72.9746C43.1789 72.7715 42.5103 72.4414 41.9094 71.9844C41.3084 71.5273 40.8303 70.9222 40.4748 70.1689C40.1193 69.4072 39.9416 68.4762 39.9416 67.376H43.0138C43.0138 68.0361 43.1027 68.5863 43.2805 69.0264C43.4582 69.4665 43.6994 69.8135 44.0041 70.0674C44.3088 70.3213 44.6473 70.5033 45.0197 70.6133C45.4006 70.7233 45.7814 70.7783 46.1623 70.7783C46.7971 70.7783 47.3303 70.6725 47.7619 70.4609C48.202 70.2409 48.5321 69.9362 48.7521 69.5469C48.9806 69.1491 49.0949 68.6963 49.0949 68.1885ZM63.4945 54.4521V73H60.4349V58.083L55.9027 59.6191V57.0928L63.1263 54.4521H63.4945ZM72.6763 70.5879H72.9302C74.0982 70.5879 75.0715 70.4355 75.8501 70.1309C76.6373 69.8177 77.2636 69.3861 77.729 68.8359C78.1945 68.2858 78.5289 67.6383 78.732 66.8936C78.9351 66.1488 79.0367 65.3405 79.0367 64.4688V61.2822C79.0367 60.529 78.9563 59.8688 78.7955 59.3018C78.6431 58.7262 78.4231 58.248 78.1353 57.8672C77.856 57.4779 77.5302 57.1859 77.1578 56.9912C76.7938 56.7965 76.4003 56.6992 75.9771 56.6992C75.5116 56.6992 75.0927 56.805 74.7203 57.0166C74.3563 57.2197 74.0474 57.5033 73.7935 57.8672C73.5481 58.2227 73.3576 58.6416 73.2222 59.124C73.0953 59.598 73.0318 60.1058 73.0318 60.6475C73.0318 61.1553 73.091 61.6462 73.2095 62.1201C73.3365 62.5856 73.5227 63.0003 73.7681 63.3643C74.0136 63.7282 74.3225 64.016 74.6949 64.2275C75.0673 64.4391 75.5031 64.5449 76.0025 64.5449C76.4764 64.5449 76.9123 64.4561 77.3101 64.2783C77.7079 64.0921 78.0549 63.8424 78.3511 63.5293C78.6473 63.2161 78.8801 62.8649 79.0494 62.4756C79.2186 62.0863 79.3117 61.6885 79.3287 61.2822L80.4966 61.6377C80.4966 62.2809 80.3612 62.9157 80.0904 63.542C79.828 64.1598 79.4598 64.7269 78.9859 65.2432C78.5204 65.751 77.9745 66.1572 77.3482 66.4619C76.7304 66.7666 76.0575 66.9189 75.3296 66.9189C74.4494 66.9189 73.6708 66.7539 72.9937 66.4238C72.3251 66.0853 71.7665 65.6283 71.3179 65.0527C70.8778 64.4772 70.5477 63.8171 70.3277 63.0723C70.1076 62.3275 69.9976 61.5446 69.9976 60.7236C69.9976 59.835 70.133 59.0013 70.4039 58.2227C70.6747 57.444 71.0682 56.7585 71.5845 56.166C72.1008 55.5651 72.7271 55.0996 73.4634 54.7695C74.2082 54.431 75.0503 54.2617 75.9898 54.2617C76.9885 54.2617 77.8645 54.4564 78.6177 54.8457C79.371 55.235 80.0057 55.7725 80.522 56.458C81.0383 57.1436 81.4276 57.9391 81.69 58.8447C81.9524 59.7503 82.0835 60.7236 82.0835 61.7646V62.8438C82.0835 63.9355 81.9862 64.9893 81.7915 66.0049C81.5969 67.012 81.2795 67.9473 80.8394 68.8105C80.4078 69.6654 79.8365 70.4186 79.1255 71.0703C78.4231 71.7135 77.5598 72.2171 76.5357 72.5811C75.5201 72.9365 74.3267 73.1143 72.9556 73.1143H72.6763V70.5879ZM88.3327 70.0547L88.32 72.2383C88.32 73.1016 88.1042 73.9902 87.6726 74.9043C87.2409 75.8184 86.6697 76.5716 85.9587 77.1641L84.321 76.2119C84.558 75.8311 84.7738 75.446 84.9685 75.0566C85.1631 74.6673 85.3197 74.2526 85.4382 73.8125C85.5567 73.3724 85.6159 72.8857 85.6159 72.3525V70.0547H88.3327ZM93.8583 70.5879H94.1122C95.2802 70.5879 96.2535 70.4355 97.0321 70.1309C97.8193 69.8177 98.4456 69.3861 98.911 68.8359C99.3765 68.2858 99.7109 67.6383 99.914 66.8936C100.117 66.1488 100.219 65.3405 100.219 64.4688V61.2822C100.219 60.529 100.138 59.8688 99.9775 59.3018C99.8251 58.7262 99.6051 58.248 99.3173 57.8672C99.038 57.4779 98.7122 57.1859 98.3398 56.9912C97.9758 56.7965 97.5823 56.6992 97.1591 56.6992C96.6936 56.6992 96.2747 56.805 95.9023 57.0166C95.5383 57.2197 95.2294 57.5033 94.9755 57.8672C94.7301 58.2227 94.5396 58.6416 94.4042 59.124C94.2773 59.598 94.2138 60.1058 94.2138 60.6475C94.2138 61.1553 94.273 61.6462 94.3915 62.1201C94.5185 62.5856 94.7047 63.0003 94.9501 63.3643C95.1956 63.7282 95.5045 64.016 95.8769 64.2275C96.2493 64.4391 96.6851 64.5449 97.1845 64.5449C97.6584 64.5449 98.0943 64.4561 98.4921 64.2783C98.8899 64.0921 99.2369 63.8424 99.5331 63.5293C99.8293 63.2161 100.062 62.8649 100.231 62.4756C100.401 62.0863 100.494 61.6885 100.511 61.2822L101.679 61.6377C101.679 62.2809 101.543 62.9157 101.272 63.542C101.01 64.1598 100.642 64.7269 100.168 65.2432C99.7024 65.751 99.1565 66.1572 98.5302 66.4619C97.9124 66.7666 97.2395 66.9189 96.5116 66.9189C95.6314 66.9189 94.8528 66.7539 94.1757 66.4238C93.5071 66.0853 92.9485 65.6283 92.4999 65.0527C92.0598 64.4772 91.7297 63.8171 91.5097 63.0723C91.2896 62.3275 91.1796 61.5446 91.1796 60.7236C91.1796 59.835 91.315 59.0013 91.5859 58.2227C91.8567 57.444 92.2502 56.7585 92.7665 56.166C93.2828 55.5651 93.9091 55.0996 94.6454 54.7695C95.3902 54.431 96.2323 54.2617 97.1718 54.2617C98.1705 54.2617 99.0465 54.4564 99.7997 54.8457C100.553 55.235 101.188 55.7725 101.704 56.458C102.22 57.1436 102.61 57.9391 102.872 58.8447C103.134 59.7503 103.266 60.7236 103.266 61.7646V62.8438C103.266 63.9355 103.168 64.9893 102.974 66.0049C102.779 67.012 102.462 67.9473 102.021 68.8105C101.59 69.6654 101.018 70.4186 100.308 71.0703C99.6051 71.7135 98.7418 72.2171 97.7177 72.5811C96.7021 72.9365 95.5087 73.1143 94.1376 73.1143H93.8583V70.5879ZM118.516 62.209V65.2305C118.516 66.6777 118.372 67.9134 118.084 68.9375C117.805 69.9531 117.399 70.7783 116.865 71.4131C116.332 72.0479 115.693 72.5133 114.948 72.8096C114.212 73.1058 113.387 73.2539 112.473 73.2539C111.745 73.2539 111.068 73.1608 110.441 72.9746C109.824 72.7884 109.265 72.4964 108.766 72.0986C108.266 71.7008 107.839 71.1888 107.483 70.5625C107.136 69.9277 106.866 69.1702 106.671 68.29C106.485 67.4098 106.392 66.39 106.392 65.2305V62.209C106.392 60.7533 106.536 59.526 106.823 58.5273C107.111 57.5202 107.522 56.7035 108.055 56.0771C108.588 55.4424 109.223 54.9811 109.959 54.6934C110.704 54.4056 111.533 54.2617 112.447 54.2617C113.184 54.2617 113.861 54.3548 114.479 54.541C115.105 54.7188 115.664 55.0023 116.154 55.3916C116.654 55.7809 117.077 56.2887 117.424 56.915C117.779 57.5329 118.05 58.2819 118.236 59.1621C118.423 60.0339 118.516 61.0495 118.516 62.209ZM115.456 65.6621V61.752C115.456 61.0156 115.414 60.3682 115.329 59.8096C115.245 59.2425 115.118 58.7643 114.948 58.375C114.788 57.9772 114.584 57.6556 114.339 57.4102C114.094 57.1562 113.814 56.9743 113.501 56.8643C113.188 56.7458 112.837 56.6865 112.447 56.6865C111.973 56.6865 111.55 56.7796 111.178 56.9658C110.805 57.1436 110.492 57.4313 110.238 57.8291C109.984 58.2269 109.79 58.7516 109.654 59.4033C109.527 60.0465 109.464 60.8294 109.464 61.752V65.6621C109.464 66.4069 109.506 67.0628 109.591 67.6299C109.676 68.1969 109.803 68.6836 109.972 69.0898C110.141 69.4876 110.344 69.8177 110.581 70.0801C110.827 70.334 111.106 70.5202 111.419 70.6387C111.741 70.7572 112.092 70.8164 112.473 70.8164C112.955 70.8164 113.383 70.7233 113.755 70.5371C114.127 70.3509 114.441 70.0547 114.694 69.6484C114.948 69.2337 115.139 68.6963 115.266 68.0361C115.393 67.376 115.456 66.5846 115.456 65.6621ZM133.567 60.2031L128.583 74.0986H126.922L131.915 60.2031H133.567ZM137.448 65.4238V73H135.33V63.4902H137.325L137.448 65.4238ZM137.105 67.8936L136.384 67.8848C136.384 67.2285 136.466 66.6221 136.631 66.0654C136.795 65.5088 137.035 65.0254 137.351 64.6152C137.668 64.1992 138.06 63.8799 138.529 63.6572C139.004 63.4287 139.551 63.3145 140.173 63.3145C140.606 63.3145 141.002 63.3789 141.359 63.5078C141.722 63.6309 142.036 63.8271 142.299 64.0967C142.569 64.3662 142.774 64.7119 142.915 65.1338C143.061 65.5557 143.134 66.0654 143.134 66.6631V73H141.016V66.8477C141.016 66.3848 140.946 66.0215 140.805 65.7578C140.671 65.4941 140.474 65.3066 140.216 65.1953C139.964 65.0781 139.663 65.0195 139.311 65.0195C138.913 65.0195 138.573 65.0957 138.292 65.248C138.016 65.4004 137.791 65.6084 137.615 65.8721C137.439 66.1357 137.31 66.4404 137.228 66.7861C137.146 67.1318 137.105 67.501 137.105 67.8936ZM143.003 67.3311L142.009 67.5508C142.009 66.9766 142.089 66.4346 142.247 65.9248C142.411 65.4092 142.648 64.958 142.959 64.5713C143.275 64.1787 143.665 63.8711 144.128 63.6484C144.59 63.4258 145.121 63.3145 145.718 63.3145C146.205 63.3145 146.638 63.3818 147.019 63.5166C147.406 63.6455 147.734 63.8506 148.004 64.1318C148.273 64.4131 148.478 64.7793 148.619 65.2305C148.759 65.6758 148.83 66.2148 148.83 66.8477V73H146.703V66.8389C146.703 66.3584 146.632 65.9863 146.492 65.7227C146.357 65.459 146.164 65.2773 145.912 65.1777C145.66 65.0723 145.358 65.0195 145.006 65.0195C144.678 65.0195 144.388 65.0811 144.136 65.2041C143.89 65.3213 143.682 65.4883 143.512 65.7051C143.342 65.916 143.214 66.1592 143.126 66.4346C143.044 66.71 143.003 67.0088 143.003 67.3311ZM155.497 73.1758C154.794 73.1758 154.158 73.0615 153.59 72.833C153.027 72.5986 152.547 72.2734 152.148 71.8574C151.756 71.4414 151.454 70.9521 151.243 70.3896C151.032 69.8271 150.927 69.2207 150.927 68.5703V68.2188C150.927 67.4746 151.035 66.8008 151.252 66.1973C151.469 65.5938 151.77 65.0781 152.157 64.6504C152.544 64.2168 153.001 63.8857 153.528 63.6572C154.055 63.4287 154.627 63.3145 155.242 63.3145C155.922 63.3145 156.516 63.4287 157.026 63.6572C157.536 63.8857 157.958 64.208 158.292 64.624C158.632 65.0342 158.884 65.5234 159.048 66.0918C159.218 66.6602 159.303 67.2871 159.303 67.9727V68.8779H151.955V67.3574H157.211V67.1904C157.199 66.8096 157.123 66.4521 156.982 66.1182C156.847 65.7842 156.639 65.5146 156.358 65.3096C156.077 65.1045 155.702 65.002 155.233 65.002C154.882 65.002 154.568 65.0781 154.293 65.2305C154.023 65.377 153.798 65.5908 153.616 65.8721C153.434 66.1533 153.294 66.4932 153.194 66.8916C153.1 67.2842 153.054 67.7266 153.054 68.2188V68.5703C153.054 68.9863 153.109 69.373 153.221 69.7305C153.338 70.082 153.508 70.3896 153.73 70.6533C153.953 70.917 154.222 71.125 154.539 71.2773C154.855 71.4238 155.216 71.4971 155.62 71.4971C156.13 71.4971 156.584 71.3945 156.982 71.1895C157.381 70.9844 157.726 70.6943 158.019 70.3193L159.136 71.4004C158.93 71.6992 158.664 71.9863 158.336 72.2617C158.008 72.5312 157.606 72.751 157.132 72.9209C156.663 73.0908 156.118 73.1758 155.497 73.1758ZM155.708 59.5L158.142 61.9258V62.0225H156.429L155.084 60.6426L153.739 62.0225H152.06V61.9082L154.46 59.5H155.708ZM166.585 70.4248C166.585 70.2139 166.532 70.0234 166.427 69.8535C166.321 69.6777 166.119 69.5195 165.82 69.3789C165.527 69.2383 165.094 69.1094 164.52 68.9922C164.016 68.8809 163.553 68.749 163.131 68.5967C162.715 68.4385 162.357 68.248 162.059 68.0254C161.76 67.8027 161.528 67.5391 161.364 67.2344C161.2 66.9297 161.118 66.5781 161.118 66.1797C161.118 65.793 161.203 65.4268 161.373 65.0811C161.543 64.7354 161.786 64.4307 162.103 64.167C162.419 63.9033 162.803 63.6953 163.254 63.543C163.711 63.3906 164.221 63.3145 164.783 63.3145C165.58 63.3145 166.263 63.4492 166.831 63.7188C167.405 63.9824 167.845 64.3428 168.149 64.7998C168.454 65.251 168.606 65.7607 168.606 66.3291H166.488C166.488 66.0771 166.424 65.8428 166.295 65.626C166.172 65.4033 165.984 65.2246 165.732 65.0898C165.48 64.9492 165.164 64.8789 164.783 64.8789C164.42 64.8789 164.118 64.9375 163.878 65.0547C163.644 65.166 163.468 65.3125 163.351 65.4941C163.239 65.6758 163.184 65.875 163.184 66.0918C163.184 66.25 163.213 66.3936 163.271 66.5225C163.336 66.6455 163.441 66.7598 163.588 66.8652C163.734 66.9648 163.934 67.0586 164.186 67.1465C164.443 67.2344 164.766 67.3193 165.152 67.4014C165.879 67.5537 166.503 67.75 167.024 67.9902C167.552 68.2246 167.956 68.5293 168.237 68.9043C168.519 69.2734 168.659 69.7422 168.659 70.3105C168.659 70.7324 168.568 71.1191 168.387 71.4707C168.211 71.8164 167.953 72.1182 167.613 72.376C167.273 72.6279 166.866 72.8242 166.392 72.9648C165.923 73.1055 165.396 73.1758 164.81 73.1758C163.948 73.1758 163.219 73.0234 162.621 72.7188C162.023 72.4082 161.569 72.0127 161.259 71.5322C160.954 71.0459 160.802 70.542 160.802 70.0205H162.85C162.873 70.4131 162.981 70.7266 163.175 70.9609C163.374 71.1895 163.62 71.3564 163.913 71.4619C164.212 71.5615 164.52 71.6113 164.836 71.6113C165.217 71.6113 165.536 71.5615 165.794 71.4619C166.052 71.3564 166.248 71.2158 166.383 71.04C166.518 70.8584 166.585 70.6533 166.585 70.4248Z" fill="white"/>
<path d="M29.188 114.432H25.3018V112.392H29.188C29.8647 112.392 30.4116 112.282 30.8286 112.063C31.2456 111.845 31.5498 111.544 31.7412 111.161C31.9395 110.771 32.0386 110.327 32.0386 109.828C32.0386 109.356 31.9395 108.916 31.7412 108.505C31.5498 108.088 31.2456 107.753 30.8286 107.5C30.4116 107.248 29.8647 107.121 29.188 107.121H26.0913V120H23.5176V105.07H29.188C30.3433 105.07 31.3242 105.275 32.1309 105.686C32.9443 106.089 33.563 106.649 33.9868 107.367C34.4106 108.078 34.6226 108.892 34.6226 109.808C34.6226 110.771 34.4106 111.599 33.9868 112.289C33.563 112.979 32.9443 113.509 32.1309 113.878C31.3242 114.248 30.3433 114.432 29.188 114.432ZM39.6242 104.25V120H37.1428V104.25H39.6242ZM48.8812 117.775V112.484C48.8812 112.087 48.8094 111.746 48.6659 111.458C48.5223 111.171 48.3036 110.949 48.0096 110.792C47.7225 110.635 47.3602 110.556 46.9227 110.556C46.5194 110.556 46.1708 110.625 45.8768 110.761C45.5829 110.898 45.3539 111.083 45.1898 111.315C45.0257 111.547 44.9437 111.811 44.9437 112.104H42.4828C42.4828 111.667 42.5887 111.243 42.8006 110.833C43.0126 110.423 43.3202 110.057 43.7235 109.736C44.1268 109.415 44.6088 109.162 45.1693 108.977C45.7298 108.792 46.3588 108.7 47.056 108.7C47.89 108.7 48.6283 108.84 49.2709 109.121C49.9203 109.401 50.4296 109.825 50.7987 110.392C51.1747 110.953 51.3627 111.657 51.3627 112.504V117.437C51.3627 117.942 51.3968 118.397 51.4652 118.8C51.5404 119.197 51.6464 119.542 51.7831 119.836V120H49.2504C49.1341 119.733 49.0419 119.395 48.9735 118.985C48.912 118.568 48.8812 118.165 48.8812 117.775ZM49.2401 113.253L49.2606 114.781H47.4867C47.0287 114.781 46.6254 114.825 46.2767 114.914C45.9281 114.996 45.6376 115.119 45.4051 115.283C45.1727 115.447 44.9984 115.646 44.8822 115.878C44.766 116.11 44.7079 116.374 44.7079 116.667C44.7079 116.961 44.7762 117.231 44.913 117.478C45.0497 117.717 45.2479 117.905 45.5077 118.042C45.7743 118.178 46.0956 118.247 46.4715 118.247C46.9774 118.247 47.4183 118.144 47.7943 117.939C48.1771 117.727 48.4779 117.471 48.6966 117.17C48.9154 116.862 49.0316 116.572 49.0453 116.298L49.8451 117.396C49.7631 117.676 49.6229 117.977 49.4247 118.298C49.2264 118.619 48.9667 118.927 48.6454 119.221C48.3309 119.508 47.9515 119.744 47.5072 119.928C47.0697 120.113 46.5638 120.205 45.9896 120.205C45.265 120.205 44.619 120.062 44.0516 119.774C43.4842 119.48 43.0399 119.087 42.7186 118.595C42.3973 118.096 42.2367 117.532 42.2367 116.903C42.2367 116.315 42.3461 115.796 42.5648 115.345C42.7904 114.887 43.1185 114.504 43.5492 114.196C43.9867 113.889 44.5199 113.656 45.1488 113.499C45.7777 113.335 46.4955 113.253 47.3021 113.253H49.2401ZM56.6924 111.274V120H54.2212V108.905H56.5489L56.6924 111.274ZM56.2515 114.042L55.4517 114.032C55.4585 113.246 55.5679 112.525 55.7798 111.869C55.9986 111.212 56.2994 110.648 56.6822 110.177C57.0718 109.705 57.5367 109.343 58.0767 109.09C58.6167 108.83 59.2183 108.7 59.8814 108.7C60.4146 108.7 60.8965 108.775 61.3272 108.926C61.7647 109.069 62.1373 109.305 62.4449 109.633C62.7593 109.961 62.9986 110.389 63.1626 110.915C63.3267 111.435 63.4087 112.074 63.4087 112.833V120H60.9273V112.822C60.9273 112.289 60.8487 111.869 60.6915 111.561C60.5411 111.247 60.3189 111.024 60.0249 110.895C59.7378 110.758 59.379 110.689 58.9483 110.689C58.5245 110.689 58.1451 110.778 57.8101 110.956C57.4751 111.134 57.1915 111.376 56.959 111.684C56.7334 111.992 56.5591 112.347 56.4361 112.75C56.313 113.154 56.2515 113.584 56.2515 114.042ZM65.7546 114.576V114.34C65.7546 113.54 65.8708 112.798 66.1033 112.115C66.3357 111.424 66.6706 110.826 67.1081 110.32C67.5525 109.808 68.0925 109.411 68.7283 109.131C69.3708 108.844 70.0954 108.7 70.9021 108.7C71.7156 108.7 72.4402 108.844 73.0759 109.131C73.7185 109.411 74.2619 109.808 74.7063 110.32C75.1506 110.826 75.489 111.424 75.7214 112.115C75.9538 112.798 76.07 113.54 76.07 114.34V114.576C76.07 115.375 75.9538 116.117 75.7214 116.801C75.489 117.484 75.1506 118.083 74.7063 118.595C74.2619 119.101 73.7219 119.498 73.0862 119.785C72.4504 120.065 71.7292 120.205 70.9226 120.205C70.1091 120.205 69.3811 120.065 68.7385 119.785C68.1028 119.498 67.5627 119.101 67.1184 118.595C66.6741 118.083 66.3357 117.484 66.1033 116.801C65.8708 116.117 65.7546 115.375 65.7546 114.576ZM68.2258 114.34V114.576C68.2258 115.075 68.2771 115.546 68.3796 115.991C68.4822 116.435 68.6428 116.825 68.8616 117.16C69.0803 117.495 69.3606 117.758 69.7024 117.949C70.0442 118.141 70.4509 118.236 70.9226 118.236C71.3806 118.236 71.7771 118.141 72.112 117.949C72.4538 117.758 72.7341 117.495 72.9529 117.16C73.1716 116.825 73.3323 116.435 73.4348 115.991C73.5442 115.546 73.5989 115.075 73.5989 114.576V114.34C73.5989 113.848 73.5442 113.383 73.4348 112.945C73.3323 112.501 73.1682 112.108 72.9426 111.766C72.7239 111.424 72.4436 111.158 72.1018 110.966C71.7668 110.768 71.3669 110.669 70.9021 110.669C70.4372 110.669 70.0339 110.768 69.6921 110.966C69.3572 111.158 69.0803 111.424 68.8616 111.766C68.6428 112.108 68.4822 112.501 68.3796 112.945C68.2771 113.383 68.2258 113.848 68.2258 114.34ZM90.0211 107.06L85.5606 120H82.8639L88.483 105.07H90.2057L90.0211 107.06ZM93.7535 120L89.2828 107.06L89.088 105.07H90.8209L96.4605 120H93.7535ZM93.5382 114.463V116.503H85.4171V114.463H93.5382ZM100.447 111.274V120H97.9759V108.905H100.303L100.447 111.274ZM100.006 114.042L99.2063 114.032C99.2132 113.246 99.3225 112.525 99.5344 111.869C99.7532 111.212 100.054 110.648 100.437 110.177C100.826 109.705 101.291 109.343 101.831 109.09C102.371 108.83 102.973 108.7 103.636 108.7C104.169 108.7 104.651 108.775 105.082 108.926C105.519 109.069 105.892 109.305 106.199 109.633C106.514 109.961 106.753 110.389 106.917 110.915C107.081 111.435 107.163 112.074 107.163 112.833V120H104.682V112.822C104.682 112.289 104.603 111.869 104.446 111.561C104.296 111.247 104.074 111.024 103.78 110.895C103.492 110.758 103.134 110.689 102.703 110.689C102.279 110.689 101.9 110.778 101.565 110.956C101.23 111.134 100.946 111.376 100.714 111.684C100.488 111.992 100.314 112.347 100.191 112.75C100.068 113.154 100.006 113.584 100.006 114.042ZM110.104 108.905H112.585V120.964C112.585 121.723 112.456 122.362 112.196 122.881C111.936 123.408 111.553 123.804 111.047 124.071C110.541 124.344 109.923 124.481 109.191 124.481C108.973 124.481 108.747 124.464 108.515 124.43C108.275 124.402 108.05 124.361 107.838 124.307L107.848 122.379C107.992 122.406 108.145 122.427 108.31 122.44C108.467 122.461 108.617 122.471 108.761 122.471C109.055 122.471 109.301 122.42 109.499 122.317C109.697 122.215 109.848 122.054 109.95 121.835C110.053 121.617 110.104 121.326 110.104 120.964V108.905ZM109.889 105.993C109.889 105.617 110.015 105.306 110.268 105.06C110.521 104.807 110.866 104.681 111.304 104.681C111.748 104.681 112.093 104.807 112.339 105.06C112.592 105.306 112.719 105.617 112.719 105.993C112.719 106.362 112.592 106.67 112.339 106.916C112.093 107.162 111.748 107.285 111.304 107.285C110.866 107.285 110.521 107.162 110.268 106.916C110.015 106.67 109.889 106.362 109.889 105.993ZM115.075 114.576V114.34C115.075 113.54 115.191 112.798 115.423 112.115C115.656 111.424 115.991 110.826 116.428 110.32C116.873 109.808 117.413 109.411 118.048 109.131C118.691 108.844 119.416 108.7 120.222 108.7C121.036 108.7 121.76 108.844 122.396 109.131C123.039 109.411 123.582 109.808 124.027 110.32C124.471 110.826 124.809 111.424 125.042 112.115C125.274 112.798 125.39 113.54 125.39 114.34V114.576C125.39 115.375 125.274 116.117 125.042 116.801C124.809 117.484 124.471 118.083 124.027 118.595C123.582 119.101 123.042 119.498 122.406 119.785C121.771 120.065 121.049 120.205 120.243 120.205C119.429 120.205 118.701 120.065 118.059 119.785C117.423 119.498 116.883 119.101 116.439 118.595C115.994 118.083 115.656 117.484 115.423 116.801C115.191 116.117 115.075 115.375 115.075 114.576ZM117.546 114.34V114.576C117.546 115.075 117.597 115.546 117.7 115.991C117.802 116.435 117.963 116.825 118.182 117.16C118.401 117.495 118.681 117.758 119.023 117.949C119.364 118.141 119.771 118.236 120.243 118.236C120.701 118.236 121.097 118.141 121.432 117.949C121.774 117.758 122.054 117.495 122.273 117.16C122.492 116.825 122.652 116.435 122.755 115.991C122.864 115.546 122.919 115.075 122.919 114.576V114.34C122.919 113.848 122.864 113.383 122.755 112.945C122.652 112.501 122.488 112.108 122.263 111.766C122.044 111.424 121.764 111.158 121.422 110.966C121.087 110.768 120.687 110.669 120.222 110.669C119.757 110.669 119.354 110.768 119.012 110.966C118.677 111.158 118.401 111.424 118.182 111.766C117.963 112.108 117.802 112.501 117.7 112.945C117.597 113.383 117.546 113.848 117.546 114.34Z" fill="white"/>
<path d="M25.25 143.625V155H23.2891V143.625H25.25ZM29.6623 148.352V155H27.7795V146.547H29.5529L29.6623 148.352ZM29.3264 150.461L28.717 150.453C28.7222 149.854 28.8055 149.305 28.967 148.805C29.1336 148.305 29.3628 147.875 29.6545 147.516C29.9514 147.156 30.3055 146.88 30.717 146.688C31.1284 146.49 31.5868 146.391 32.092 146.391C32.4982 146.391 32.8654 146.448 33.1935 146.562C33.5269 146.672 33.8107 146.852 34.0451 147.102C34.2847 147.352 34.467 147.677 34.592 148.078C34.717 148.474 34.7795 148.961 34.7795 149.539V155H32.8889V149.531C32.8889 149.125 32.829 148.805 32.7092 148.57C32.5946 148.331 32.4253 148.161 32.2014 148.062C31.9826 147.958 31.7092 147.906 31.381 147.906C31.0581 147.906 30.7691 147.974 30.5139 148.109C30.2586 148.245 30.0425 148.43 29.8654 148.664C29.6935 148.898 29.5607 149.169 29.467 149.477C29.3732 149.784 29.3264 150.112 29.3264 150.461ZM39.7465 153.508L41.8168 146.547H43.7699L40.8324 155H39.6136L39.7465 153.508ZM38.1605 146.547L40.2699 153.539L40.3715 155H39.1527L36.1996 146.547H38.1605ZM47.2447 146.547V155H45.354V146.547H47.2447ZM45.229 144.328C45.229 144.042 45.3228 143.805 45.5103 143.617C45.703 143.424 45.9686 143.328 46.3072 143.328C46.6405 143.328 46.9035 143.424 47.0962 143.617C47.2889 143.805 47.3853 144.042 47.3853 144.328C47.3853 144.609 47.2889 144.844 47.0962 145.031C46.9035 145.219 46.6405 145.312 46.3072 145.312C45.9686 145.312 45.703 145.219 45.5103 145.031C45.3228 144.844 45.229 144.609 45.229 144.328ZM54.3445 152.711C54.3445 152.523 54.2976 152.354 54.2038 152.203C54.1101 152.047 53.9304 151.906 53.6648 151.781C53.4044 151.656 53.0189 151.542 52.5085 151.438C52.0606 151.339 51.6492 151.221 51.2742 151.086C50.9044 150.945 50.5867 150.776 50.321 150.578C50.0554 150.38 49.8497 150.146 49.7038 149.875C49.558 149.604 49.4851 149.292 49.4851 148.938C49.4851 148.594 49.5606 148.268 49.7117 147.961C49.8627 147.654 50.0788 147.383 50.3601 147.148C50.6413 146.914 50.9825 146.729 51.3835 146.594C51.7898 146.458 52.2429 146.391 52.7429 146.391C53.4512 146.391 54.058 146.51 54.5632 146.75C55.0736 146.984 55.4643 147.305 55.7351 147.711C56.0059 148.112 56.1413 148.565 56.1413 149.07H54.2585C54.2585 148.846 54.2012 148.638 54.0867 148.445C53.9773 148.247 53.8106 148.089 53.5867 147.969C53.3627 147.844 53.0814 147.781 52.7429 147.781C52.42 147.781 52.1518 147.833 51.9382 147.938C51.7299 148.036 51.5736 148.167 51.4695 148.328C51.3705 148.49 51.321 148.667 51.321 148.859C51.321 149 51.3471 149.128 51.3992 149.242C51.4564 149.352 51.5502 149.453 51.6804 149.547C51.8106 149.635 51.9877 149.719 52.2117 149.797C52.4408 149.875 52.7273 149.951 53.071 150.023C53.7169 150.159 54.2715 150.333 54.7351 150.547C55.2038 150.755 55.5632 151.026 55.8132 151.359C56.0632 151.688 56.1882 152.104 56.1882 152.609C56.1882 152.984 56.1075 153.328 55.946 153.641C55.7898 153.948 55.5606 154.216 55.2585 154.445C54.9564 154.669 54.5945 154.844 54.1726 154.969C53.7559 155.094 53.2872 155.156 52.7663 155.156C52.0007 155.156 51.3523 155.021 50.821 154.75C50.2898 154.474 49.8861 154.122 49.6101 153.695C49.3393 153.263 49.2038 152.815 49.2038 152.352H51.0242C51.045 152.701 51.1413 152.979 51.3132 153.188C51.4903 153.391 51.709 153.539 51.9695 153.633C52.2351 153.721 52.5085 153.766 52.7898 153.766C53.1283 153.766 53.4122 153.721 53.6413 153.633C53.8705 153.539 54.045 153.414 54.1648 153.258C54.2846 153.096 54.3445 152.914 54.3445 152.711ZM62.0067 146.547V147.922H57.2411V146.547H62.0067ZM58.6161 144.477H60.4989V152.664C60.4989 152.924 60.5354 153.125 60.6083 153.266C60.6864 153.401 60.7932 153.492 60.9286 153.539C61.064 153.586 61.2229 153.609 61.4052 153.609C61.5354 153.609 61.6604 153.602 61.7802 153.586C61.9 153.57 61.9963 153.555 62.0692 153.539L62.0771 154.977C61.9208 155.023 61.7385 155.065 61.5302 155.102C61.3271 155.138 61.0927 155.156 60.8271 155.156C60.3948 155.156 60.012 155.081 59.6786 154.93C59.3453 154.773 59.0849 154.521 58.8974 154.172C58.7099 153.823 58.6161 153.359 58.6161 152.781V144.477ZM68.5206 153.305V149.273C68.5206 148.971 68.4659 148.711 68.3565 148.492C68.2472 148.273 68.0805 148.104 67.8565 147.984C67.6378 147.865 67.3617 147.805 67.0284 147.805C66.7211 147.805 66.4555 147.857 66.2315 147.961C66.0076 148.065 65.8331 148.206 65.7081 148.383C65.5831 148.56 65.5206 148.76 65.5206 148.984H63.6456C63.6456 148.651 63.7263 148.328 63.8878 148.016C64.0492 147.703 64.2836 147.424 64.5909 147.18C64.8982 146.935 65.2654 146.742 65.6925 146.602C66.1196 146.461 66.5987 146.391 67.13 146.391C67.7654 146.391 68.3279 146.497 68.8175 146.711C69.3123 146.924 69.7003 147.247 69.9815 147.68C70.268 148.107 70.4112 148.643 70.4112 149.289V153.047C70.4112 153.432 70.4373 153.779 70.4893 154.086C70.5466 154.388 70.6274 154.651 70.7315 154.875V155H68.8018C68.7133 154.797 68.643 154.539 68.5909 154.227C68.544 153.909 68.5206 153.602 68.5206 153.305ZM68.794 149.859L68.8097 151.023H67.4581C67.1091 151.023 66.8018 151.057 66.5362 151.125C66.2706 151.188 66.0492 151.281 65.8722 151.406C65.6951 151.531 65.5623 151.682 65.4737 151.859C65.3852 152.036 65.3409 152.237 65.3409 152.461C65.3409 152.685 65.393 152.891 65.4972 153.078C65.6013 153.26 65.7524 153.404 65.9503 153.508C66.1534 153.612 66.3982 153.664 66.6847 153.664C67.0701 153.664 67.406 153.586 67.6925 153.43C67.9841 153.268 68.2133 153.073 68.38 152.844C68.5466 152.609 68.6352 152.388 68.6456 152.18L69.255 153.016C69.1925 153.229 69.0857 153.458 68.9347 153.703C68.7836 153.948 68.5857 154.182 68.3409 154.406C68.1013 154.625 67.8123 154.805 67.4737 154.945C67.1404 155.086 66.755 155.156 66.3175 155.156C65.7654 155.156 65.2732 155.047 64.8409 154.828C64.4086 154.604 64.0701 154.305 63.8253 153.93C63.5805 153.549 63.4581 153.12 63.4581 152.641C63.4581 152.193 63.5414 151.797 63.7081 151.453C63.88 151.104 64.13 150.812 64.4581 150.578C64.7914 150.344 65.1977 150.167 65.6768 150.047C66.156 149.922 66.7029 149.859 67.3175 149.859H68.794ZM80.6811 155.156C80.0561 155.156 79.491 155.055 78.9858 154.852C78.4858 154.643 78.0587 154.354 77.7046 153.984C77.3556 153.615 77.0874 153.18 76.8999 152.68C76.7124 152.18 76.6186 151.641 76.6186 151.062V150.75C76.6186 150.089 76.715 149.49 76.9077 148.953C77.1004 148.417 77.3686 147.958 77.7124 147.578C78.0561 147.193 78.4624 146.898 78.9311 146.695C79.3999 146.492 79.9077 146.391 80.4546 146.391C81.0587 146.391 81.5874 146.492 82.0405 146.695C82.4936 146.898 82.8686 147.185 83.1655 147.555C83.4676 147.919 83.6915 148.354 83.8374 148.859C83.9884 149.365 84.0639 149.922 84.0639 150.531V151.336H77.5327V149.984H82.2046V149.836C82.1941 149.497 82.1264 149.18 82.0014 148.883C81.8816 148.586 81.6967 148.346 81.4467 148.164C81.1967 147.982 80.8634 147.891 80.4467 147.891C80.1342 147.891 79.8556 147.958 79.6108 148.094C79.3712 148.224 79.1707 148.414 79.0092 148.664C78.8478 148.914 78.7228 149.216 78.6342 149.57C78.5509 149.919 78.5092 150.312 78.5092 150.75V151.062C78.5092 151.432 78.5587 151.776 78.6577 152.094C78.7618 152.406 78.9129 152.68 79.1108 152.914C79.3087 153.148 79.5483 153.333 79.8296 153.469C80.1108 153.599 80.4311 153.664 80.7905 153.664C81.2436 153.664 81.6473 153.573 82.0014 153.391C82.3556 153.208 82.6629 152.951 82.9233 152.617L83.9155 153.578C83.7332 153.844 83.4962 154.099 83.2046 154.344C82.9129 154.583 82.5561 154.779 82.1342 154.93C81.7176 155.081 81.2332 155.156 80.6811 155.156ZM87.7106 148.266V155H85.8278V146.547H87.6012L87.7106 148.266ZM87.4059 150.461L86.7653 150.453C86.7653 149.87 86.8382 149.331 86.984 148.836C87.1299 148.341 87.3434 147.911 87.6246 147.547C87.9059 147.177 88.2549 146.893 88.6715 146.695C89.0934 146.492 89.5804 146.391 90.1325 146.391C90.5179 146.391 90.8694 146.448 91.1871 146.562C91.5101 146.672 91.7887 146.846 92.0231 147.086C92.2627 147.326 92.445 147.633 92.57 148.008C92.7002 148.383 92.7653 148.836 92.7653 149.367V155H90.8825V149.531C90.8825 149.12 90.82 148.797 90.695 148.562C90.5752 148.328 90.4007 148.161 90.1715 148.062C89.9476 147.958 89.6793 147.906 89.3668 147.906C89.0127 147.906 88.7106 147.974 88.4606 148.109C88.2158 148.245 88.0153 148.43 87.859 148.664C87.7028 148.898 87.5882 149.169 87.5153 149.477C87.4424 149.784 87.4059 150.112 87.4059 150.461ZM92.6481 149.961L91.7653 150.156C91.7653 149.646 91.8356 149.164 91.9762 148.711C92.122 148.253 92.333 147.852 92.609 147.508C92.8903 147.159 93.2366 146.885 93.6481 146.688C94.0595 146.49 94.5309 146.391 95.0621 146.391C95.4944 146.391 95.8799 146.451 96.2184 146.57C96.5621 146.685 96.8538 146.867 97.0934 147.117C97.333 147.367 97.5153 147.693 97.6403 148.094C97.7653 148.49 97.8278 148.969 97.8278 149.531V155H95.9371V149.523C95.9371 149.096 95.8746 148.766 95.7496 148.531C95.6299 148.297 95.458 148.135 95.234 148.047C95.0101 147.953 94.7418 147.906 94.4293 147.906C94.1377 147.906 93.8799 147.961 93.6559 148.07C93.4371 148.174 93.2523 148.323 93.1012 148.516C92.9502 148.703 92.8356 148.919 92.7575 149.164C92.6845 149.409 92.6481 149.674 92.6481 149.961ZM106.355 146.547V155H104.465V146.547H106.355ZM104.34 144.328C104.34 144.042 104.434 143.805 104.621 143.617C104.814 143.424 105.079 143.328 105.418 143.328C105.751 143.328 106.014 143.424 106.207 143.617C106.4 143.805 106.496 144.042 106.496 144.328C106.496 144.609 106.4 144.844 106.207 145.031C106.014 145.219 105.751 145.312 105.418 145.312C105.079 145.312 104.814 145.219 104.621 145.031C104.434 144.844 104.34 144.609 104.34 144.328ZM113.869 153.25V143H115.76V155H114.049L113.869 153.25ZM108.369 150.867V150.703C108.369 150.062 108.445 149.479 108.596 148.953C108.747 148.422 108.966 147.966 109.252 147.586C109.539 147.201 109.888 146.906 110.299 146.703C110.71 146.495 111.174 146.391 111.69 146.391C112.2 146.391 112.648 146.49 113.033 146.688C113.419 146.885 113.747 147.169 114.018 147.539C114.289 147.904 114.505 148.341 114.666 148.852C114.828 149.357 114.942 149.919 115.01 150.539V151.062C114.942 151.667 114.828 152.219 114.666 152.719C114.505 153.219 114.289 153.651 114.018 154.016C113.747 154.38 113.416 154.661 113.026 154.859C112.64 155.057 112.19 155.156 111.674 155.156C111.164 155.156 110.703 155.049 110.291 154.836C109.885 154.622 109.539 154.323 109.252 153.938C108.966 153.552 108.747 153.099 108.596 152.578C108.445 152.052 108.369 151.482 108.369 150.867ZM110.252 150.703V150.867C110.252 151.253 110.286 151.612 110.354 151.945C110.427 152.279 110.539 152.573 110.69 152.828C110.841 153.078 111.036 153.276 111.276 153.422C111.52 153.562 111.812 153.633 112.151 153.633C112.578 153.633 112.929 153.539 113.205 153.352C113.481 153.164 113.697 152.911 113.854 152.594C114.015 152.271 114.125 151.911 114.182 151.516V150.102C114.151 149.794 114.085 149.508 113.987 149.242C113.893 148.977 113.765 148.745 113.604 148.547C113.442 148.344 113.242 148.188 113.002 148.078C112.768 147.964 112.489 147.906 112.166 147.906C111.822 147.906 111.531 147.979 111.291 148.125C111.052 148.271 110.854 148.471 110.697 148.727C110.546 148.982 110.434 149.279 110.362 149.617C110.289 149.956 110.252 150.318 110.252 150.703ZM121.75 155.156C121.125 155.156 120.56 155.055 120.055 154.852C119.555 154.643 119.128 154.354 118.774 153.984C118.425 153.615 118.157 153.18 117.969 152.68C117.782 152.18 117.688 151.641 117.688 151.062V150.75C117.688 150.089 117.784 149.49 117.977 148.953C118.17 148.417 118.438 147.958 118.782 147.578C119.125 147.193 119.532 146.898 120 146.695C120.469 146.492 120.977 146.391 121.524 146.391C122.128 146.391 122.657 146.492 123.11 146.695C123.563 146.898 123.938 147.185 124.235 147.555C124.537 147.919 124.761 148.354 124.907 148.859C125.058 149.365 125.133 149.922 125.133 150.531V151.336H118.602V149.984H123.274V149.836C123.263 149.497 123.196 149.18 123.071 148.883C122.951 148.586 122.766 148.346 122.516 148.164C122.266 147.982 121.933 147.891 121.516 147.891C121.203 147.891 120.925 147.958 120.68 148.094C120.44 148.224 120.24 148.414 120.078 148.664C119.917 148.914 119.792 149.216 119.703 149.57C119.62 149.919 119.578 150.312 119.578 150.75V151.062C119.578 151.432 119.628 151.776 119.727 152.094C119.831 152.406 119.982 152.68 120.18 152.914C120.378 153.148 120.618 153.333 120.899 153.469C121.18 153.599 121.5 153.664 121.86 153.664C122.313 153.664 122.717 153.573 123.071 153.391C123.425 153.208 123.732 152.951 123.993 152.617L124.985 153.578C124.802 153.844 124.565 154.099 124.274 154.344C123.982 154.583 123.625 154.779 123.203 154.93C122.787 155.081 122.302 155.156 121.75 155.156ZM128.913 146.547V155H127.022V146.547H128.913ZM126.897 144.328C126.897 144.042 126.991 143.805 127.178 143.617C127.371 143.424 127.637 143.328 127.975 143.328C128.308 143.328 128.572 143.424 128.764 143.617C128.957 143.805 129.053 144.042 129.053 144.328C129.053 144.609 128.957 144.844 128.764 145.031C128.572 145.219 128.308 145.312 127.975 145.312C127.637 145.312 127.371 145.219 127.178 145.031C126.991 144.844 126.897 144.609 126.897 144.328ZM136.036 153.305V149.273C136.036 148.971 135.981 148.711 135.872 148.492C135.762 148.273 135.596 148.104 135.372 147.984C135.153 147.865 134.877 147.805 134.544 147.805C134.236 147.805 133.971 147.857 133.747 147.961C133.523 148.065 133.348 148.206 133.223 148.383C133.098 148.56 133.036 148.76 133.036 148.984H131.161C131.161 148.651 131.242 148.328 131.403 148.016C131.565 147.703 131.799 147.424 132.106 147.18C132.413 146.935 132.781 146.742 133.208 146.602C133.635 146.461 134.114 146.391 134.645 146.391C135.281 146.391 135.843 146.497 136.333 146.711C136.828 146.924 137.216 147.247 137.497 147.68C137.783 148.107 137.926 148.643 137.926 149.289V153.047C137.926 153.432 137.953 153.779 138.005 154.086C138.062 154.388 138.143 154.651 138.247 154.875V155H136.317C136.229 154.797 136.158 154.539 136.106 154.227C136.059 153.909 136.036 153.602 136.036 153.305ZM136.309 149.859L136.325 151.023H134.973C134.624 151.023 134.317 151.057 134.051 151.125C133.786 151.188 133.565 151.281 133.387 151.406C133.21 151.531 133.078 151.682 132.989 151.859C132.9 152.036 132.856 152.237 132.856 152.461C132.856 152.685 132.908 152.891 133.012 153.078C133.117 153.26 133.268 153.404 133.466 153.508C133.669 153.612 133.913 153.664 134.2 153.664C134.585 153.664 134.921 153.586 135.208 153.43C135.499 153.268 135.729 153.073 135.895 152.844C136.062 152.609 136.15 152.388 136.161 152.18L136.77 153.016C136.708 153.229 136.601 153.458 136.45 153.703C136.299 153.948 136.101 154.182 135.856 154.406C135.617 154.625 135.328 154.805 134.989 154.945C134.656 155.086 134.27 155.156 133.833 155.156C133.281 155.156 132.788 155.047 132.356 154.828C131.924 154.604 131.585 154.305 131.341 153.93C131.096 153.549 130.973 153.12 130.973 152.641C130.973 152.193 131.057 151.797 131.223 151.453C131.395 151.104 131.645 150.812 131.973 150.578C132.307 150.344 132.713 150.167 133.192 150.047C133.671 149.922 134.218 149.859 134.833 149.859H136.309ZM144.933 152.711C144.933 152.523 144.886 152.354 144.792 152.203C144.698 152.047 144.518 151.906 144.253 151.781C143.992 151.656 143.607 151.542 143.097 151.438C142.649 151.339 142.237 151.221 141.862 151.086C141.492 150.945 141.175 150.776 140.909 150.578C140.643 150.38 140.438 150.146 140.292 149.875C140.146 149.604 140.073 149.292 140.073 148.938C140.073 148.594 140.149 148.268 140.3 147.961C140.451 147.654 140.667 147.383 140.948 147.148C141.229 146.914 141.571 146.729 141.972 146.594C142.378 146.458 142.831 146.391 143.331 146.391C144.039 146.391 144.646 146.51 145.151 146.75C145.662 146.984 146.052 147.305 146.323 147.711C146.594 148.112 146.729 148.565 146.729 149.07H144.847C144.847 148.846 144.789 148.638 144.675 148.445C144.565 148.247 144.399 148.089 144.175 147.969C143.951 147.844 143.67 147.781 143.331 147.781C143.008 147.781 142.74 147.833 142.526 147.938C142.318 148.036 142.162 148.167 142.058 148.328C141.959 148.49 141.909 148.667 141.909 148.859C141.909 149 141.935 149.128 141.987 149.242C142.045 149.352 142.138 149.453 142.268 149.547C142.399 149.635 142.576 149.719 142.8 149.797C143.029 149.875 143.315 149.951 143.659 150.023C144.305 150.159 144.86 150.333 145.323 150.547C145.792 150.755 146.151 151.026 146.401 151.359C146.651 151.688 146.776 152.104 146.776 152.609C146.776 152.984 146.696 153.328 146.534 153.641C146.378 153.948 146.149 154.216 145.847 154.445C145.545 154.669 145.183 154.844 144.761 154.969C144.344 155.094 143.875 155.156 143.354 155.156C142.589 155.156 141.94 155.021 141.409 154.75C140.878 154.474 140.474 154.122 140.198 153.695C139.927 153.263 139.792 152.815 139.792 152.352H141.612C141.633 152.701 141.729 152.979 141.901 153.188C142.078 153.391 142.297 153.539 142.558 153.633C142.823 153.721 143.097 153.766 143.378 153.766C143.716 153.766 144 153.721 144.229 153.633C144.459 153.539 144.633 153.414 144.753 153.258C144.873 153.096 144.933 152.914 144.933 152.711ZM27.7109 171.711C27.7109 171.523 27.6641 171.354 27.5703 171.203C27.4766 171.047 27.2969 170.906 27.0312 170.781C26.7708 170.656 26.3854 170.542 25.875 170.438C25.4271 170.339 25.0156 170.221 24.6406 170.086C24.2708 169.945 23.9531 169.776 23.6875 169.578C23.4219 169.38 23.2161 169.146 23.0703 168.875C22.9245 168.604 22.8516 168.292 22.8516 167.938C22.8516 167.594 22.9271 167.268 23.0781 166.961C23.2292 166.654 23.4453 166.383 23.7266 166.148C24.0078 165.914 24.349 165.729 24.75 165.594C25.1562 165.458 25.6094 165.391 26.1094 165.391C26.8177 165.391 27.4245 165.51 27.9297 165.75C28.4401 165.984 28.8307 166.305 29.1016 166.711C29.3724 167.112 29.5078 167.565 29.5078 168.07H27.625C27.625 167.846 27.5677 167.638 27.4531 167.445C27.3438 167.247 27.1771 167.089 26.9531 166.969C26.7292 166.844 26.4479 166.781 26.1094 166.781C25.7865 166.781 25.5182 166.833 25.3047 166.938C25.0964 167.036 24.9401 167.167 24.8359 167.328C24.737 167.49 24.6875 167.667 24.6875 167.859C24.6875 168 24.7135 168.128 24.7656 168.242C24.8229 168.352 24.9167 168.453 25.0469 168.547C25.1771 168.635 25.3542 168.719 25.5781 168.797C25.8073 168.875 26.0938 168.951 26.4375 169.023C27.0833 169.159 27.638 169.333 28.1016 169.547C28.5703 169.755 28.9297 170.026 29.1797 170.359C29.4297 170.688 29.5547 171.104 29.5547 171.609C29.5547 171.984 29.474 172.328 29.3125 172.641C29.1562 172.948 28.9271 173.216 28.625 173.445C28.3229 173.669 27.9609 173.844 27.5391 173.969C27.1224 174.094 26.6536 174.156 26.1328 174.156C25.3672 174.156 24.7188 174.021 24.1875 173.75C23.6562 173.474 23.2526 173.122 22.9766 172.695C22.7057 172.263 22.5703 171.815 22.5703 171.352H24.3906C24.4115 171.701 24.5078 171.979 24.6797 172.188C24.8568 172.391 25.0755 172.539 25.3359 172.633C25.6016 172.721 25.875 172.766 26.1562 172.766C26.4948 172.766 26.7786 172.721 27.0078 172.633C27.237 172.539 27.4115 172.414 27.5312 172.258C27.651 172.096 27.7109 171.914 27.7109 171.711ZM35.2248 174.156C34.5998 174.156 34.0347 174.055 33.5295 173.852C33.0295 173.643 32.6024 173.354 32.2482 172.984C31.8993 172.615 31.631 172.18 31.4435 171.68C31.256 171.18 31.1623 170.641 31.1623 170.062V169.75C31.1623 169.089 31.2586 168.49 31.4514 167.953C31.6441 167.417 31.9123 166.958 32.256 166.578C32.5998 166.193 33.006 165.898 33.4748 165.695C33.9435 165.492 34.4514 165.391 34.9982 165.391C35.6024 165.391 36.131 165.492 36.5842 165.695C37.0373 165.898 37.4123 166.185 37.7092 166.555C38.0112 166.919 38.2352 167.354 38.381 167.859C38.5321 168.365 38.6076 168.922 38.6076 169.531V170.336H32.0764V168.984H36.7482V168.836C36.7378 168.497 36.6701 168.18 36.5451 167.883C36.4253 167.586 36.2404 167.346 35.9904 167.164C35.7404 166.982 35.4071 166.891 34.9904 166.891C34.6779 166.891 34.3993 166.958 34.1545 167.094C33.9149 167.224 33.7144 167.414 33.5529 167.664C33.3915 167.914 33.2665 168.216 33.1779 168.57C33.0946 168.919 33.0529 169.312 33.0529 169.75V170.062C33.0529 170.432 33.1024 170.776 33.2014 171.094C33.3055 171.406 33.4566 171.68 33.6545 171.914C33.8524 172.148 34.092 172.333 34.3732 172.469C34.6545 172.599 34.9748 172.664 35.3342 172.664C35.7873 172.664 36.1909 172.573 36.5451 172.391C36.8993 172.208 37.2066 171.951 37.467 171.617L38.4592 172.578C38.2769 172.844 38.0399 173.099 37.7482 173.344C37.4566 173.583 37.0998 173.779 36.6779 173.93C36.2612 174.081 35.7769 174.156 35.2248 174.156ZM42.2543 167.266V174H40.3715V165.547H42.1449L42.2543 167.266ZM41.9496 169.461L41.309 169.453C41.309 168.87 41.3819 168.331 41.5277 167.836C41.6735 167.341 41.8871 166.911 42.1683 166.547C42.4496 166.177 42.7985 165.893 43.2152 165.695C43.6371 165.492 44.1241 165.391 44.6761 165.391C45.0616 165.391 45.4131 165.448 45.7308 165.562C46.0537 165.672 46.3324 165.846 46.5668 166.086C46.8063 166.326 46.9886 166.633 47.1136 167.008C47.2438 167.383 47.309 167.836 47.309 168.367V174H45.4261V168.531C45.4261 168.12 45.3636 167.797 45.2386 167.562C45.1188 167.328 44.9444 167.161 44.7152 167.062C44.4912 166.958 44.223 166.906 43.9105 166.906C43.5563 166.906 43.2543 166.974 43.0043 167.109C42.7595 167.245 42.559 167.43 42.4027 167.664C42.2465 167.898 42.1319 168.169 42.059 168.477C41.986 168.784 41.9496 169.112 41.9496 169.461ZM47.1918 168.961L46.309 169.156C46.309 168.646 46.3793 168.164 46.5199 167.711C46.6657 167.253 46.8767 166.852 47.1527 166.508C47.434 166.159 47.7803 165.885 48.1918 165.688C48.6032 165.49 49.0746 165.391 49.6058 165.391C50.0381 165.391 50.4235 165.451 50.7621 165.57C51.1058 165.685 51.3975 165.867 51.6371 166.117C51.8767 166.367 52.059 166.693 52.184 167.094C52.309 167.49 52.3715 167.969 52.3715 168.531V174H50.4808V168.523C50.4808 168.096 50.4183 167.766 50.2933 167.531C50.1735 167.297 50.0017 167.135 49.7777 167.047C49.5537 166.953 49.2855 166.906 48.973 166.906C48.6813 166.906 48.4235 166.961 48.1996 167.07C47.9808 167.174 47.7959 167.323 47.6449 167.516C47.4938 167.703 47.3793 167.919 47.3011 168.164C47.2282 168.409 47.1918 168.674 47.1918 168.961ZM60.8992 162V174H59.0085V162H60.8992ZM65.2724 165.547V174H63.3817V165.547H65.2724ZM63.2567 163.328C63.2567 163.042 63.3505 162.805 63.538 162.617C63.7307 162.424 63.9963 162.328 64.3349 162.328C64.6682 162.328 64.9312 162.424 65.1239 162.617C65.3166 162.805 65.413 163.042 65.413 163.328C65.413 163.609 65.3166 163.844 65.1239 164.031C64.9312 164.219 64.6682 164.312 64.3349 164.312C63.9963 164.312 63.7307 164.219 63.538 164.031C63.3505 163.844 63.2567 163.609 63.2567 163.328ZM69.5128 167.266V174H67.63V165.547H69.4034L69.5128 167.266ZM69.2081 169.461L68.5675 169.453C68.5675 168.87 68.6404 168.331 68.7862 167.836C68.9321 167.341 69.1456 166.911 69.4268 166.547C69.7081 166.177 70.0571 165.893 70.4737 165.695C70.8956 165.492 71.3826 165.391 71.9347 165.391C72.3201 165.391 72.6716 165.448 72.9893 165.562C73.3123 165.672 73.5909 165.846 73.8253 166.086C74.0649 166.326 74.2472 166.633 74.3722 167.008C74.5024 167.383 74.5675 167.836 74.5675 168.367V174H72.6847V168.531C72.6847 168.12 72.6222 167.797 72.4972 167.562C72.3774 167.328 72.2029 167.161 71.9737 167.062C71.7498 166.958 71.4815 166.906 71.169 166.906C70.8149 166.906 70.5128 166.974 70.2628 167.109C70.018 167.245 69.8175 167.43 69.6612 167.664C69.505 167.898 69.3904 168.169 69.3175 168.477C69.2446 168.784 69.2081 169.112 69.2081 169.461ZM74.4503 168.961L73.5675 169.156C73.5675 168.646 73.6378 168.164 73.7784 167.711C73.9242 167.253 74.1352 166.852 74.4112 166.508C74.6925 166.159 75.0388 165.885 75.4503 165.688C75.8617 165.49 76.3331 165.391 76.8643 165.391C77.2966 165.391 77.6821 165.451 78.0206 165.57C78.3643 165.685 78.656 165.867 78.8956 166.117C79.1352 166.367 79.3175 166.693 79.4425 167.094C79.5675 167.49 79.63 167.969 79.63 168.531V174H77.7393V168.523C77.7393 168.096 77.6768 167.766 77.5518 167.531C77.4321 167.297 77.2602 167.135 77.0362 167.047C76.8123 166.953 76.544 166.906 76.2315 166.906C75.9399 166.906 75.6821 166.961 75.4581 167.07C75.2393 167.174 75.0545 167.323 74.9034 167.516C74.7524 167.703 74.6378 167.919 74.5597 168.164C74.4867 168.409 74.4503 168.674 74.4503 168.961ZM83.8782 165.547V174H81.9876V165.547H83.8782ZM81.8626 163.328C81.8626 163.042 81.9563 162.805 82.1438 162.617C82.3365 162.424 82.6022 162.328 82.9407 162.328C83.274 162.328 83.5371 162.424 83.7298 162.617C83.9225 162.805 84.0188 163.042 84.0188 163.328C84.0188 163.609 83.9225 163.844 83.7298 164.031C83.5371 164.219 83.274 164.312 82.9407 164.312C82.6022 164.312 82.3365 164.219 82.1438 164.031C81.9563 163.844 81.8626 163.609 81.8626 163.328ZM90.1108 165.547V166.922H85.3452V165.547H90.1108ZM86.7202 163.477H88.603V171.664C88.603 171.924 88.6394 172.125 88.7124 172.266C88.7905 172.401 88.8973 172.492 89.0327 172.539C89.1681 172.586 89.3269 172.609 89.5092 172.609C89.6394 172.609 89.7644 172.602 89.8842 172.586C90.004 172.57 90.1004 172.555 90.1733 172.539L90.1811 173.977C90.0249 174.023 89.8426 174.065 89.6342 174.102C89.4311 174.138 89.1967 174.156 88.9311 174.156C88.4988 174.156 88.116 174.081 87.7827 173.93C87.4493 173.773 87.1889 173.521 87.0014 173.172C86.8139 172.823 86.7202 172.359 86.7202 171.781V163.477ZM95.5856 174.156C94.9606 174.156 94.3955 174.055 93.8903 173.852C93.3903 173.643 92.9632 173.354 92.609 172.984C92.2601 172.615 91.9918 172.18 91.8043 171.68C91.6168 171.18 91.5231 170.641 91.5231 170.062V169.75C91.5231 169.089 91.6194 168.49 91.8121 167.953C92.0049 167.417 92.2731 166.958 92.6168 166.578C92.9606 166.193 93.3668 165.898 93.8356 165.695C94.3043 165.492 94.8121 165.391 95.359 165.391C95.9632 165.391 96.4918 165.492 96.945 165.695C97.3981 165.898 97.7731 166.185 98.07 166.555C98.372 166.919 98.596 167.354 98.7418 167.859C98.8929 168.365 98.9684 168.922 98.9684 169.531V170.336H92.4371V168.984H97.109V168.836C97.0986 168.497 97.0309 168.18 96.9059 167.883C96.7861 167.586 96.6012 167.346 96.3512 167.164C96.1012 166.982 95.7679 166.891 95.3512 166.891C95.0387 166.891 94.7601 166.958 94.5153 167.094C94.2757 167.224 94.0752 167.414 93.9137 167.664C93.7523 167.914 93.6273 168.216 93.5387 168.57C93.4554 168.919 93.4137 169.312 93.4137 169.75V170.062C93.4137 170.432 93.4632 170.776 93.5621 171.094C93.6663 171.406 93.8174 171.68 94.0153 171.914C94.2132 172.148 94.4528 172.333 94.734 172.469C95.0153 172.599 95.3356 172.664 95.695 172.664C96.1481 172.664 96.5517 172.573 96.9059 172.391C97.2601 172.208 97.5674 171.951 97.8278 171.617L98.82 172.578C98.6377 172.844 98.4007 173.099 98.109 173.344C97.8174 173.583 97.4606 173.779 97.0387 173.93C96.622 174.081 96.1377 174.156 95.5856 174.156ZM105.474 171.711C105.474 171.523 105.428 171.354 105.334 171.203C105.24 171.047 105.06 170.906 104.795 170.781C104.534 170.656 104.149 170.542 103.638 170.438C103.191 170.339 102.779 170.221 102.404 170.086C102.034 169.945 101.717 169.776 101.451 169.578C101.185 169.38 100.98 169.146 100.834 168.875C100.688 168.604 100.615 168.292 100.615 167.938C100.615 167.594 100.691 167.268 100.842 166.961C100.993 166.654 101.209 166.383 101.49 166.148C101.771 165.914 102.112 165.729 102.513 165.594C102.92 165.458 103.373 165.391 103.873 165.391C104.581 165.391 105.188 165.51 105.693 165.75C106.204 165.984 106.594 166.305 106.865 166.711C107.136 167.112 107.271 167.565 107.271 168.07H105.388C105.388 167.846 105.331 167.638 105.217 167.445C105.107 167.247 104.941 167.089 104.717 166.969C104.493 166.844 104.211 166.781 103.873 166.781C103.55 166.781 103.282 166.833 103.068 166.938C102.86 167.036 102.704 167.167 102.599 167.328C102.5 167.49 102.451 167.667 102.451 167.859C102.451 168 102.477 168.128 102.529 168.242C102.586 168.352 102.68 168.453 102.81 168.547C102.941 168.635 103.118 168.719 103.342 168.797C103.571 168.875 103.857 168.951 104.201 169.023C104.847 169.159 105.402 169.333 105.865 169.547C106.334 169.755 106.693 170.026 106.943 170.359C107.193 170.688 107.318 171.104 107.318 171.609C107.318 171.984 107.237 172.328 107.076 172.641C106.92 172.948 106.691 173.216 106.388 173.445C106.086 173.669 105.724 173.844 105.303 173.969C104.886 174.094 104.417 174.156 103.896 174.156C103.131 174.156 102.482 174.021 101.951 173.75C101.42 173.474 101.016 173.122 100.74 172.695C100.469 172.263 100.334 171.815 100.334 171.352H102.154C102.175 171.701 102.271 171.979 102.443 172.188C102.62 172.391 102.839 172.539 103.099 172.633C103.365 172.721 103.638 172.766 103.92 172.766C104.258 172.766 104.542 172.721 104.771 172.633C105 172.539 105.175 172.414 105.295 172.258C105.415 172.096 105.474 171.914 105.474 171.711ZM111.434 162.625L111.246 170.648H109.637L109.441 162.625H111.434ZM109.387 173.109C109.387 172.823 109.48 172.583 109.668 172.391C109.861 172.193 110.126 172.094 110.465 172.094C110.798 172.094 111.061 172.193 111.254 172.391C111.447 172.583 111.543 172.823 111.543 173.109C111.543 173.385 111.447 173.622 111.254 173.82C111.061 174.013 110.798 174.109 110.465 174.109C110.126 174.109 109.861 174.013 109.668 173.82C109.48 173.622 109.387 173.385 109.387 173.109Z" fill="white"/>
<path d="M237.077 43.9438L379.042 106.426L369.184 203.731L207.771 79.0719L237.077 43.9438Z" fill="#FCC75F"/>
<path d="M229.029 102.014L308.785 25.237L377.282 108.294L324.31 174.288L240.169 167.653L229.029 102.014Z" fill="black"/>
<path d="M349.744 54.5041L344.966 63.0228L338.679 107.306L316.296 153.318L314.284 125.786L339.883 61.0754L339.433 54.8813L340.816 57.0185L341.948 51.9898L342.451 55.6356L344.463 52.2412L344.211 56.0128L347.103 52.8698C347.075 52.9704 345.972 56.7595 346.349 56.3899C346.726 56.0203 349.744 54.5041 349.744 54.5041Z" fill="#F6F4E7"/>
<path d="M219.221 112.083C220.957 112.083 222.365 110.676 222.365 108.94C222.365 107.204 220.957 105.797 219.221 105.797C217.485 105.797 216.078 107.204 216.078 108.94C216.078 110.676 217.485 112.083 219.221 112.083Z" fill="black"/>
<path d="M227.394 150.427C228.575 150.427 229.532 149.47 229.532 148.29C229.532 147.109 228.575 146.153 227.394 146.153C226.214 146.153 225.257 147.109 225.257 148.29C225.257 149.47 226.214 150.427 227.394 150.427Z" fill="black"/>
<path d="M266.878 191.537C267.642 191.537 268.262 190.918 268.262 190.154C268.262 189.39 267.642 188.771 266.878 188.771C266.114 188.771 265.495 189.39 265.495 190.154C265.495 190.918 266.114 191.537 266.878 191.537Z" fill="black"/>
<path d="M237.58 75.3733C238.344 75.3733 238.963 74.7542 238.963 73.9904C238.963 73.2267 238.344 72.6075 237.58 72.6075C236.816 72.6075 236.197 73.2267 236.197 73.9904C236.197 74.7542 236.816 75.3733 237.58 75.3733Z" fill="black"/>
<path d="M370.492 81.5335C371.255 81.5335 371.875 80.9144 371.875 80.1506C371.875 79.3868 371.255 78.7677 370.492 78.7677C369.728 78.7677 369.108 79.3868 369.108 80.1506C369.108 80.9144 369.728 81.5335 370.492 81.5335Z" fill="black"/>
<path d="M342.074 190.154C342.838 190.154 343.457 189.535 343.457 188.771C343.457 188.007 342.838 187.388 342.074 187.388C341.31 187.388 340.69 188.007 340.69 188.771C340.69 189.535 341.31 190.154 342.074 190.154Z" fill="black"/>
<path d="M222.113 176.374L265.621 152.941L250.28 196.691L222.113 176.374Z" fill="#1F86FF"/>
<path d="M347.732 126.666L389.857 125.786L390.108 145.901H342.577L347.732 126.666Z" fill="#1F86FF"/>
<path d="M217.46 82.0364L215.071 96.7454L237.202 100.014L236.322 87.9451L217.46 82.0364Z" fill="#89AAFF"/>
<path d="M245.25 135.718L258.705 130.689L263.231 143.01L247.136 151.558L245.501 145.147L253.549 142.758L245.25 135.718Z" stroke="white" stroke-width="4" stroke-miterlimit="10"/>
<path d="M328.367 164.256L334.78 152.187L341.696 154.576L335.786 164.256L342.073 165.89L336.666 173.056L328.367 164.256Z" stroke="white" stroke-width="4" stroke-miterlimit="10"/>
<path d="M387.97 87.3165C387.97 87.3165 346.852 101.271 360.558 104.54C374.264 107.809 384.198 103.408 374.516 100.517C364.833 97.6254 348.361 119.877 357.666 117.74C366.971 115.603 374.893 109.569 361.69 110.951C348.486 112.334 341.696 117.363 343.079 122.518" stroke="white" stroke-width="4" stroke-miterlimit="10"/>
<path d="M235.819 107.306C235.819 107.306 215.323 123.272 226.389 126.289C237.454 129.306 248.017 127.169 239.592 132.826C231.167 138.484 232.299 159.856 241.981 156.964" stroke="#89AAFF" stroke-width="4" stroke-miterlimit="10"/>
<path d="M279.704 122.14L278.321 149.673L255.31 103.66L249.064 59.7164L248.982 59.6925L244.999 49.8526L248.142 53.247L247.136 47.9668L249.651 51.6126C249.651 51.6126 249.274 46.4582 249.651 46.4582C250.028 46.4582 252.292 51.7383 252.292 51.7383L253.046 46.7096L254.429 53.4984L256.693 49.7269L255.406 60.7184L279.704 122.14Z" fill="#F6F4E7"/>
<path d="M321.326 41.3038C321.327 45.3701 320.245 49.3634 318.189 52.8723C316.134 56.3811 313.18 59.2787 309.631 61.2665V73.2361H287.249V61.2665C283.734 59.2965 280.802 56.4337 278.749 52.9675C276.696 49.5013 275.594 45.5546 275.556 41.5263C275.517 37.498 276.543 33.531 278.53 30.0263C280.517 26.5216 283.394 23.6034 286.87 21.5668C290.347 19.5302 294.3 18.4474 298.329 18.4278C302.358 18.4082 306.321 19.4526 309.817 21.4553C313.313 23.4579 316.219 26.348 318.24 29.8332C320.26 33.3184 321.325 37.2753 321.326 41.3038Z" fill="#FCC75F"/>
<path d="M294.968 73.5831L286.369 45.3267L293.913 54.0013L297.057 43.1895L301.206 53.7499L308.122 44.5724L303.093 74.1162" stroke="black" stroke-width="4" stroke-miterlimit="10"/>
<path d="M313.026 72.3561H283.728V78.5163H313.026V72.3561Z" fill="#89AAFF"/>
<path d="M290.015 80.402H306.739C306.739 82.0358 306.09 83.6027 304.935 84.7579C303.779 85.9132 302.212 86.5622 300.578 86.5622H296.177C294.542 86.5622 292.975 85.9132 291.82 84.7579C290.664 83.6027 290.015 82.0358 290.015 80.402Z" fill="#89AAFF"/>
<path d="M261.094 35.395C261.858 35.395 262.477 34.7759 262.477 34.0121C262.477 33.2484 261.858 32.6292 261.094 32.6292C260.33 32.6292 259.711 33.2484 259.711 34.0121C259.711 34.7759 260.33 35.395 261.094 35.395Z" fill="black"/>
<path d="M337.547 47.2125C338.311 47.2125 338.93 46.5934 338.93 45.8296C338.93 45.0659 338.311 44.4467 337.547 44.4467C336.783 44.4467 336.164 45.0659 336.164 45.8296C336.164 46.5934 336.783 47.2125 337.547 47.2125Z" fill="black"/>
<path d="M333.649 17.6688C333.649 17.6688 314.913 41.6809 330.756 36.1493C346.6 30.6177 356.408 26.0919 351.127 34.6407C345.846 43.1895 347.606 49.9783 362.696 54.2527C377.785 58.5271 346.6 71.3504 356.534 74.8705" stroke="#89AAFF" stroke-width="4" stroke-miterlimit="10"/>
<path d="M262.729 44.5724L271.531 73.8647L269.644 41.0523L262.729 44.5724Z" fill="#89AAFF"/>
<path d="M235.819 57.3957L227.143 67.4531L230.412 70.596L239.34 65.1902L243.364 68.4588L245.502 64.1844L235.819 57.3957Z" stroke="white" stroke-width="4" stroke-miterlimit="10"/>
<path d="M325.601 68.7103L317.553 88.9509L332.14 73.3618L325.601 68.7103Z" fill="#89AAFF"/>
<path d="M318.566 149.191C318.767 164.677 319.143 180.513 319.143 180.513L277.555 180.06L277.396 156.033L277.22 156.661L253.046 102.403L270.525 94.231L282.655 119.184L292.039 119.29L306.531 119.455L307.733 119.469C307.733 119.469 310.719 119.459 313.62 119.502L324.218 98.6311L342.451 105.923L318.566 149.191Z" fill="#1F86FF"/>
<path d="M320.557 169.42V169.742C320.557 170.125 320.405 170.491 320.135 170.762C319.864 171.032 319.498 171.184 319.115 171.184H318.964L319.44 203.228L276.309 202.977L276.756 175.411L276.823 171.184H276.795C276.728 171.184 276.662 171.179 276.596 171.17C276.251 171.122 275.936 170.951 275.708 170.689C275.479 170.426 275.353 170.09 275.354 169.742V169.42C275.354 169.038 275.505 168.672 275.776 168.401C276.046 168.131 276.412 167.979 276.795 167.978H319.115C319.498 167.979 319.864 168.131 320.135 168.401C320.405 168.671 320.557 169.038 320.557 169.42Z" fill="#FCC75F"/>
<path d="M297.434 202.977L297.56 184.496" stroke="black" stroke-width="4" stroke-miterlimit="10"/>
<path d="M276.755 175.411L276.823 171.184H276.794C276.728 171.184 276.662 171.18 276.596 171.17H318.943L276.755 175.411Z" fill="black"/>
<path d="M304.393 119.289L298.848 134.844L289.901 119.123L294.6 119.177L295.519 113.263L295.828 111.275L295.835 111.237L297.95 111.126L297.97 111.242L298.118 112.102L299.348 119.231L304.393 119.289Z" fill="#F6F4E7"/>
<path d="M298.118 112.102L295.519 113.263L295.828 111.275L297.97 111.242L298.118 112.102Z" fill="black"/>
<path d="M296.973 111.63C299.343 111.63 301.265 109.709 301.265 107.338C301.265 104.968 299.343 103.046 296.973 103.046C294.602 103.046 292.68 104.968 292.68 107.338C292.68 109.709 294.602 111.63 296.973 111.63Z" fill="#F6F4E7"/>
<path d="M319.565 119.626C319.565 120.983 319.232 122.319 318.596 123.517C317.959 124.715 317.039 125.739 315.915 126.499C314.79 127.259 313.497 127.732 312.148 127.876C310.798 128.02 309.434 127.831 308.175 127.326C306.916 126.82 305.799 126.014 304.924 124.977C304.049 123.94 303.441 122.705 303.154 121.379C302.868 120.053 302.911 118.677 303.279 117.371C303.648 116.065 304.331 114.87 305.269 113.89C303.665 113.264 302.286 112.169 301.315 110.748C300.343 109.326 299.823 107.645 299.823 105.923C299.823 105.89 299.823 105.857 299.823 105.825C298.077 106.474 296.152 106.457 294.416 105.777V105.797C294.417 107.699 293.763 109.543 292.566 111.021C291.368 112.499 289.7 113.52 287.839 113.915C288.788 115.406 289.235 117.162 289.117 118.925C288.998 120.689 288.319 122.368 287.179 123.719C286.039 125.07 284.497 126.022 282.778 126.435C281.059 126.849 279.253 126.703 277.623 126.018C275.992 125.334 274.624 124.147 273.716 122.63C272.807 121.113 272.407 119.346 272.574 117.587C272.741 115.827 273.465 114.166 274.641 112.847C275.818 111.527 277.385 110.618 279.115 110.251C278.148 108.734 277.701 106.945 277.841 105.152C277.98 103.359 278.698 101.66 279.887 100.31C281.076 98.9609 282.671 98.0341 284.433 97.6696C286.194 97.3051 288.026 97.5225 289.653 98.2892C289.774 96.3828 290.614 94.5933 292.003 93.2818C293.392 91.9703 295.227 91.2346 297.137 91.2231C299.048 91.2116 300.892 91.9252 302.296 93.2199C303.701 94.5146 304.562 96.2939 304.706 98.1987C306.526 97.3327 308.593 97.1373 310.543 97.6468C312.493 98.1564 314.2 99.3382 315.363 100.984C316.527 102.629 317.071 104.633 316.901 106.64C316.73 108.648 315.856 110.531 314.432 111.957C315.951 112.584 317.25 113.647 318.163 115.012C319.077 116.378 319.565 117.983 319.565 119.626Z" fill="#FCC75F"/>
<defs>
<filter id="filter0_b_385_151" x="-10" y="-10" width="427" height="237" filterUnits="userSpaceOnUse" color-interpolation-filters="sRGB">
<feFlood flood-opacity="0" result="BackgroundImageFix"/>
<feGaussianBlur in="BackgroundImage" stdDeviation="5"/>
<feComposite in2="SourceAlpha" operator="in" result="effect1_backgroundBlur_385_151"/>
<feBlend mode="normal" in="SourceGraphic" in2="effect1_backgroundBlur_385_151" result="shape"/>
</filter>
</defs>
</svg>
