<svg width="29" height="29" viewBox="0 0 29 29" fill="none" xmlns="http://www.w3.org/2000/svg">
<path d="M8.76074 7.25C8.52039 7.25 8.28988 7.34548 8.11993 7.51543C7.94997 7.68539 7.85449 7.9159 7.85449 8.15625V17.2187C7.85449 17.4591 7.94997 17.6896 8.11993 17.8596C8.28988 18.0295 8.52039 18.125 8.76074 18.125C9.00109 18.125 9.2316 18.0295 9.40156 17.8596C9.57151 17.6896 9.66699 17.4591 9.66699 17.2187V8.15625C9.66699 7.9159 9.57151 7.68539 9.40156 7.51543C9.2316 7.34548 9.00109 7.25 8.76074 7.25ZM14.5003 7.25C14.26 7.25 14.0295 7.34548 13.8595 7.51543C13.6896 7.68539 13.5941 7.9159 13.5941 8.15625V13.5937C13.5941 13.8341 13.6896 14.0646 13.8595 14.2346C14.0295 14.4045 14.26 14.5 14.5003 14.5C14.7407 14.5 14.9712 14.4045 15.1411 14.2346C15.3111 14.0646 15.4066 13.8341 15.4066 13.5937V8.15625C15.4066 7.9159 15.3111 7.68539 15.1411 7.51543C14.9712 7.34548 14.7407 7.25 14.5003 7.25ZM19.3337 8.15625C19.3337 7.9159 19.4291 7.68539 19.5991 7.51543C19.769 7.34548 19.9996 7.25 20.2399 7.25C20.4803 7.25 20.7108 7.34548 20.8807 7.51543C21.0507 7.68539 21.1462 7.9159 21.1462 8.15625V19.6354C21.1462 19.8758 21.0507 20.1063 20.8807 20.2762C20.7108 20.4462 20.4803 20.5417 20.2399 20.5417C19.9996 20.5417 19.769 20.4462 19.5991 20.2762C19.4291 20.1063 19.3337 19.8758 19.3337 19.6354V8.15625Z" fill="#BECADA"/>
<path fill-rule="evenodd" clip-rule="evenodd" d="M4.53158 2.41669C3.97075 2.41669 3.4329 2.63947 3.03634 3.03603C2.63978 3.4326 2.41699 3.97045 2.41699 4.53127V24.4688C2.41699 25.636 3.36433 26.5834 4.53158 26.5834H24.4691C25.0299 26.5834 25.5678 26.3606 25.9643 25.964C26.3609 25.5674 26.5837 25.0296 26.5837 24.4688V4.53127C26.5837 3.97045 26.3609 3.4326 25.9643 3.03603C25.5678 2.63947 25.0299 2.41669 24.4691 2.41669H4.53158ZM4.22949 4.53127C4.22949 4.45115 4.26132 4.37432 4.31797 4.31767C4.37462 4.26101 4.45146 4.22919 4.53158 4.22919H24.4691C24.5492 4.22919 24.626 4.26101 24.6827 4.31767C24.7393 4.37432 24.7712 4.45115 24.7712 4.53127V24.4688C24.7712 24.5489 24.7393 24.6257 24.6827 24.6824C24.626 24.739 24.5492 24.7709 24.4691 24.7709H4.53158C4.45146 24.7709 4.37462 24.739 4.31797 24.6824C4.26132 24.6257 4.22949 24.5489 4.22949 24.4688V4.53127Z" fill="#BECADA"/>
</svg>
