<svg width="118" height="118" viewBox="0 0 118 118" fill="none" xmlns="http://www.w3.org/2000/svg">
<rect x="1" y="1" width="116" height="116" rx="1" fill="#F8F8FA" stroke="#BECADA" stroke-width="2"/>
<g clip-path="url(#clip0_288_18)">
<path d="M55.3125 36.4688C55.3125 39.2452 54.2096 41.908 52.2463 43.8713C50.2831 45.8345 47.6203 46.9375 44.8438 46.9375C42.0673 46.9375 39.4045 45.8345 37.4413 43.8713C35.478 41.908 34.375 39.2452 34.375 36.4688C34.375 33.6923 35.478 31.0295 37.4413 29.0662C39.4045 27.103 42.0673 26 44.8438 26C47.6203 26 50.2831 27.103 52.2463 29.0662C54.2096 31.0295 55.3125 33.6923 55.3125 36.4688V36.4688ZM73.0047 53.4407C72.612 53.244 72.1674 53.1757 71.7338 53.2456C71.3002 53.3155 70.8995 53.52 70.5885 53.8301L55.0529 73.5532L43.9142 61.9455C43.512 61.6777 43.0296 61.5573 42.5488 61.6046C42.068 61.652 41.6183 61.8641 41.276 62.2051L26.0084 80.4375V88.8125C26.0084 89.9231 26.4496 90.9882 27.2349 91.7735C28.0202 92.5588 29.0853 93 30.1959 93H88.8209C89.3708 93 89.9154 92.8917 90.4234 92.6812C90.9315 92.4708 91.3931 92.1624 91.7819 91.7735C92.1708 91.3847 92.4792 90.923 92.6897 90.415C92.9001 89.9069 93.0084 89.3624 93.0084 88.8125V69.9688L73.0047 53.4407V53.4407Z" fill="#BECADA"/>
</g>
<defs>
<clipPath id="clip0_288_18">
<rect width="67" height="67" fill="white" transform="translate(26 26)"/>
</clipPath>
</defs>
</svg>
