<svg width="33" height="35" viewBox="0 0 33 35" fill="none" xmlns="http://www.w3.org/2000/svg">
<path d="M2.0625 24.0625H30.9375V26.25H2.0625V24.0625ZM2.0625 28.4375H30.9375V30.625H2.0625V28.4375ZM24.75 10.9375C24.3421 10.9375 23.9433 11.0658 23.6041 11.3062C23.265 11.5465 23.0006 11.8882 22.8445 12.2879C22.6884 12.6876 22.6475 13.1274 22.7271 13.5518C22.8067 13.9761 23.0031 14.3659 23.2916 14.6718C23.58 14.9777 23.9475 15.1861 24.3476 15.2705C24.7477 15.3549 25.1624 15.3116 25.5393 15.146C25.9162 14.9804 26.2383 14.7 26.4649 14.3403C26.6915 13.9806 26.8125 13.5576 26.8125 13.125C26.8125 12.5448 26.5952 11.9884 26.2084 11.5782C25.8216 11.168 25.297 10.9375 24.75 10.9375ZM16.5 17.5C15.6842 17.5 14.8866 17.2434 14.2083 16.7627C13.5299 16.282 13.0012 15.5987 12.689 14.7992C12.3768 13.9998 12.2951 13.1201 12.4543 12.2715C12.6134 11.4228 13.0063 10.6433 13.5832 10.0314C14.1601 9.41956 14.8951 9.00288 15.6953 8.83407C16.4954 8.66526 17.3248 8.7519 18.0786 9.08303C18.8323 9.41416 19.4766 9.97492 19.9298 10.6944C20.3831 11.4138 20.625 12.2597 20.625 13.125C20.6236 14.2849 20.1886 15.3968 19.4153 16.217C18.642 17.0372 17.5936 17.4986 16.5 17.5ZM16.5 10.9375C16.0921 10.9375 15.6933 11.0658 15.3541 11.3062C15.015 11.5465 14.7506 11.8882 14.5945 12.2879C14.4384 12.6876 14.3975 13.1274 14.4771 13.5518C14.5567 13.9761 14.7531 14.3659 15.0416 14.6718C15.33 14.9777 15.6975 15.1861 16.0976 15.2705C16.4977 15.3549 16.9124 15.3116 17.2893 15.146C17.6662 14.9804 17.9883 14.7 18.2149 14.3403C18.4415 13.9806 18.5625 13.5576 18.5625 13.125C18.562 12.545 18.3445 11.989 17.9578 11.5788C17.5711 11.1687 17.0468 10.9381 16.5 10.9375ZM8.25 10.9375C7.84208 10.9375 7.44331 11.0658 7.10414 11.3062C6.76496 11.5465 6.5006 11.8882 6.3445 12.2879C6.18839 12.6876 6.14755 13.1274 6.22713 13.5518C6.30671 13.9761 6.50315 14.3659 6.79159 14.6718C7.08004 14.9777 7.44754 15.1861 7.84763 15.2705C8.24771 15.3549 8.66241 15.3116 9.03928 15.146C9.41616 14.9804 9.73828 14.7 9.96491 14.3403C10.1915 13.9806 10.3125 13.5576 10.3125 13.125C10.3125 12.5448 10.0952 11.9884 9.70841 11.5782C9.32161 11.168 8.79701 10.9375 8.25 10.9375Z" fill="black"/>
<path d="M28.875 21.875H4.125C3.57841 21.8736 3.0546 21.6426 2.6681 21.2327C2.2816 20.8228 2.06386 20.2672 2.0625 19.6875V6.5625C2.06386 5.98278 2.2816 5.42722 2.6681 5.0173C3.0546 4.60738 3.57841 4.37644 4.125 4.375H28.875C29.4216 4.37644 29.9454 4.60738 30.3319 5.0173C30.7184 5.42722 30.9361 5.98278 30.9375 6.5625V19.6875C30.9367 20.2674 30.7191 20.8233 30.3325 21.2333C29.9459 21.6434 29.4218 21.8741 28.875 21.875ZM28.875 6.5625H4.125V19.6875H28.875V6.5625Z" fill="black"/>
</svg>
