<svg width="31" height="31" viewBox="0 0 31 31" fill="none" xmlns="http://www.w3.org/2000/svg">
<path d="M28.0938 7.69855C27.1675 8.09816 26.1594 8.38576 25.121 8.49777C26.1991 7.85729 27.0064 6.84544 27.3915 5.65206C26.3799 6.25387 25.2716 6.67586 24.1159 6.89933C23.6329 6.38294 23.0487 5.97157 22.3997 5.69084C21.7507 5.4101 21.0509 5.26603 20.3438 5.26759C17.483 5.26759 15.1822 7.58654 15.1822 10.4322C15.1822 10.8318 15.2307 11.2315 15.3094 11.6159C11.0257 11.3919 7.20517 9.34542 4.66523 6.21212C4.20243 7.00261 3.9599 7.90267 3.96289 8.81866C3.96289 10.6109 4.87412 12.1911 6.26367 13.1205C5.44479 13.0883 4.64508 12.8632 3.92959 12.4636V12.5272C3.92959 15.0368 5.70361 17.1166 8.06797 17.5949C7.62403 17.7102 7.16735 17.7692 6.70869 17.7705C6.37265 17.7705 6.05478 17.7372 5.73389 17.6918C6.38779 19.7383 8.29199 21.2247 10.5595 21.2732C8.78545 22.6627 6.56338 23.4801 4.15059 23.4801C3.71768 23.4801 3.31807 23.465 2.90332 23.4165C5.19199 24.8848 7.90752 25.7324 10.8319 25.7324C20.3257 25.7324 25.5206 17.8674 25.5206 11.0407C25.5206 10.8167 25.5206 10.5927 25.5055 10.3687C26.5105 9.63302 27.3915 8.72179 28.0938 7.69855Z" fill="black"/>
</svg>
