<svg width="49" height="49" viewBox="0 0 49 49" fill="none" xmlns="http://www.w3.org/2000/svg">
<path d="M40.9594 38.174C43.1585 35.5282 44.6879 32.3916 45.4184 29.0297C46.1489 25.6677 46.0589 22.1793 45.1561 18.8595C44.2532 15.5397 42.5641 12.4861 40.2315 9.9572C37.899 7.42826 34.9916 5.49832 31.7555 4.33063C28.5193 3.16295 25.0495 2.79187 21.6396 3.2488C18.2297 3.70572 14.9799 4.97721 12.1653 6.95569C9.35076 8.93417 7.05408 11.5614 5.46961 14.6153C3.88515 17.6691 3.05949 21.0596 3.06251 24.5C3.06366 29.5013 4.82612 34.3425 8.0406 38.174L8.00998 38.2001C8.11716 38.3287 8.23966 38.4389 8.34991 38.566C8.48773 38.7238 8.63626 38.8723 8.77866 39.0254C9.20741 39.4909 9.64841 39.938 10.1109 40.3576C10.2517 40.4862 10.3972 40.6057 10.5396 40.7282C11.0296 41.1508 11.5334 41.552 12.0555 41.9256C12.1229 41.9715 12.1842 42.0313 12.2515 42.0787V42.0604C15.8379 44.5841 20.1162 45.9386 24.5015 45.9386C28.8869 45.9386 33.1652 44.5841 36.7515 42.0604V42.0787C36.8189 42.0313 36.8786 41.9715 36.9475 41.9256C37.4682 41.5504 37.9735 41.1508 38.4635 40.7282C38.6059 40.6057 38.7514 40.4847 38.8922 40.3576C39.3547 39.9365 39.7957 39.4909 40.2244 39.0254C40.3668 38.8723 40.5138 38.7238 40.6532 38.566C40.7619 38.4389 40.8859 38.3287 40.9931 38.1985L40.9594 38.174ZM24.5 12.25C25.8628 12.25 27.1951 12.6541 28.3282 13.4113C29.4614 14.1684 30.3446 15.2446 30.8661 16.5037C31.3877 17.7628 31.5241 19.1482 31.2582 20.4849C30.9924 21.8215 30.3361 23.0493 29.3724 24.013C28.4087 24.9767 27.181 25.633 25.8443 25.8988C24.5077 26.1647 23.1222 26.0282 21.8631 25.5067C20.604 24.9852 19.5278 24.102 18.7707 22.9688C18.0135 21.8357 17.6094 20.5034 17.6094 19.1406C17.6094 17.3131 18.3354 15.5604 19.6276 14.2682C20.9198 12.976 22.6725 12.25 24.5 12.25V12.25ZM12.2607 38.174C12.2873 36.1635 13.1044 34.2442 14.5352 32.8314C15.966 31.4187 17.8955 30.626 19.9063 30.625H29.0938C31.1045 30.626 33.034 31.4187 34.4648 32.8314C35.8957 34.2442 36.7127 36.1635 36.7393 38.174C33.381 41.2003 29.0207 42.8751 24.5 42.8751C19.9794 42.8751 15.619 41.2003 12.2607 38.174V38.174Z" fill="black"/>
</svg>
