<svg width="31" height="31" viewBox="0 0 31 31" fill="none" xmlns="http://www.w3.org/2000/svg">
<path d="M29.0625 15.4153C29.0625 15.3487 29.0625 15.273 29.0595 15.1852C29.0564 14.94 29.0504 14.6645 29.0443 14.3708C29.0201 13.5262 28.9777 12.6846 28.9111 11.8914C28.8203 10.7986 28.6871 9.88733 28.5055 9.20315C28.3138 8.48915 27.9381 7.83797 27.4158 7.31468C26.8936 6.7914 26.2432 6.41435 25.5296 6.22122C24.6729 5.99114 22.9957 5.84885 20.6344 5.76106C19.5112 5.71868 18.3094 5.69143 17.1075 5.67629C16.6867 5.67024 16.2962 5.66721 15.945 5.66418H15.055C14.7038 5.66721 14.3133 5.67024 13.8925 5.67629C12.6906 5.69143 11.4888 5.71868 10.3656 5.76106C8.0043 5.85188 6.32412 5.99417 5.47041 6.22122C4.75657 6.41387 4.10589 6.79077 3.5836 7.31412C3.06131 7.83748 2.68574 8.48892 2.49453 9.20315C2.30986 9.88733 2.17969 10.7986 2.08887 11.8914C2.02227 12.6846 1.97988 13.5262 1.95566 14.3708C1.94658 14.6645 1.94355 14.94 1.94053 15.1852C1.94053 15.273 1.9375 15.3487 1.9375 15.4153V15.5848C1.9375 15.6514 1.9375 15.7271 1.94053 15.8149C1.94355 16.0601 1.94961 16.3356 1.95566 16.6292C1.97988 17.4739 2.02227 18.3155 2.08887 19.1086C2.17969 20.2015 2.31289 21.1127 2.49453 21.7969C2.88203 23.247 4.02031 24.3913 5.47041 24.7789C6.32412 25.0089 8.0043 25.1512 10.3656 25.239C11.4888 25.2814 12.6906 25.3086 13.8925 25.3238C14.3133 25.3298 14.7038 25.3329 15.055 25.3359H15.945C16.2962 25.3329 16.6867 25.3298 17.1075 25.3238C18.3094 25.3086 19.5112 25.2814 20.6344 25.239C22.9957 25.1482 24.6759 25.0059 25.5296 24.7789C26.9797 24.3913 28.118 23.25 28.5055 21.7969C28.6901 21.1127 28.8203 20.2015 28.9111 19.1086C28.9777 18.3155 29.0201 17.4739 29.0443 16.6292C29.0534 16.3356 29.0564 16.0601 29.0595 15.8149C29.0595 15.7271 29.0625 15.6514 29.0625 15.5848V15.4153ZM26.8828 15.5727C26.8828 15.6363 26.8828 15.7059 26.8798 15.7876C26.8768 16.0238 26.8707 16.2841 26.8646 16.5657C26.8435 17.3709 26.8011 18.1762 26.7375 18.924C26.6558 19.8988 26.5407 20.698 26.3984 21.2338C26.2107 21.9331 25.6598 22.4872 24.9635 22.6718C24.3277 22.8413 22.7263 22.9776 20.5496 23.0593C19.4477 23.1017 18.2609 23.1289 17.0772 23.1441C16.6625 23.1501 16.278 23.1532 15.9329 23.1532H15.0671L13.9228 23.1441C12.7391 23.1289 11.5554 23.1017 10.4504 23.0593C8.27373 22.9746 6.66924 22.8413 6.03652 22.6718C5.34023 22.4841 4.78926 21.9331 4.60156 21.2338C4.45928 20.698 4.34424 19.8988 4.2625 18.924C4.19893 18.1762 4.15957 17.3709 4.13535 16.5657C4.12627 16.2841 4.12324 16.0207 4.12021 15.7876C4.12021 15.7059 4.11719 15.6332 4.11719 15.5727V15.4274C4.11719 15.3638 4.11719 15.2942 4.12021 15.2124C4.12324 14.9763 4.1293 14.716 4.13535 14.4344C4.15654 13.6291 4.19893 12.8239 4.2625 12.0761C4.34424 11.1013 4.45928 10.3021 4.60156 9.76624C4.78926 9.06692 5.34023 8.51292 6.03652 8.32825C6.67227 8.15872 8.27373 8.02249 10.4504 7.94075C11.5523 7.89837 12.7391 7.87112 13.9228 7.85598C14.3375 7.84993 14.722 7.8469 15.0671 7.8469H15.9329L17.0772 7.85598C18.2609 7.87112 19.4446 7.89837 20.5496 7.94075C22.7263 8.02551 24.3308 8.15872 24.9635 8.32825C25.6598 8.51594 26.2107 9.06692 26.3984 9.76624C26.5407 10.3021 26.6558 11.1013 26.7375 12.0761C26.8011 12.8239 26.8404 13.6291 26.8646 14.4344C26.8737 14.716 26.8768 14.9793 26.8798 15.2124C26.8798 15.2942 26.8828 15.3668 26.8828 15.4274V15.5727ZM12.8057 19.5567L19.8291 15.4698L12.8057 11.4434V19.5567Z" fill="black"/>
</svg>
